%TF.GenerationSoftware,KiCad,Pcbnew,7.0.7*%
%TF.CreationDate,2023-09-30T15:48:00-05:00*%
%TF.ProjectId,Asus Qcode,41737573-2051-4636-9f64-652e6b696361,rev?*%
%TF.SameCoordinates,Original*%
%TF.FileFunction,Legend,Bot*%
%TF.FilePolarity,Positive*%
%FSLAX46Y46*%
G04 Gerber Fmt 4.6, Leading zero omitted, Abs format (unit mm)*
G04 Created by KiCad (PCBNEW 7.0.7) date 2023-09-30 15:48:00*
%MOMM*%
%LPD*%
G01*
G04 APERTURE LIST*
%ADD10C,0.150000*%
%ADD11C,1.524000*%
%ADD12C,4.400000*%
%ADD13C,2.000000*%
%ADD14R,1.700000X1.700000*%
%ADD15O,1.700000X1.700000*%
%ADD16C,1.400000*%
%ADD17O,1.400000X1.400000*%
%ADD18R,1.600000X1.600000*%
%ADD19C,1.600000*%
G04 APERTURE END LIST*
D10*
X60001791Y-61346618D02*
X61001791Y-61346618D01*
X61001791Y-61346618D02*
X61001791Y-60965666D01*
X61001791Y-60965666D02*
X60954172Y-60870428D01*
X60954172Y-60870428D02*
X60906553Y-60822809D01*
X60906553Y-60822809D02*
X60811315Y-60775190D01*
X60811315Y-60775190D02*
X60668458Y-60775190D01*
X60668458Y-60775190D02*
X60573220Y-60822809D01*
X60573220Y-60822809D02*
X60525601Y-60870428D01*
X60525601Y-60870428D02*
X60477982Y-60965666D01*
X60477982Y-60965666D02*
X60477982Y-61346618D01*
X60573220Y-60203761D02*
X60620839Y-60298999D01*
X60620839Y-60298999D02*
X60668458Y-60346618D01*
X60668458Y-60346618D02*
X60763696Y-60394237D01*
X60763696Y-60394237D02*
X60811315Y-60394237D01*
X60811315Y-60394237D02*
X60906553Y-60346618D01*
X60906553Y-60346618D02*
X60954172Y-60298999D01*
X60954172Y-60298999D02*
X61001791Y-60203761D01*
X61001791Y-60203761D02*
X61001791Y-60013285D01*
X61001791Y-60013285D02*
X60954172Y-59918047D01*
X60954172Y-59918047D02*
X60906553Y-59870428D01*
X60906553Y-59870428D02*
X60811315Y-59822809D01*
X60811315Y-59822809D02*
X60763696Y-59822809D01*
X60763696Y-59822809D02*
X60668458Y-59870428D01*
X60668458Y-59870428D02*
X60620839Y-59918047D01*
X60620839Y-59918047D02*
X60573220Y-60013285D01*
X60573220Y-60013285D02*
X60573220Y-60203761D01*
X60573220Y-60203761D02*
X60525601Y-60298999D01*
X60525601Y-60298999D02*
X60477982Y-60346618D01*
X60477982Y-60346618D02*
X60382744Y-60394237D01*
X60382744Y-60394237D02*
X60192268Y-60394237D01*
X60192268Y-60394237D02*
X60097030Y-60346618D01*
X60097030Y-60346618D02*
X60049411Y-60298999D01*
X60049411Y-60298999D02*
X60001791Y-60203761D01*
X60001791Y-60203761D02*
X60001791Y-60013285D01*
X60001791Y-60013285D02*
X60049411Y-59918047D01*
X60049411Y-59918047D02*
X60097030Y-59870428D01*
X60097030Y-59870428D02*
X60192268Y-59822809D01*
X60192268Y-59822809D02*
X60382744Y-59822809D01*
X60382744Y-59822809D02*
X60477982Y-59870428D01*
X60477982Y-59870428D02*
X60525601Y-59918047D01*
X60525601Y-59918047D02*
X60573220Y-60013285D01*
X61001791Y-59203761D02*
X61001791Y-59108523D01*
X61001791Y-59108523D02*
X60954172Y-59013285D01*
X60954172Y-59013285D02*
X60906553Y-58965666D01*
X60906553Y-58965666D02*
X60811315Y-58918047D01*
X60811315Y-58918047D02*
X60620839Y-58870428D01*
X60620839Y-58870428D02*
X60382744Y-58870428D01*
X60382744Y-58870428D02*
X60192268Y-58918047D01*
X60192268Y-58918047D02*
X60097030Y-58965666D01*
X60097030Y-58965666D02*
X60049411Y-59013285D01*
X60049411Y-59013285D02*
X60001791Y-59108523D01*
X60001791Y-59108523D02*
X60001791Y-59203761D01*
X60001791Y-59203761D02*
X60049411Y-59298999D01*
X60049411Y-59298999D02*
X60097030Y-59346618D01*
X60097030Y-59346618D02*
X60192268Y-59394237D01*
X60192268Y-59394237D02*
X60382744Y-59441856D01*
X60382744Y-59441856D02*
X60620839Y-59441856D01*
X60620839Y-59441856D02*
X60811315Y-59394237D01*
X60811315Y-59394237D02*
X60906553Y-59346618D01*
X60906553Y-59346618D02*
X60954172Y-59298999D01*
X60954172Y-59298999D02*
X61001791Y-59203761D01*
X55425180Y-61185350D02*
X56425180Y-61185350D01*
X56425180Y-61185350D02*
X56425180Y-60804398D01*
X56425180Y-60804398D02*
X56377561Y-60709160D01*
X56377561Y-60709160D02*
X56329942Y-60661541D01*
X56329942Y-60661541D02*
X56234704Y-60613922D01*
X56234704Y-60613922D02*
X56091847Y-60613922D01*
X56091847Y-60613922D02*
X55996609Y-60661541D01*
X55996609Y-60661541D02*
X55948990Y-60709160D01*
X55948990Y-60709160D02*
X55901371Y-60804398D01*
X55901371Y-60804398D02*
X55901371Y-61185350D01*
X55996609Y-60042493D02*
X56044228Y-60137731D01*
X56044228Y-60137731D02*
X56091847Y-60185350D01*
X56091847Y-60185350D02*
X56187085Y-60232969D01*
X56187085Y-60232969D02*
X56234704Y-60232969D01*
X56234704Y-60232969D02*
X56329942Y-60185350D01*
X56329942Y-60185350D02*
X56377561Y-60137731D01*
X56377561Y-60137731D02*
X56425180Y-60042493D01*
X56425180Y-60042493D02*
X56425180Y-59852017D01*
X56425180Y-59852017D02*
X56377561Y-59756779D01*
X56377561Y-59756779D02*
X56329942Y-59709160D01*
X56329942Y-59709160D02*
X56234704Y-59661541D01*
X56234704Y-59661541D02*
X56187085Y-59661541D01*
X56187085Y-59661541D02*
X56091847Y-59709160D01*
X56091847Y-59709160D02*
X56044228Y-59756779D01*
X56044228Y-59756779D02*
X55996609Y-59852017D01*
X55996609Y-59852017D02*
X55996609Y-60042493D01*
X55996609Y-60042493D02*
X55948990Y-60137731D01*
X55948990Y-60137731D02*
X55901371Y-60185350D01*
X55901371Y-60185350D02*
X55806133Y-60232969D01*
X55806133Y-60232969D02*
X55615657Y-60232969D01*
X55615657Y-60232969D02*
X55520419Y-60185350D01*
X55520419Y-60185350D02*
X55472800Y-60137731D01*
X55472800Y-60137731D02*
X55425180Y-60042493D01*
X55425180Y-60042493D02*
X55425180Y-59852017D01*
X55425180Y-59852017D02*
X55472800Y-59756779D01*
X55472800Y-59756779D02*
X55520419Y-59709160D01*
X55520419Y-59709160D02*
X55615657Y-59661541D01*
X55615657Y-59661541D02*
X55806133Y-59661541D01*
X55806133Y-59661541D02*
X55901371Y-59709160D01*
X55901371Y-59709160D02*
X55948990Y-59756779D01*
X55948990Y-59756779D02*
X55996609Y-59852017D01*
X56425180Y-59042493D02*
X56425180Y-58947255D01*
X56425180Y-58947255D02*
X56377561Y-58852017D01*
X56377561Y-58852017D02*
X56329942Y-58804398D01*
X56329942Y-58804398D02*
X56234704Y-58756779D01*
X56234704Y-58756779D02*
X56044228Y-58709160D01*
X56044228Y-58709160D02*
X55806133Y-58709160D01*
X55806133Y-58709160D02*
X55615657Y-58756779D01*
X55615657Y-58756779D02*
X55520419Y-58804398D01*
X55520419Y-58804398D02*
X55472800Y-58852017D01*
X55472800Y-58852017D02*
X55425180Y-58947255D01*
X55425180Y-58947255D02*
X55425180Y-59042493D01*
X55425180Y-59042493D02*
X55472800Y-59137731D01*
X55472800Y-59137731D02*
X55520419Y-59185350D01*
X55520419Y-59185350D02*
X55615657Y-59232969D01*
X55615657Y-59232969D02*
X55806133Y-59280588D01*
X55806133Y-59280588D02*
X56044228Y-59280588D01*
X56044228Y-59280588D02*
X56234704Y-59232969D01*
X56234704Y-59232969D02*
X56329942Y-59185350D01*
X56329942Y-59185350D02*
X56377561Y-59137731D01*
X56377561Y-59137731D02*
X56425180Y-59042493D01*
X56377561Y-52479411D02*
X56425180Y-52574649D01*
X56425180Y-52574649D02*
X56425180Y-52717506D01*
X56425180Y-52717506D02*
X56377561Y-52860363D01*
X56377561Y-52860363D02*
X56282323Y-52955601D01*
X56282323Y-52955601D02*
X56187085Y-53003220D01*
X56187085Y-53003220D02*
X55996609Y-53050839D01*
X55996609Y-53050839D02*
X55853752Y-53050839D01*
X55853752Y-53050839D02*
X55663276Y-53003220D01*
X55663276Y-53003220D02*
X55568038Y-52955601D01*
X55568038Y-52955601D02*
X55472800Y-52860363D01*
X55472800Y-52860363D02*
X55425180Y-52717506D01*
X55425180Y-52717506D02*
X55425180Y-52622268D01*
X55425180Y-52622268D02*
X55472800Y-52479411D01*
X55472800Y-52479411D02*
X55520419Y-52431792D01*
X55520419Y-52431792D02*
X55853752Y-52431792D01*
X55853752Y-52431792D02*
X55853752Y-52622268D01*
X55425180Y-52003220D02*
X56425180Y-52003220D01*
X56425180Y-52003220D02*
X55425180Y-51431792D01*
X55425180Y-51431792D02*
X56425180Y-51431792D01*
X55425180Y-50955601D02*
X56425180Y-50955601D01*
X56425180Y-50955601D02*
X56425180Y-50717506D01*
X56425180Y-50717506D02*
X56377561Y-50574649D01*
X56377561Y-50574649D02*
X56282323Y-50479411D01*
X56282323Y-50479411D02*
X56187085Y-50431792D01*
X56187085Y-50431792D02*
X55996609Y-50384173D01*
X55996609Y-50384173D02*
X55853752Y-50384173D01*
X55853752Y-50384173D02*
X55663276Y-50431792D01*
X55663276Y-50431792D02*
X55568038Y-50479411D01*
X55568038Y-50479411D02*
X55472800Y-50574649D01*
X55472800Y-50574649D02*
X55425180Y-50717506D01*
X55425180Y-50717506D02*
X55425180Y-50955601D01*
X60887419Y-51712919D02*
X60935038Y-51808157D01*
X60935038Y-51808157D02*
X60935038Y-51951014D01*
X60935038Y-51951014D02*
X60887419Y-52093871D01*
X60887419Y-52093871D02*
X60792181Y-52189109D01*
X60792181Y-52189109D02*
X60696943Y-52236728D01*
X60696943Y-52236728D02*
X60506467Y-52284347D01*
X60506467Y-52284347D02*
X60363610Y-52284347D01*
X60363610Y-52284347D02*
X60173134Y-52236728D01*
X60173134Y-52236728D02*
X60077896Y-52189109D01*
X60077896Y-52189109D02*
X59982658Y-52093871D01*
X59982658Y-52093871D02*
X59935038Y-51951014D01*
X59935038Y-51951014D02*
X59935038Y-51855776D01*
X59935038Y-51855776D02*
X59982658Y-51712919D01*
X59982658Y-51712919D02*
X60030277Y-51665300D01*
X60030277Y-51665300D02*
X60363610Y-51665300D01*
X60363610Y-51665300D02*
X60363610Y-51855776D01*
X59935038Y-51236728D02*
X60935038Y-51236728D01*
X60935038Y-51236728D02*
X59935038Y-50665300D01*
X59935038Y-50665300D02*
X60935038Y-50665300D01*
X59935038Y-50189109D02*
X60935038Y-50189109D01*
X60935038Y-50189109D02*
X60935038Y-49951014D01*
X60935038Y-49951014D02*
X60887419Y-49808157D01*
X60887419Y-49808157D02*
X60792181Y-49712919D01*
X60792181Y-49712919D02*
X60696943Y-49665300D01*
X60696943Y-49665300D02*
X60506467Y-49617681D01*
X60506467Y-49617681D02*
X60363610Y-49617681D01*
X60363610Y-49617681D02*
X60173134Y-49665300D01*
X60173134Y-49665300D02*
X60077896Y-49712919D01*
X60077896Y-49712919D02*
X59982658Y-49808157D01*
X59982658Y-49808157D02*
X59935038Y-49951014D01*
X59935038Y-49951014D02*
X59935038Y-50189109D01*
%LPC*%
D11*
%TO.C,uP1*%
X34925000Y-46990000D03*
X34925000Y-44450000D03*
X34925000Y-41910000D03*
X34925000Y-39370000D03*
X34925000Y-36830000D03*
X34925000Y-34290000D03*
X34925000Y-31750000D03*
X34925000Y-29210000D03*
X34925000Y-26670000D03*
X34925000Y-24130000D03*
X34925000Y-21590000D03*
X34925000Y-19050000D03*
X19685000Y-46990000D03*
X19685000Y-44450000D03*
X19685000Y-41910000D03*
X19685000Y-39370000D03*
X19685000Y-36830000D03*
X19685000Y-34290000D03*
X19685000Y-31750000D03*
X19685000Y-29210000D03*
X19685000Y-26670000D03*
X19685000Y-24130000D03*
X19685000Y-21590000D03*
X19685000Y-19050000D03*
%TD*%
D12*
%TO.C,REF\u002A\u002A*%
X77470000Y-59690000D03*
%TD*%
D13*
%TO.C,SW1*%
X50165000Y-56860000D03*
X43665000Y-56860000D03*
X50165000Y-52360000D03*
X43665000Y-52360000D03*
%TD*%
D14*
%TO.C,J1*%
X60325000Y-56860000D03*
D15*
X60325000Y-54320000D03*
X62865000Y-56860000D03*
X62865000Y-54320000D03*
X65405000Y-56860000D03*
X65405000Y-54320000D03*
%TD*%
D14*
%TO.C,J2*%
X15240000Y-41910000D03*
D15*
X15240000Y-44450000D03*
X15240000Y-46990000D03*
%TD*%
D12*
%TO.C,REF\u002A\u002A*%
X77470000Y-15240000D03*
%TD*%
D16*
%TO.C,R1*%
X47625000Y-17780000D03*
D17*
X55245000Y-17780000D03*
%TD*%
D12*
%TO.C,REF\u002A\u002A*%
X15240000Y-59690000D03*
%TD*%
D18*
%TO.C,DSP2*%
X63500000Y-36830000D03*
D19*
X66040000Y-36830000D03*
X68580000Y-36830000D03*
X71120000Y-36830000D03*
X73660000Y-36830000D03*
X73660000Y-21590000D03*
X71120000Y-21590000D03*
X68580000Y-21590000D03*
X66040000Y-21590000D03*
X63500000Y-21590000D03*
%TD*%
D16*
%TO.C,R2*%
X60960000Y-17780000D03*
D17*
X68580000Y-17780000D03*
%TD*%
D18*
%TO.C,DSP1*%
X50165000Y-36830000D03*
D19*
X52705000Y-36830000D03*
X55245000Y-36830000D03*
X57785000Y-36830000D03*
X60325000Y-36830000D03*
X60325000Y-21590000D03*
X57785000Y-21590000D03*
X55245000Y-21590000D03*
X52705000Y-21590000D03*
X50165000Y-21590000D03*
%TD*%
D14*
%TO.C,J3*%
X55880000Y-54610000D03*
D15*
X55880000Y-57150000D03*
%TD*%
D12*
%TO.C,REF\u002A\u002A*%
X15240000Y-15240000D03*
%TD*%
%LPD*%
M02*
