%TF.GenerationSoftware,KiCad,Pcbnew,7.0.7*%
%TF.CreationDate,2023-09-30T13:33:02-05:00*%
%TF.ProjectId,Asus Qcode,41737573-2051-4636-9f64-652e6b696361,rev?*%
%TF.SameCoordinates,Original*%
%TF.FileFunction,Soldermask,Top*%
%TF.FilePolarity,Negative*%
%FSLAX46Y46*%
G04 Gerber Fmt 4.6, Leading zero omitted, Abs format (unit mm)*
G04 Created by KiCad (PCBNEW 7.0.7) date 2023-09-30 13:33:02*
%MOMM*%
%LPD*%
G01*
G04 APERTURE LIST*
%ADD10C,1.400000*%
%ADD11O,1.400000X1.400000*%
%ADD12R,1.600000X1.600000*%
%ADD13C,1.600000*%
%ADD14C,1.524000*%
%ADD15C,4.400000*%
%ADD16C,2.000000*%
%ADD17R,1.700000X1.700000*%
%ADD18O,1.700000X1.700000*%
G04 APERTURE END LIST*
D10*
%TO.C,R6*%
X127000000Y-58420000D03*
D11*
X127000000Y-50800000D03*
%TD*%
D12*
%TO.C,DSP5*%
X109220000Y-36707500D03*
D13*
X111760000Y-36707500D03*
X114300000Y-36707500D03*
X116840000Y-36707500D03*
X119380000Y-36707500D03*
X119380000Y-21467500D03*
X116840000Y-21467500D03*
X114300000Y-21467500D03*
X111760000Y-21467500D03*
X109220000Y-21467500D03*
%TD*%
D14*
%TO.C,uP1*%
X34925000Y-46990000D03*
X34925000Y-44450000D03*
X34925000Y-41910000D03*
X34925000Y-39370000D03*
X34925000Y-36830000D03*
X34925000Y-34290000D03*
X34925000Y-31750000D03*
X34925000Y-29210000D03*
X34925000Y-26670000D03*
X34925000Y-24130000D03*
X34925000Y-21590000D03*
X34925000Y-19050000D03*
X19685000Y-46990000D03*
X19685000Y-44450000D03*
X19685000Y-41910000D03*
X19685000Y-39370000D03*
X19685000Y-36830000D03*
X19685000Y-34290000D03*
X19685000Y-31750000D03*
X19685000Y-29210000D03*
X19685000Y-26670000D03*
X19685000Y-24130000D03*
X19685000Y-21590000D03*
X19685000Y-19050000D03*
%TD*%
D15*
%TO.C,REF\u002A\u002A*%
X132080000Y-59690000D03*
%TD*%
D16*
%TO.C,SW1*%
X50165000Y-56860000D03*
X43665000Y-56860000D03*
X50165000Y-52360000D03*
X43665000Y-52360000D03*
%TD*%
D12*
%TO.C,DSP6*%
X121920000Y-36707500D03*
D13*
X124460000Y-36707500D03*
X127000000Y-36707500D03*
X129540000Y-36707500D03*
X132080000Y-36707500D03*
X132080000Y-21467500D03*
X129540000Y-21467500D03*
X127000000Y-21467500D03*
X124460000Y-21467500D03*
X121920000Y-21467500D03*
%TD*%
D17*
%TO.C,J1*%
X73660000Y-56860000D03*
D18*
X73660000Y-54320000D03*
X76200000Y-56860000D03*
X76200000Y-54320000D03*
X78740000Y-56860000D03*
X78740000Y-54320000D03*
%TD*%
D17*
%TO.C,J2*%
X15240000Y-41910000D03*
D18*
X15240000Y-44450000D03*
X15240000Y-46990000D03*
%TD*%
D15*
%TO.C,REF\u002A\u002A*%
X132080000Y-15240000D03*
%TD*%
D10*
%TO.C,R1*%
X47756627Y-17780000D03*
D11*
X55376627Y-17780000D03*
%TD*%
D15*
%TO.C,REF\u002A\u002A*%
X15240000Y-59690000D03*
%TD*%
D10*
%TO.C,R5*%
X114300000Y-58420000D03*
D11*
X114300000Y-50800000D03*
%TD*%
D12*
%TO.C,DSP2*%
X63500000Y-36707500D03*
D13*
X66040000Y-36707500D03*
X68580000Y-36707500D03*
X71120000Y-36707500D03*
X73660000Y-36707500D03*
X73660000Y-21467500D03*
X71120000Y-21467500D03*
X68580000Y-21467500D03*
X66040000Y-21467500D03*
X63500000Y-21467500D03*
%TD*%
D12*
%TO.C,DSP3*%
X80010000Y-36707500D03*
D13*
X82550000Y-36707500D03*
X85090000Y-36707500D03*
X87630000Y-36707500D03*
X90170000Y-36707500D03*
X90170000Y-21467500D03*
X87630000Y-21467500D03*
X85090000Y-21467500D03*
X82550000Y-21467500D03*
X80010000Y-21467500D03*
%TD*%
D12*
%TO.C,DSP4*%
X92710000Y-36707500D03*
D13*
X95250000Y-36707500D03*
X97790000Y-36707500D03*
X100330000Y-36707500D03*
X102870000Y-36707500D03*
X102870000Y-21467500D03*
X100330000Y-21467500D03*
X97790000Y-21467500D03*
X95250000Y-21467500D03*
X92710000Y-21467500D03*
%TD*%
D10*
%TO.C,R2*%
X60960000Y-17780000D03*
D11*
X68580000Y-17780000D03*
%TD*%
D12*
%TO.C,DSP1*%
X50287500Y-36830000D03*
D13*
X52827500Y-36830000D03*
X55367500Y-36830000D03*
X57907500Y-36830000D03*
X60447500Y-36830000D03*
X60447500Y-21590000D03*
X57907500Y-21590000D03*
X55367500Y-21590000D03*
X52827500Y-21590000D03*
X50287500Y-21590000D03*
%TD*%
D10*
%TO.C,R3*%
X90170000Y-17780000D03*
D11*
X97790000Y-17780000D03*
%TD*%
D17*
%TO.C,J3*%
X66040000Y-54610000D03*
D18*
X66040000Y-57150000D03*
%TD*%
D15*
%TO.C,REF\u002A\u002A*%
X15240000Y-15240000D03*
%TD*%
D10*
%TO.C,R4*%
X77470000Y-17780000D03*
D11*
X85090000Y-17780000D03*
%TD*%
M02*
