%TF.GenerationSoftware,KiCad,Pcbnew,7.0.7*%
%TF.CreationDate,2023-09-30T14:50:42-05:00*%
%TF.ProjectId,Asus Qcode,41737573-2051-4636-9f64-652e6b696361,rev?*%
%TF.SameCoordinates,Original*%
%TF.FileFunction,Legend,Top*%
%TF.FilePolarity,Positive*%
%FSLAX46Y46*%
G04 Gerber Fmt 4.6, Leading zero omitted, Abs format (unit mm)*
G04 Created by KiCad (PCBNEW 7.0.7) date 2023-09-30 14:50:42*
%MOMM*%
%LPD*%
G01*
G04 APERTURE LIST*
%ADD10C,0.150000*%
%ADD11C,0.100000*%
%ADD12C,0.120000*%
%ADD13C,1.524000*%
%ADD14C,1.400000*%
%ADD15O,1.400000X1.400000*%
%ADD16R,1.600000X1.600000*%
%ADD17C,1.600000*%
%ADD18C,4.400000*%
%ADD19C,2.000000*%
%ADD20R,1.700000X1.700000*%
%ADD21O,1.700000X1.700000*%
G04 APERTURE END LIST*
D10*
X18783445Y-54235057D02*
X18688207Y-54187438D01*
X18688207Y-54187438D02*
X18592969Y-54092200D01*
X18592969Y-54092200D02*
X18450112Y-53949342D01*
X18450112Y-53949342D02*
X18354874Y-53901723D01*
X18354874Y-53901723D02*
X18259636Y-53901723D01*
X18307255Y-54139819D02*
X18212017Y-54092200D01*
X18212017Y-54092200D02*
X18116779Y-53996961D01*
X18116779Y-53996961D02*
X18069160Y-53806485D01*
X18069160Y-53806485D02*
X18069160Y-53473152D01*
X18069160Y-53473152D02*
X18116779Y-53282676D01*
X18116779Y-53282676D02*
X18212017Y-53187438D01*
X18212017Y-53187438D02*
X18307255Y-53139819D01*
X18307255Y-53139819D02*
X18497731Y-53139819D01*
X18497731Y-53139819D02*
X18592969Y-53187438D01*
X18592969Y-53187438D02*
X18688207Y-53282676D01*
X18688207Y-53282676D02*
X18735826Y-53473152D01*
X18735826Y-53473152D02*
X18735826Y-53806485D01*
X18735826Y-53806485D02*
X18688207Y-53996961D01*
X18688207Y-53996961D02*
X18592969Y-54092200D01*
X18592969Y-54092200D02*
X18497731Y-54139819D01*
X18497731Y-54139819D02*
X18307255Y-54139819D01*
X19735826Y-54044580D02*
X19688207Y-54092200D01*
X19688207Y-54092200D02*
X19545350Y-54139819D01*
X19545350Y-54139819D02*
X19450112Y-54139819D01*
X19450112Y-54139819D02*
X19307255Y-54092200D01*
X19307255Y-54092200D02*
X19212017Y-53996961D01*
X19212017Y-53996961D02*
X19164398Y-53901723D01*
X19164398Y-53901723D02*
X19116779Y-53711247D01*
X19116779Y-53711247D02*
X19116779Y-53568390D01*
X19116779Y-53568390D02*
X19164398Y-53377914D01*
X19164398Y-53377914D02*
X19212017Y-53282676D01*
X19212017Y-53282676D02*
X19307255Y-53187438D01*
X19307255Y-53187438D02*
X19450112Y-53139819D01*
X19450112Y-53139819D02*
X19545350Y-53139819D01*
X19545350Y-53139819D02*
X19688207Y-53187438D01*
X19688207Y-53187438D02*
X19735826Y-53235057D01*
X20307255Y-54139819D02*
X20212017Y-54092200D01*
X20212017Y-54092200D02*
X20164398Y-54044580D01*
X20164398Y-54044580D02*
X20116779Y-53949342D01*
X20116779Y-53949342D02*
X20116779Y-53663628D01*
X20116779Y-53663628D02*
X20164398Y-53568390D01*
X20164398Y-53568390D02*
X20212017Y-53520771D01*
X20212017Y-53520771D02*
X20307255Y-53473152D01*
X20307255Y-53473152D02*
X20450112Y-53473152D01*
X20450112Y-53473152D02*
X20545350Y-53520771D01*
X20545350Y-53520771D02*
X20592969Y-53568390D01*
X20592969Y-53568390D02*
X20640588Y-53663628D01*
X20640588Y-53663628D02*
X20640588Y-53949342D01*
X20640588Y-53949342D02*
X20592969Y-54044580D01*
X20592969Y-54044580D02*
X20545350Y-54092200D01*
X20545350Y-54092200D02*
X20450112Y-54139819D01*
X20450112Y-54139819D02*
X20307255Y-54139819D01*
X21497731Y-54139819D02*
X21497731Y-53139819D01*
X21497731Y-54092200D02*
X21402493Y-54139819D01*
X21402493Y-54139819D02*
X21212017Y-54139819D01*
X21212017Y-54139819D02*
X21116779Y-54092200D01*
X21116779Y-54092200D02*
X21069160Y-54044580D01*
X21069160Y-54044580D02*
X21021541Y-53949342D01*
X21021541Y-53949342D02*
X21021541Y-53663628D01*
X21021541Y-53663628D02*
X21069160Y-53568390D01*
X21069160Y-53568390D02*
X21116779Y-53520771D01*
X21116779Y-53520771D02*
X21212017Y-53473152D01*
X21212017Y-53473152D02*
X21402493Y-53473152D01*
X21402493Y-53473152D02*
X21497731Y-53520771D01*
X22354874Y-54092200D02*
X22259636Y-54139819D01*
X22259636Y-54139819D02*
X22069160Y-54139819D01*
X22069160Y-54139819D02*
X21973922Y-54092200D01*
X21973922Y-54092200D02*
X21926303Y-53996961D01*
X21926303Y-53996961D02*
X21926303Y-53616009D01*
X21926303Y-53616009D02*
X21973922Y-53520771D01*
X21973922Y-53520771D02*
X22069160Y-53473152D01*
X22069160Y-53473152D02*
X22259636Y-53473152D01*
X22259636Y-53473152D02*
X22354874Y-53520771D01*
X22354874Y-53520771D02*
X22402493Y-53616009D01*
X22402493Y-53616009D02*
X22402493Y-53711247D01*
X22402493Y-53711247D02*
X21926303Y-53806485D01*
X23926303Y-53616009D02*
X24069160Y-53663628D01*
X24069160Y-53663628D02*
X24116779Y-53711247D01*
X24116779Y-53711247D02*
X24164398Y-53806485D01*
X24164398Y-53806485D02*
X24164398Y-53949342D01*
X24164398Y-53949342D02*
X24116779Y-54044580D01*
X24116779Y-54044580D02*
X24069160Y-54092200D01*
X24069160Y-54092200D02*
X23973922Y-54139819D01*
X23973922Y-54139819D02*
X23592970Y-54139819D01*
X23592970Y-54139819D02*
X23592970Y-53139819D01*
X23592970Y-53139819D02*
X23926303Y-53139819D01*
X23926303Y-53139819D02*
X24021541Y-53187438D01*
X24021541Y-53187438D02*
X24069160Y-53235057D01*
X24069160Y-53235057D02*
X24116779Y-53330295D01*
X24116779Y-53330295D02*
X24116779Y-53425533D01*
X24116779Y-53425533D02*
X24069160Y-53520771D01*
X24069160Y-53520771D02*
X24021541Y-53568390D01*
X24021541Y-53568390D02*
X23926303Y-53616009D01*
X23926303Y-53616009D02*
X23592970Y-53616009D01*
X24592970Y-54139819D02*
X24592970Y-53473152D01*
X24592970Y-53663628D02*
X24640589Y-53568390D01*
X24640589Y-53568390D02*
X24688208Y-53520771D01*
X24688208Y-53520771D02*
X24783446Y-53473152D01*
X24783446Y-53473152D02*
X24878684Y-53473152D01*
X25592970Y-54092200D02*
X25497732Y-54139819D01*
X25497732Y-54139819D02*
X25307256Y-54139819D01*
X25307256Y-54139819D02*
X25212018Y-54092200D01*
X25212018Y-54092200D02*
X25164399Y-53996961D01*
X25164399Y-53996961D02*
X25164399Y-53616009D01*
X25164399Y-53616009D02*
X25212018Y-53520771D01*
X25212018Y-53520771D02*
X25307256Y-53473152D01*
X25307256Y-53473152D02*
X25497732Y-53473152D01*
X25497732Y-53473152D02*
X25592970Y-53520771D01*
X25592970Y-53520771D02*
X25640589Y-53616009D01*
X25640589Y-53616009D02*
X25640589Y-53711247D01*
X25640589Y-53711247D02*
X25164399Y-53806485D01*
X26497732Y-54139819D02*
X26497732Y-53616009D01*
X26497732Y-53616009D02*
X26450113Y-53520771D01*
X26450113Y-53520771D02*
X26354875Y-53473152D01*
X26354875Y-53473152D02*
X26164399Y-53473152D01*
X26164399Y-53473152D02*
X26069161Y-53520771D01*
X26497732Y-54092200D02*
X26402494Y-54139819D01*
X26402494Y-54139819D02*
X26164399Y-54139819D01*
X26164399Y-54139819D02*
X26069161Y-54092200D01*
X26069161Y-54092200D02*
X26021542Y-53996961D01*
X26021542Y-53996961D02*
X26021542Y-53901723D01*
X26021542Y-53901723D02*
X26069161Y-53806485D01*
X26069161Y-53806485D02*
X26164399Y-53758866D01*
X26164399Y-53758866D02*
X26402494Y-53758866D01*
X26402494Y-53758866D02*
X26497732Y-53711247D01*
X26973923Y-54139819D02*
X26973923Y-53139819D01*
X27069161Y-53758866D02*
X27354875Y-54139819D01*
X27354875Y-53473152D02*
X26973923Y-53854104D01*
X27926304Y-54139819D02*
X27831066Y-54092200D01*
X27831066Y-54092200D02*
X27783447Y-54044580D01*
X27783447Y-54044580D02*
X27735828Y-53949342D01*
X27735828Y-53949342D02*
X27735828Y-53663628D01*
X27735828Y-53663628D02*
X27783447Y-53568390D01*
X27783447Y-53568390D02*
X27831066Y-53520771D01*
X27831066Y-53520771D02*
X27926304Y-53473152D01*
X27926304Y-53473152D02*
X28069161Y-53473152D01*
X28069161Y-53473152D02*
X28164399Y-53520771D01*
X28164399Y-53520771D02*
X28212018Y-53568390D01*
X28212018Y-53568390D02*
X28259637Y-53663628D01*
X28259637Y-53663628D02*
X28259637Y-53949342D01*
X28259637Y-53949342D02*
X28212018Y-54044580D01*
X28212018Y-54044580D02*
X28164399Y-54092200D01*
X28164399Y-54092200D02*
X28069161Y-54139819D01*
X28069161Y-54139819D02*
X27926304Y-54139819D01*
X29116780Y-53473152D02*
X29116780Y-54139819D01*
X28688209Y-53473152D02*
X28688209Y-53996961D01*
X28688209Y-53996961D02*
X28735828Y-54092200D01*
X28735828Y-54092200D02*
X28831066Y-54139819D01*
X28831066Y-54139819D02*
X28973923Y-54139819D01*
X28973923Y-54139819D02*
X29069161Y-54092200D01*
X29069161Y-54092200D02*
X29116780Y-54044580D01*
X29450114Y-53473152D02*
X29831066Y-53473152D01*
X29592971Y-53139819D02*
X29592971Y-53996961D01*
X29592971Y-53996961D02*
X29640590Y-54092200D01*
X29640590Y-54092200D02*
X29735828Y-54139819D01*
X29735828Y-54139819D02*
X29831066Y-54139819D01*
X17973922Y-54749819D02*
X18307255Y-55749819D01*
X18307255Y-55749819D02*
X18640588Y-54749819D01*
X19497731Y-55749819D02*
X18926303Y-55749819D01*
X19212017Y-55749819D02*
X19212017Y-54749819D01*
X19212017Y-54749819D02*
X19116779Y-54892676D01*
X19116779Y-54892676D02*
X19021541Y-54987914D01*
X19021541Y-54987914D02*
X18926303Y-55035533D01*
X19926303Y-55654580D02*
X19973922Y-55702200D01*
X19973922Y-55702200D02*
X19926303Y-55749819D01*
X19926303Y-55749819D02*
X19878684Y-55702200D01*
X19878684Y-55702200D02*
X19926303Y-55654580D01*
X19926303Y-55654580D02*
X19926303Y-55749819D01*
X20926302Y-55749819D02*
X20354874Y-55749819D01*
X20640588Y-55749819D02*
X20640588Y-54749819D01*
X20640588Y-54749819D02*
X20545350Y-54892676D01*
X20545350Y-54892676D02*
X20450112Y-54987914D01*
X20450112Y-54987914D02*
X20354874Y-55035533D01*
X125534819Y-54776666D02*
X125058628Y-55109999D01*
X125534819Y-55348094D02*
X124534819Y-55348094D01*
X124534819Y-55348094D02*
X124534819Y-54967142D01*
X124534819Y-54967142D02*
X124582438Y-54871904D01*
X124582438Y-54871904D02*
X124630057Y-54824285D01*
X124630057Y-54824285D02*
X124725295Y-54776666D01*
X124725295Y-54776666D02*
X124868152Y-54776666D01*
X124868152Y-54776666D02*
X124963390Y-54824285D01*
X124963390Y-54824285D02*
X125011009Y-54871904D01*
X125011009Y-54871904D02*
X125058628Y-54967142D01*
X125058628Y-54967142D02*
X125058628Y-55348094D01*
X124534819Y-53919523D02*
X124534819Y-54109999D01*
X124534819Y-54109999D02*
X124582438Y-54205237D01*
X124582438Y-54205237D02*
X124630057Y-54252856D01*
X124630057Y-54252856D02*
X124772914Y-54348094D01*
X124772914Y-54348094D02*
X124963390Y-54395713D01*
X124963390Y-54395713D02*
X125344342Y-54395713D01*
X125344342Y-54395713D02*
X125439580Y-54348094D01*
X125439580Y-54348094D02*
X125487200Y-54300475D01*
X125487200Y-54300475D02*
X125534819Y-54205237D01*
X125534819Y-54205237D02*
X125534819Y-54014761D01*
X125534819Y-54014761D02*
X125487200Y-53919523D01*
X125487200Y-53919523D02*
X125439580Y-53871904D01*
X125439580Y-53871904D02*
X125344342Y-53824285D01*
X125344342Y-53824285D02*
X125106247Y-53824285D01*
X125106247Y-53824285D02*
X125011009Y-53871904D01*
X125011009Y-53871904D02*
X124963390Y-53919523D01*
X124963390Y-53919523D02*
X124915771Y-54014761D01*
X124915771Y-54014761D02*
X124915771Y-54205237D01*
X124915771Y-54205237D02*
X124963390Y-54300475D01*
X124963390Y-54300475D02*
X125011009Y-54348094D01*
X125011009Y-54348094D02*
X125106247Y-54395713D01*
X128470057Y-55848094D02*
X128422438Y-55800475D01*
X128422438Y-55800475D02*
X128374819Y-55705237D01*
X128374819Y-55705237D02*
X128374819Y-55467142D01*
X128374819Y-55467142D02*
X128422438Y-55371904D01*
X128422438Y-55371904D02*
X128470057Y-55324285D01*
X128470057Y-55324285D02*
X128565295Y-55276666D01*
X128565295Y-55276666D02*
X128660533Y-55276666D01*
X128660533Y-55276666D02*
X128803390Y-55324285D01*
X128803390Y-55324285D02*
X129374819Y-55895713D01*
X129374819Y-55895713D02*
X129374819Y-55276666D01*
X128470057Y-54895713D02*
X128422438Y-54848094D01*
X128422438Y-54848094D02*
X128374819Y-54752856D01*
X128374819Y-54752856D02*
X128374819Y-54514761D01*
X128374819Y-54514761D02*
X128422438Y-54419523D01*
X128422438Y-54419523D02*
X128470057Y-54371904D01*
X128470057Y-54371904D02*
X128565295Y-54324285D01*
X128565295Y-54324285D02*
X128660533Y-54324285D01*
X128660533Y-54324285D02*
X128803390Y-54371904D01*
X128803390Y-54371904D02*
X129374819Y-54943332D01*
X129374819Y-54943332D02*
X129374819Y-54324285D01*
X128374819Y-53705237D02*
X128374819Y-53609999D01*
X128374819Y-53609999D02*
X128422438Y-53514761D01*
X128422438Y-53514761D02*
X128470057Y-53467142D01*
X128470057Y-53467142D02*
X128565295Y-53419523D01*
X128565295Y-53419523D02*
X128755771Y-53371904D01*
X128755771Y-53371904D02*
X128993866Y-53371904D01*
X128993866Y-53371904D02*
X129184342Y-53419523D01*
X129184342Y-53419523D02*
X129279580Y-53467142D01*
X129279580Y-53467142D02*
X129327200Y-53514761D01*
X129327200Y-53514761D02*
X129374819Y-53609999D01*
X129374819Y-53609999D02*
X129374819Y-53705237D01*
X129374819Y-53705237D02*
X129327200Y-53800475D01*
X129327200Y-53800475D02*
X129279580Y-53848094D01*
X129279580Y-53848094D02*
X129184342Y-53895713D01*
X129184342Y-53895713D02*
X128993866Y-53943332D01*
X128993866Y-53943332D02*
X128755771Y-53943332D01*
X128755771Y-53943332D02*
X128565295Y-53895713D01*
X128565295Y-53895713D02*
X128470057Y-53848094D01*
X128470057Y-53848094D02*
X128422438Y-53800475D01*
X128422438Y-53800475D02*
X128374819Y-53705237D01*
X109039819Y-34856785D02*
X108039819Y-34856785D01*
X108039819Y-34856785D02*
X108039819Y-34618690D01*
X108039819Y-34618690D02*
X108087438Y-34475833D01*
X108087438Y-34475833D02*
X108182676Y-34380595D01*
X108182676Y-34380595D02*
X108277914Y-34332976D01*
X108277914Y-34332976D02*
X108468390Y-34285357D01*
X108468390Y-34285357D02*
X108611247Y-34285357D01*
X108611247Y-34285357D02*
X108801723Y-34332976D01*
X108801723Y-34332976D02*
X108896961Y-34380595D01*
X108896961Y-34380595D02*
X108992200Y-34475833D01*
X108992200Y-34475833D02*
X109039819Y-34618690D01*
X109039819Y-34618690D02*
X109039819Y-34856785D01*
X108992200Y-33904404D02*
X109039819Y-33761547D01*
X109039819Y-33761547D02*
X109039819Y-33523452D01*
X109039819Y-33523452D02*
X108992200Y-33428214D01*
X108992200Y-33428214D02*
X108944580Y-33380595D01*
X108944580Y-33380595D02*
X108849342Y-33332976D01*
X108849342Y-33332976D02*
X108754104Y-33332976D01*
X108754104Y-33332976D02*
X108658866Y-33380595D01*
X108658866Y-33380595D02*
X108611247Y-33428214D01*
X108611247Y-33428214D02*
X108563628Y-33523452D01*
X108563628Y-33523452D02*
X108516009Y-33713928D01*
X108516009Y-33713928D02*
X108468390Y-33809166D01*
X108468390Y-33809166D02*
X108420771Y-33856785D01*
X108420771Y-33856785D02*
X108325533Y-33904404D01*
X108325533Y-33904404D02*
X108230295Y-33904404D01*
X108230295Y-33904404D02*
X108135057Y-33856785D01*
X108135057Y-33856785D02*
X108087438Y-33809166D01*
X108087438Y-33809166D02*
X108039819Y-33713928D01*
X108039819Y-33713928D02*
X108039819Y-33475833D01*
X108039819Y-33475833D02*
X108087438Y-33332976D01*
X109039819Y-32904404D02*
X108039819Y-32904404D01*
X108039819Y-32904404D02*
X108039819Y-32523452D01*
X108039819Y-32523452D02*
X108087438Y-32428214D01*
X108087438Y-32428214D02*
X108135057Y-32380595D01*
X108135057Y-32380595D02*
X108230295Y-32332976D01*
X108230295Y-32332976D02*
X108373152Y-32332976D01*
X108373152Y-32332976D02*
X108468390Y-32380595D01*
X108468390Y-32380595D02*
X108516009Y-32428214D01*
X108516009Y-32428214D02*
X108563628Y-32523452D01*
X108563628Y-32523452D02*
X108563628Y-32904404D01*
X108039819Y-31428214D02*
X108039819Y-31904404D01*
X108039819Y-31904404D02*
X108516009Y-31952023D01*
X108516009Y-31952023D02*
X108468390Y-31904404D01*
X108468390Y-31904404D02*
X108420771Y-31809166D01*
X108420771Y-31809166D02*
X108420771Y-31571071D01*
X108420771Y-31571071D02*
X108468390Y-31475833D01*
X108468390Y-31475833D02*
X108516009Y-31428214D01*
X108516009Y-31428214D02*
X108611247Y-31380595D01*
X108611247Y-31380595D02*
X108849342Y-31380595D01*
X108849342Y-31380595D02*
X108944580Y-31428214D01*
X108944580Y-31428214D02*
X108992200Y-31475833D01*
X108992200Y-31475833D02*
X109039819Y-31571071D01*
X109039819Y-31571071D02*
X109039819Y-31809166D01*
X109039819Y-31809166D02*
X108992200Y-31904404D01*
X108992200Y-31904404D02*
X108944580Y-31952023D01*
X26543095Y-42968152D02*
X26543095Y-43634819D01*
X26114524Y-42968152D02*
X26114524Y-43491961D01*
X26114524Y-43491961D02*
X26162143Y-43587200D01*
X26162143Y-43587200D02*
X26257381Y-43634819D01*
X26257381Y-43634819D02*
X26400238Y-43634819D01*
X26400238Y-43634819D02*
X26495476Y-43587200D01*
X26495476Y-43587200D02*
X26543095Y-43539580D01*
X27019286Y-43634819D02*
X27019286Y-42634819D01*
X27019286Y-42634819D02*
X27400238Y-42634819D01*
X27400238Y-42634819D02*
X27495476Y-42682438D01*
X27495476Y-42682438D02*
X27543095Y-42730057D01*
X27543095Y-42730057D02*
X27590714Y-42825295D01*
X27590714Y-42825295D02*
X27590714Y-42968152D01*
X27590714Y-42968152D02*
X27543095Y-43063390D01*
X27543095Y-43063390D02*
X27495476Y-43111009D01*
X27495476Y-43111009D02*
X27400238Y-43158628D01*
X27400238Y-43158628D02*
X27019286Y-43158628D01*
X28543095Y-43634819D02*
X27971667Y-43634819D01*
X28257381Y-43634819D02*
X28257381Y-42634819D01*
X28257381Y-42634819D02*
X28162143Y-42777676D01*
X28162143Y-42777676D02*
X28066905Y-42872914D01*
X28066905Y-42872914D02*
X27971667Y-42920533D01*
X27759819Y-37289999D02*
X26759819Y-37289999D01*
X26759819Y-37289999D02*
X26759819Y-36909047D01*
X26759819Y-36909047D02*
X26807438Y-36813809D01*
X26807438Y-36813809D02*
X26855057Y-36766190D01*
X26855057Y-36766190D02*
X26950295Y-36718571D01*
X26950295Y-36718571D02*
X27093152Y-36718571D01*
X27093152Y-36718571D02*
X27188390Y-36766190D01*
X27188390Y-36766190D02*
X27236009Y-36813809D01*
X27236009Y-36813809D02*
X27283628Y-36909047D01*
X27283628Y-36909047D02*
X27283628Y-37289999D01*
X27759819Y-36289999D02*
X27093152Y-36289999D01*
X27283628Y-36289999D02*
X27188390Y-36242380D01*
X27188390Y-36242380D02*
X27140771Y-36194761D01*
X27140771Y-36194761D02*
X27093152Y-36099523D01*
X27093152Y-36099523D02*
X27093152Y-36004285D01*
X27759819Y-35528094D02*
X27712200Y-35623332D01*
X27712200Y-35623332D02*
X27664580Y-35670951D01*
X27664580Y-35670951D02*
X27569342Y-35718570D01*
X27569342Y-35718570D02*
X27283628Y-35718570D01*
X27283628Y-35718570D02*
X27188390Y-35670951D01*
X27188390Y-35670951D02*
X27140771Y-35623332D01*
X27140771Y-35623332D02*
X27093152Y-35528094D01*
X27093152Y-35528094D02*
X27093152Y-35385237D01*
X27093152Y-35385237D02*
X27140771Y-35289999D01*
X27140771Y-35289999D02*
X27188390Y-35242380D01*
X27188390Y-35242380D02*
X27283628Y-35194761D01*
X27283628Y-35194761D02*
X27569342Y-35194761D01*
X27569342Y-35194761D02*
X27664580Y-35242380D01*
X27664580Y-35242380D02*
X27712200Y-35289999D01*
X27712200Y-35289999D02*
X27759819Y-35385237D01*
X27759819Y-35385237D02*
X27759819Y-35528094D01*
X27759819Y-34766189D02*
X26759819Y-34766189D01*
X26759819Y-34766189D02*
X27474104Y-34432856D01*
X27474104Y-34432856D02*
X26759819Y-34099523D01*
X26759819Y-34099523D02*
X27759819Y-34099523D01*
X27759819Y-33623332D02*
X27093152Y-33623332D01*
X26759819Y-33623332D02*
X26807438Y-33670951D01*
X26807438Y-33670951D02*
X26855057Y-33623332D01*
X26855057Y-33623332D02*
X26807438Y-33575713D01*
X26807438Y-33575713D02*
X26759819Y-33623332D01*
X26759819Y-33623332D02*
X26855057Y-33623332D01*
X27093152Y-33147142D02*
X27759819Y-33147142D01*
X27188390Y-33147142D02*
X27140771Y-33099523D01*
X27140771Y-33099523D02*
X27093152Y-33004285D01*
X27093152Y-33004285D02*
X27093152Y-32861428D01*
X27093152Y-32861428D02*
X27140771Y-32766190D01*
X27140771Y-32766190D02*
X27236009Y-32718571D01*
X27236009Y-32718571D02*
X27759819Y-32718571D01*
X27759819Y-32242380D02*
X27093152Y-32242380D01*
X26759819Y-32242380D02*
X26807438Y-32289999D01*
X26807438Y-32289999D02*
X26855057Y-32242380D01*
X26855057Y-32242380D02*
X26807438Y-32194761D01*
X26807438Y-32194761D02*
X26759819Y-32242380D01*
X26759819Y-32242380D02*
X26855057Y-32242380D01*
X26855057Y-31813809D02*
X26807438Y-31766190D01*
X26807438Y-31766190D02*
X26759819Y-31670952D01*
X26759819Y-31670952D02*
X26759819Y-31432857D01*
X26759819Y-31432857D02*
X26807438Y-31337619D01*
X26807438Y-31337619D02*
X26855057Y-31290000D01*
X26855057Y-31290000D02*
X26950295Y-31242381D01*
X26950295Y-31242381D02*
X27045533Y-31242381D01*
X27045533Y-31242381D02*
X27188390Y-31290000D01*
X27188390Y-31290000D02*
X27759819Y-31861428D01*
X27759819Y-31861428D02*
X27759819Y-31242381D01*
X21010714Y-24584819D02*
X21010714Y-23584819D01*
X21010714Y-23584819D02*
X21248809Y-23584819D01*
X21248809Y-23584819D02*
X21391666Y-23632438D01*
X21391666Y-23632438D02*
X21486904Y-23727676D01*
X21486904Y-23727676D02*
X21534523Y-23822914D01*
X21534523Y-23822914D02*
X21582142Y-24013390D01*
X21582142Y-24013390D02*
X21582142Y-24156247D01*
X21582142Y-24156247D02*
X21534523Y-24346723D01*
X21534523Y-24346723D02*
X21486904Y-24441961D01*
X21486904Y-24441961D02*
X21391666Y-24537200D01*
X21391666Y-24537200D02*
X21248809Y-24584819D01*
X21248809Y-24584819D02*
X21010714Y-24584819D01*
X22534523Y-24584819D02*
X21963095Y-24584819D01*
X22248809Y-24584819D02*
X22248809Y-23584819D01*
X22248809Y-23584819D02*
X22153571Y-23727676D01*
X22153571Y-23727676D02*
X22058333Y-23822914D01*
X22058333Y-23822914D02*
X21963095Y-23870533D01*
X22915476Y-23680057D02*
X22963095Y-23632438D01*
X22963095Y-23632438D02*
X23058333Y-23584819D01*
X23058333Y-23584819D02*
X23296428Y-23584819D01*
X23296428Y-23584819D02*
X23391666Y-23632438D01*
X23391666Y-23632438D02*
X23439285Y-23680057D01*
X23439285Y-23680057D02*
X23486904Y-23775295D01*
X23486904Y-23775295D02*
X23486904Y-23870533D01*
X23486904Y-23870533D02*
X23439285Y-24013390D01*
X23439285Y-24013390D02*
X22867857Y-24584819D01*
X22867857Y-24584819D02*
X23486904Y-24584819D01*
X31718333Y-44904819D02*
X31385000Y-44428628D01*
X31146905Y-44904819D02*
X31146905Y-43904819D01*
X31146905Y-43904819D02*
X31527857Y-43904819D01*
X31527857Y-43904819D02*
X31623095Y-43952438D01*
X31623095Y-43952438D02*
X31670714Y-44000057D01*
X31670714Y-44000057D02*
X31718333Y-44095295D01*
X31718333Y-44095295D02*
X31718333Y-44238152D01*
X31718333Y-44238152D02*
X31670714Y-44333390D01*
X31670714Y-44333390D02*
X31623095Y-44381009D01*
X31623095Y-44381009D02*
X31527857Y-44428628D01*
X31527857Y-44428628D02*
X31146905Y-44428628D01*
X32051667Y-43904819D02*
X32718333Y-44904819D01*
X32718333Y-43904819D02*
X32051667Y-44904819D01*
X33099286Y-44904819D02*
X33099286Y-43904819D01*
X33099286Y-43904819D02*
X33337381Y-43904819D01*
X33337381Y-43904819D02*
X33480238Y-43952438D01*
X33480238Y-43952438D02*
X33575476Y-44047676D01*
X33575476Y-44047676D02*
X33623095Y-44142914D01*
X33623095Y-44142914D02*
X33670714Y-44333390D01*
X33670714Y-44333390D02*
X33670714Y-44476247D01*
X33670714Y-44476247D02*
X33623095Y-44666723D01*
X33623095Y-44666723D02*
X33575476Y-44761961D01*
X33575476Y-44761961D02*
X33480238Y-44857200D01*
X33480238Y-44857200D02*
X33337381Y-44904819D01*
X33337381Y-44904819D02*
X33099286Y-44904819D01*
X21510714Y-29379104D02*
X21986904Y-29379104D01*
X21415476Y-29664819D02*
X21748809Y-28664819D01*
X21748809Y-28664819D02*
X22082142Y-29664819D01*
X22605952Y-28664819D02*
X22701190Y-28664819D01*
X22701190Y-28664819D02*
X22796428Y-28712438D01*
X22796428Y-28712438D02*
X22844047Y-28760057D01*
X22844047Y-28760057D02*
X22891666Y-28855295D01*
X22891666Y-28855295D02*
X22939285Y-29045771D01*
X22939285Y-29045771D02*
X22939285Y-29283866D01*
X22939285Y-29283866D02*
X22891666Y-29474342D01*
X22891666Y-29474342D02*
X22844047Y-29569580D01*
X22844047Y-29569580D02*
X22796428Y-29617200D01*
X22796428Y-29617200D02*
X22701190Y-29664819D01*
X22701190Y-29664819D02*
X22605952Y-29664819D01*
X22605952Y-29664819D02*
X22510714Y-29617200D01*
X22510714Y-29617200D02*
X22463095Y-29569580D01*
X22463095Y-29569580D02*
X22415476Y-29474342D01*
X22415476Y-29474342D02*
X22367857Y-29283866D01*
X22367857Y-29283866D02*
X22367857Y-29045771D01*
X22367857Y-29045771D02*
X22415476Y-28855295D01*
X22415476Y-28855295D02*
X22463095Y-28760057D01*
X22463095Y-28760057D02*
X22510714Y-28712438D01*
X22510714Y-28712438D02*
X22605952Y-28664819D01*
D11*
X27741666Y-47878633D02*
X27975000Y-48578633D01*
X27975000Y-48578633D02*
X28208333Y-47878633D01*
X28741666Y-48545300D02*
X28675000Y-48578633D01*
X28675000Y-48578633D02*
X28541666Y-48578633D01*
X28541666Y-48578633D02*
X28475000Y-48545300D01*
X28475000Y-48545300D02*
X28441666Y-48511966D01*
X28441666Y-48511966D02*
X28408333Y-48445300D01*
X28408333Y-48445300D02*
X28408333Y-48245300D01*
X28408333Y-48245300D02*
X28441666Y-48178633D01*
X28441666Y-48178633D02*
X28475000Y-48145300D01*
X28475000Y-48145300D02*
X28541666Y-48111966D01*
X28541666Y-48111966D02*
X28675000Y-48111966D01*
X28675000Y-48111966D02*
X28741666Y-48145300D01*
X29341666Y-48545300D02*
X29275000Y-48578633D01*
X29275000Y-48578633D02*
X29141666Y-48578633D01*
X29141666Y-48578633D02*
X29075000Y-48545300D01*
X29075000Y-48545300D02*
X29041666Y-48511966D01*
X29041666Y-48511966D02*
X29008333Y-48445300D01*
X29008333Y-48445300D02*
X29008333Y-48245300D01*
X29008333Y-48245300D02*
X29041666Y-48178633D01*
X29041666Y-48178633D02*
X29075000Y-48145300D01*
X29075000Y-48145300D02*
X29141666Y-48111966D01*
X29141666Y-48111966D02*
X29275000Y-48111966D01*
X29275000Y-48111966D02*
X29341666Y-48145300D01*
X33121667Y-47911966D02*
X33055000Y-47878633D01*
X33055000Y-47878633D02*
X32955000Y-47878633D01*
X32955000Y-47878633D02*
X32855000Y-47911966D01*
X32855000Y-47911966D02*
X32788334Y-47978633D01*
X32788334Y-47978633D02*
X32755000Y-48045300D01*
X32755000Y-48045300D02*
X32721667Y-48178633D01*
X32721667Y-48178633D02*
X32721667Y-48278633D01*
X32721667Y-48278633D02*
X32755000Y-48411966D01*
X32755000Y-48411966D02*
X32788334Y-48478633D01*
X32788334Y-48478633D02*
X32855000Y-48545300D01*
X32855000Y-48545300D02*
X32955000Y-48578633D01*
X32955000Y-48578633D02*
X33021667Y-48578633D01*
X33021667Y-48578633D02*
X33121667Y-48545300D01*
X33121667Y-48545300D02*
X33155000Y-48511966D01*
X33155000Y-48511966D02*
X33155000Y-48278633D01*
X33155000Y-48278633D02*
X33021667Y-48278633D01*
X33455000Y-48578633D02*
X33455000Y-47878633D01*
X33455000Y-47878633D02*
X33855000Y-48578633D01*
X33855000Y-48578633D02*
X33855000Y-47878633D01*
X34188333Y-48578633D02*
X34188333Y-47878633D01*
X34188333Y-47878633D02*
X34355000Y-47878633D01*
X34355000Y-47878633D02*
X34455000Y-47911966D01*
X34455000Y-47911966D02*
X34521667Y-47978633D01*
X34521667Y-47978633D02*
X34555000Y-48045300D01*
X34555000Y-48045300D02*
X34588333Y-48178633D01*
X34588333Y-48178633D02*
X34588333Y-48278633D01*
X34588333Y-48278633D02*
X34555000Y-48411966D01*
X34555000Y-48411966D02*
X34521667Y-48478633D01*
X34521667Y-48478633D02*
X34455000Y-48545300D01*
X34455000Y-48545300D02*
X34355000Y-48578633D01*
X34355000Y-48578633D02*
X34188333Y-48578633D01*
D10*
X31837380Y-42364819D02*
X31504047Y-41888628D01*
X31265952Y-42364819D02*
X31265952Y-41364819D01*
X31265952Y-41364819D02*
X31646904Y-41364819D01*
X31646904Y-41364819D02*
X31742142Y-41412438D01*
X31742142Y-41412438D02*
X31789761Y-41460057D01*
X31789761Y-41460057D02*
X31837380Y-41555295D01*
X31837380Y-41555295D02*
X31837380Y-41698152D01*
X31837380Y-41698152D02*
X31789761Y-41793390D01*
X31789761Y-41793390D02*
X31742142Y-41841009D01*
X31742142Y-41841009D02*
X31646904Y-41888628D01*
X31646904Y-41888628D02*
X31265952Y-41888628D01*
X32218333Y-42317200D02*
X32361190Y-42364819D01*
X32361190Y-42364819D02*
X32599285Y-42364819D01*
X32599285Y-42364819D02*
X32694523Y-42317200D01*
X32694523Y-42317200D02*
X32742142Y-42269580D01*
X32742142Y-42269580D02*
X32789761Y-42174342D01*
X32789761Y-42174342D02*
X32789761Y-42079104D01*
X32789761Y-42079104D02*
X32742142Y-41983866D01*
X32742142Y-41983866D02*
X32694523Y-41936247D01*
X32694523Y-41936247D02*
X32599285Y-41888628D01*
X32599285Y-41888628D02*
X32408809Y-41841009D01*
X32408809Y-41841009D02*
X32313571Y-41793390D01*
X32313571Y-41793390D02*
X32265952Y-41745771D01*
X32265952Y-41745771D02*
X32218333Y-41650533D01*
X32218333Y-41650533D02*
X32218333Y-41555295D01*
X32218333Y-41555295D02*
X32265952Y-41460057D01*
X32265952Y-41460057D02*
X32313571Y-41412438D01*
X32313571Y-41412438D02*
X32408809Y-41364819D01*
X32408809Y-41364819D02*
X32646904Y-41364819D01*
X32646904Y-41364819D02*
X32789761Y-41412438D01*
X33075476Y-41364819D02*
X33646904Y-41364819D01*
X33361190Y-42364819D02*
X33361190Y-41364819D01*
X31646905Y-29664819D02*
X31646905Y-28664819D01*
X31646905Y-28664819D02*
X31885000Y-28664819D01*
X31885000Y-28664819D02*
X32027857Y-28712438D01*
X32027857Y-28712438D02*
X32123095Y-28807676D01*
X32123095Y-28807676D02*
X32170714Y-28902914D01*
X32170714Y-28902914D02*
X32218333Y-29093390D01*
X32218333Y-29093390D02*
X32218333Y-29236247D01*
X32218333Y-29236247D02*
X32170714Y-29426723D01*
X32170714Y-29426723D02*
X32123095Y-29521961D01*
X32123095Y-29521961D02*
X32027857Y-29617200D01*
X32027857Y-29617200D02*
X31885000Y-29664819D01*
X31885000Y-29664819D02*
X31646905Y-29664819D01*
X33123095Y-28664819D02*
X32646905Y-28664819D01*
X32646905Y-28664819D02*
X32599286Y-29141009D01*
X32599286Y-29141009D02*
X32646905Y-29093390D01*
X32646905Y-29093390D02*
X32742143Y-29045771D01*
X32742143Y-29045771D02*
X32980238Y-29045771D01*
X32980238Y-29045771D02*
X33075476Y-29093390D01*
X33075476Y-29093390D02*
X33123095Y-29141009D01*
X33123095Y-29141009D02*
X33170714Y-29236247D01*
X33170714Y-29236247D02*
X33170714Y-29474342D01*
X33170714Y-29474342D02*
X33123095Y-29569580D01*
X33123095Y-29569580D02*
X33075476Y-29617200D01*
X33075476Y-29617200D02*
X32980238Y-29664819D01*
X32980238Y-29664819D02*
X32742143Y-29664819D01*
X32742143Y-29664819D02*
X32646905Y-29617200D01*
X32646905Y-29617200D02*
X32599286Y-29569580D01*
X21534523Y-47444819D02*
X21201190Y-46968628D01*
X20963095Y-47444819D02*
X20963095Y-46444819D01*
X20963095Y-46444819D02*
X21344047Y-46444819D01*
X21344047Y-46444819D02*
X21439285Y-46492438D01*
X21439285Y-46492438D02*
X21486904Y-46540057D01*
X21486904Y-46540057D02*
X21534523Y-46635295D01*
X21534523Y-46635295D02*
X21534523Y-46778152D01*
X21534523Y-46778152D02*
X21486904Y-46873390D01*
X21486904Y-46873390D02*
X21439285Y-46921009D01*
X21439285Y-46921009D02*
X21344047Y-46968628D01*
X21344047Y-46968628D02*
X20963095Y-46968628D01*
X21915476Y-47159104D02*
X22391666Y-47159104D01*
X21820238Y-47444819D02*
X22153571Y-46444819D01*
X22153571Y-46444819D02*
X22486904Y-47444819D01*
X22725000Y-46444819D02*
X22963095Y-47444819D01*
X22963095Y-47444819D02*
X23153571Y-46730533D01*
X23153571Y-46730533D02*
X23344047Y-47444819D01*
X23344047Y-47444819D02*
X23582143Y-46444819D01*
D11*
X20155000Y-48578633D02*
X20155000Y-47878633D01*
X20155000Y-47878633D02*
X20321667Y-47878633D01*
X20321667Y-47878633D02*
X20421667Y-47911966D01*
X20421667Y-47911966D02*
X20488334Y-47978633D01*
X20488334Y-47978633D02*
X20521667Y-48045300D01*
X20521667Y-48045300D02*
X20555000Y-48178633D01*
X20555000Y-48178633D02*
X20555000Y-48278633D01*
X20555000Y-48278633D02*
X20521667Y-48411966D01*
X20521667Y-48411966D02*
X20488334Y-48478633D01*
X20488334Y-48478633D02*
X20421667Y-48545300D01*
X20421667Y-48545300D02*
X20321667Y-48578633D01*
X20321667Y-48578633D02*
X20155000Y-48578633D01*
X20755000Y-47878633D02*
X21155000Y-47878633D01*
X20955000Y-48578633D02*
X20955000Y-47878633D01*
X21788333Y-48578633D02*
X21555000Y-48245300D01*
X21388333Y-48578633D02*
X21388333Y-47878633D01*
X21388333Y-47878633D02*
X21655000Y-47878633D01*
X21655000Y-47878633D02*
X21721667Y-47911966D01*
X21721667Y-47911966D02*
X21755000Y-47945300D01*
X21755000Y-47945300D02*
X21788333Y-48011966D01*
X21788333Y-48011966D02*
X21788333Y-48111966D01*
X21788333Y-48111966D02*
X21755000Y-48178633D01*
X21755000Y-48178633D02*
X21721667Y-48211966D01*
X21721667Y-48211966D02*
X21655000Y-48245300D01*
X21655000Y-48245300D02*
X21388333Y-48245300D01*
D10*
X21010714Y-22044819D02*
X21010714Y-21044819D01*
X21010714Y-21044819D02*
X21248809Y-21044819D01*
X21248809Y-21044819D02*
X21391666Y-21092438D01*
X21391666Y-21092438D02*
X21486904Y-21187676D01*
X21486904Y-21187676D02*
X21534523Y-21282914D01*
X21534523Y-21282914D02*
X21582142Y-21473390D01*
X21582142Y-21473390D02*
X21582142Y-21616247D01*
X21582142Y-21616247D02*
X21534523Y-21806723D01*
X21534523Y-21806723D02*
X21486904Y-21901961D01*
X21486904Y-21901961D02*
X21391666Y-21997200D01*
X21391666Y-21997200D02*
X21248809Y-22044819D01*
X21248809Y-22044819D02*
X21010714Y-22044819D01*
X22534523Y-22044819D02*
X21963095Y-22044819D01*
X22248809Y-22044819D02*
X22248809Y-21044819D01*
X22248809Y-21044819D02*
X22153571Y-21187676D01*
X22153571Y-21187676D02*
X22058333Y-21282914D01*
X22058333Y-21282914D02*
X21963095Y-21330533D01*
X23486904Y-22044819D02*
X22915476Y-22044819D01*
X23201190Y-22044819D02*
X23201190Y-21044819D01*
X23201190Y-21044819D02*
X23105952Y-21187676D01*
X23105952Y-21187676D02*
X23010714Y-21282914D01*
X23010714Y-21282914D02*
X22915476Y-21330533D01*
D11*
X22595000Y-47878633D02*
X22995000Y-47878633D01*
X22795000Y-48578633D02*
X22795000Y-47878633D01*
X23161667Y-47878633D02*
X23628333Y-48578633D01*
X23628333Y-47878633D02*
X23161667Y-48578633D01*
X24028334Y-47878633D02*
X24161667Y-47878633D01*
X24161667Y-47878633D02*
X24228334Y-47911966D01*
X24228334Y-47911966D02*
X24295000Y-47978633D01*
X24295000Y-47978633D02*
X24328334Y-48111966D01*
X24328334Y-48111966D02*
X24328334Y-48345300D01*
X24328334Y-48345300D02*
X24295000Y-48478633D01*
X24295000Y-48478633D02*
X24228334Y-48545300D01*
X24228334Y-48545300D02*
X24161667Y-48578633D01*
X24161667Y-48578633D02*
X24028334Y-48578633D01*
X24028334Y-48578633D02*
X23961667Y-48545300D01*
X23961667Y-48545300D02*
X23895000Y-48478633D01*
X23895000Y-48478633D02*
X23861667Y-48345300D01*
X23861667Y-48345300D02*
X23861667Y-48111966D01*
X23861667Y-48111966D02*
X23895000Y-47978633D01*
X23895000Y-47978633D02*
X23961667Y-47911966D01*
X23961667Y-47911966D02*
X24028334Y-47878633D01*
X30615000Y-20438633D02*
X30948333Y-20438633D01*
X30548333Y-20638633D02*
X30781667Y-19938633D01*
X30781667Y-19938633D02*
X31015000Y-20638633D01*
X31548333Y-20171966D02*
X31548333Y-20638633D01*
X31381667Y-19905300D02*
X31215000Y-20405300D01*
X31215000Y-20405300D02*
X31648333Y-20405300D01*
X32408333Y-19368633D02*
X32408333Y-18668633D01*
X32408333Y-18668633D02*
X32575000Y-18668633D01*
X32575000Y-18668633D02*
X32675000Y-18701966D01*
X32675000Y-18701966D02*
X32741667Y-18768633D01*
X32741667Y-18768633D02*
X32775000Y-18835300D01*
X32775000Y-18835300D02*
X32808333Y-18968633D01*
X32808333Y-18968633D02*
X32808333Y-19068633D01*
X32808333Y-19068633D02*
X32775000Y-19201966D01*
X32775000Y-19201966D02*
X32741667Y-19268633D01*
X32741667Y-19268633D02*
X32675000Y-19335300D01*
X32675000Y-19335300D02*
X32575000Y-19368633D01*
X32575000Y-19368633D02*
X32408333Y-19368633D01*
X33141667Y-19368633D02*
X33275000Y-19368633D01*
X33275000Y-19368633D02*
X33341667Y-19335300D01*
X33341667Y-19335300D02*
X33375000Y-19301966D01*
X33375000Y-19301966D02*
X33441667Y-19201966D01*
X33441667Y-19201966D02*
X33475000Y-19068633D01*
X33475000Y-19068633D02*
X33475000Y-18801966D01*
X33475000Y-18801966D02*
X33441667Y-18735300D01*
X33441667Y-18735300D02*
X33408333Y-18701966D01*
X33408333Y-18701966D02*
X33341667Y-18668633D01*
X33341667Y-18668633D02*
X33208333Y-18668633D01*
X33208333Y-18668633D02*
X33141667Y-18701966D01*
X33141667Y-18701966D02*
X33108333Y-18735300D01*
X33108333Y-18735300D02*
X33075000Y-18801966D01*
X33075000Y-18801966D02*
X33075000Y-18968633D01*
X33075000Y-18968633D02*
X33108333Y-19035300D01*
X33108333Y-19035300D02*
X33141667Y-19068633D01*
X33141667Y-19068633D02*
X33208333Y-19101966D01*
X33208333Y-19101966D02*
X33341667Y-19101966D01*
X33341667Y-19101966D02*
X33408333Y-19068633D01*
X33408333Y-19068633D02*
X33441667Y-19035300D01*
X33441667Y-19035300D02*
X33475000Y-18968633D01*
D10*
X22034523Y-38824819D02*
X21558333Y-38824819D01*
X21558333Y-38824819D02*
X21510714Y-39301009D01*
X21510714Y-39301009D02*
X21558333Y-39253390D01*
X21558333Y-39253390D02*
X21653571Y-39205771D01*
X21653571Y-39205771D02*
X21891666Y-39205771D01*
X21891666Y-39205771D02*
X21986904Y-39253390D01*
X21986904Y-39253390D02*
X22034523Y-39301009D01*
X22034523Y-39301009D02*
X22082142Y-39396247D01*
X22082142Y-39396247D02*
X22082142Y-39634342D01*
X22082142Y-39634342D02*
X22034523Y-39729580D01*
X22034523Y-39729580D02*
X21986904Y-39777200D01*
X21986904Y-39777200D02*
X21891666Y-39824819D01*
X21891666Y-39824819D02*
X21653571Y-39824819D01*
X21653571Y-39824819D02*
X21558333Y-39777200D01*
X21558333Y-39777200D02*
X21510714Y-39729580D01*
X22367857Y-38824819D02*
X22701190Y-39824819D01*
X22701190Y-39824819D02*
X23034523Y-38824819D01*
X31646905Y-32204819D02*
X31646905Y-31204819D01*
X31646905Y-31204819D02*
X31885000Y-31204819D01*
X31885000Y-31204819D02*
X32027857Y-31252438D01*
X32027857Y-31252438D02*
X32123095Y-31347676D01*
X32123095Y-31347676D02*
X32170714Y-31442914D01*
X32170714Y-31442914D02*
X32218333Y-31633390D01*
X32218333Y-31633390D02*
X32218333Y-31776247D01*
X32218333Y-31776247D02*
X32170714Y-31966723D01*
X32170714Y-31966723D02*
X32123095Y-32061961D01*
X32123095Y-32061961D02*
X32027857Y-32157200D01*
X32027857Y-32157200D02*
X31885000Y-32204819D01*
X31885000Y-32204819D02*
X31646905Y-32204819D01*
X33075476Y-31538152D02*
X33075476Y-32204819D01*
X32837381Y-31157200D02*
X32599286Y-31871485D01*
X32599286Y-31871485D02*
X33218333Y-31871485D01*
X31646905Y-37284819D02*
X31646905Y-36284819D01*
X31646905Y-36284819D02*
X31885000Y-36284819D01*
X31885000Y-36284819D02*
X32027857Y-36332438D01*
X32027857Y-36332438D02*
X32123095Y-36427676D01*
X32123095Y-36427676D02*
X32170714Y-36522914D01*
X32170714Y-36522914D02*
X32218333Y-36713390D01*
X32218333Y-36713390D02*
X32218333Y-36856247D01*
X32218333Y-36856247D02*
X32170714Y-37046723D01*
X32170714Y-37046723D02*
X32123095Y-37141961D01*
X32123095Y-37141961D02*
X32027857Y-37237200D01*
X32027857Y-37237200D02*
X31885000Y-37284819D01*
X31885000Y-37284819D02*
X31646905Y-37284819D01*
X32599286Y-36380057D02*
X32646905Y-36332438D01*
X32646905Y-36332438D02*
X32742143Y-36284819D01*
X32742143Y-36284819D02*
X32980238Y-36284819D01*
X32980238Y-36284819D02*
X33075476Y-36332438D01*
X33075476Y-36332438D02*
X33123095Y-36380057D01*
X33123095Y-36380057D02*
X33170714Y-36475295D01*
X33170714Y-36475295D02*
X33170714Y-36570533D01*
X33170714Y-36570533D02*
X33123095Y-36713390D01*
X33123095Y-36713390D02*
X32551667Y-37284819D01*
X32551667Y-37284819D02*
X33170714Y-37284819D01*
X31646905Y-34744819D02*
X31646905Y-33744819D01*
X31646905Y-33744819D02*
X31885000Y-33744819D01*
X31885000Y-33744819D02*
X32027857Y-33792438D01*
X32027857Y-33792438D02*
X32123095Y-33887676D01*
X32123095Y-33887676D02*
X32170714Y-33982914D01*
X32170714Y-33982914D02*
X32218333Y-34173390D01*
X32218333Y-34173390D02*
X32218333Y-34316247D01*
X32218333Y-34316247D02*
X32170714Y-34506723D01*
X32170714Y-34506723D02*
X32123095Y-34601961D01*
X32123095Y-34601961D02*
X32027857Y-34697200D01*
X32027857Y-34697200D02*
X31885000Y-34744819D01*
X31885000Y-34744819D02*
X31646905Y-34744819D01*
X32551667Y-33744819D02*
X33170714Y-33744819D01*
X33170714Y-33744819D02*
X32837381Y-34125771D01*
X32837381Y-34125771D02*
X32980238Y-34125771D01*
X32980238Y-34125771D02*
X33075476Y-34173390D01*
X33075476Y-34173390D02*
X33123095Y-34221009D01*
X33123095Y-34221009D02*
X33170714Y-34316247D01*
X33170714Y-34316247D02*
X33170714Y-34554342D01*
X33170714Y-34554342D02*
X33123095Y-34649580D01*
X33123095Y-34649580D02*
X33075476Y-34697200D01*
X33075476Y-34697200D02*
X32980238Y-34744819D01*
X32980238Y-34744819D02*
X32694524Y-34744819D01*
X32694524Y-34744819D02*
X32599286Y-34697200D01*
X32599286Y-34697200D02*
X32551667Y-34649580D01*
X31646905Y-22044819D02*
X31646905Y-21044819D01*
X31646905Y-21044819D02*
X31885000Y-21044819D01*
X31885000Y-21044819D02*
X32027857Y-21092438D01*
X32027857Y-21092438D02*
X32123095Y-21187676D01*
X32123095Y-21187676D02*
X32170714Y-21282914D01*
X32170714Y-21282914D02*
X32218333Y-21473390D01*
X32218333Y-21473390D02*
X32218333Y-21616247D01*
X32218333Y-21616247D02*
X32170714Y-21806723D01*
X32170714Y-21806723D02*
X32123095Y-21901961D01*
X32123095Y-21901961D02*
X32027857Y-21997200D01*
X32027857Y-21997200D02*
X31885000Y-22044819D01*
X31885000Y-22044819D02*
X31646905Y-22044819D01*
X32789762Y-21473390D02*
X32694524Y-21425771D01*
X32694524Y-21425771D02*
X32646905Y-21378152D01*
X32646905Y-21378152D02*
X32599286Y-21282914D01*
X32599286Y-21282914D02*
X32599286Y-21235295D01*
X32599286Y-21235295D02*
X32646905Y-21140057D01*
X32646905Y-21140057D02*
X32694524Y-21092438D01*
X32694524Y-21092438D02*
X32789762Y-21044819D01*
X32789762Y-21044819D02*
X32980238Y-21044819D01*
X32980238Y-21044819D02*
X33075476Y-21092438D01*
X33075476Y-21092438D02*
X33123095Y-21140057D01*
X33123095Y-21140057D02*
X33170714Y-21235295D01*
X33170714Y-21235295D02*
X33170714Y-21282914D01*
X33170714Y-21282914D02*
X33123095Y-21378152D01*
X33123095Y-21378152D02*
X33075476Y-21425771D01*
X33075476Y-21425771D02*
X32980238Y-21473390D01*
X32980238Y-21473390D02*
X32789762Y-21473390D01*
X32789762Y-21473390D02*
X32694524Y-21521009D01*
X32694524Y-21521009D02*
X32646905Y-21568628D01*
X32646905Y-21568628D02*
X32599286Y-21663866D01*
X32599286Y-21663866D02*
X32599286Y-21854342D01*
X32599286Y-21854342D02*
X32646905Y-21949580D01*
X32646905Y-21949580D02*
X32694524Y-21997200D01*
X32694524Y-21997200D02*
X32789762Y-22044819D01*
X32789762Y-22044819D02*
X32980238Y-22044819D01*
X32980238Y-22044819D02*
X33075476Y-21997200D01*
X33075476Y-21997200D02*
X33123095Y-21949580D01*
X33123095Y-21949580D02*
X33170714Y-21854342D01*
X33170714Y-21854342D02*
X33170714Y-21663866D01*
X33170714Y-21663866D02*
X33123095Y-21568628D01*
X33123095Y-21568628D02*
X33075476Y-21521009D01*
X33075476Y-21521009D02*
X32980238Y-21473390D01*
X21010714Y-27124819D02*
X21010714Y-26124819D01*
X21010714Y-26124819D02*
X21248809Y-26124819D01*
X21248809Y-26124819D02*
X21391666Y-26172438D01*
X21391666Y-26172438D02*
X21486904Y-26267676D01*
X21486904Y-26267676D02*
X21534523Y-26362914D01*
X21534523Y-26362914D02*
X21582142Y-26553390D01*
X21582142Y-26553390D02*
X21582142Y-26696247D01*
X21582142Y-26696247D02*
X21534523Y-26886723D01*
X21534523Y-26886723D02*
X21486904Y-26981961D01*
X21486904Y-26981961D02*
X21391666Y-27077200D01*
X21391666Y-27077200D02*
X21248809Y-27124819D01*
X21248809Y-27124819D02*
X21010714Y-27124819D01*
X22534523Y-27124819D02*
X21963095Y-27124819D01*
X22248809Y-27124819D02*
X22248809Y-26124819D01*
X22248809Y-26124819D02*
X22153571Y-26267676D01*
X22153571Y-26267676D02*
X22058333Y-26362914D01*
X22058333Y-26362914D02*
X21963095Y-26410533D01*
X22867857Y-26124819D02*
X23486904Y-26124819D01*
X23486904Y-26124819D02*
X23153571Y-26505771D01*
X23153571Y-26505771D02*
X23296428Y-26505771D01*
X23296428Y-26505771D02*
X23391666Y-26553390D01*
X23391666Y-26553390D02*
X23439285Y-26601009D01*
X23439285Y-26601009D02*
X23486904Y-26696247D01*
X23486904Y-26696247D02*
X23486904Y-26934342D01*
X23486904Y-26934342D02*
X23439285Y-27029580D01*
X23439285Y-27029580D02*
X23391666Y-27077200D01*
X23391666Y-27077200D02*
X23296428Y-27124819D01*
X23296428Y-27124819D02*
X23010714Y-27124819D01*
X23010714Y-27124819D02*
X22915476Y-27077200D01*
X22915476Y-27077200D02*
X22867857Y-27029580D01*
D11*
X25751666Y-48578633D02*
X25518333Y-48245300D01*
X25351666Y-48578633D02*
X25351666Y-47878633D01*
X25351666Y-47878633D02*
X25618333Y-47878633D01*
X25618333Y-47878633D02*
X25685000Y-47911966D01*
X25685000Y-47911966D02*
X25718333Y-47945300D01*
X25718333Y-47945300D02*
X25751666Y-48011966D01*
X25751666Y-48011966D02*
X25751666Y-48111966D01*
X25751666Y-48111966D02*
X25718333Y-48178633D01*
X25718333Y-48178633D02*
X25685000Y-48211966D01*
X25685000Y-48211966D02*
X25618333Y-48245300D01*
X25618333Y-48245300D02*
X25351666Y-48245300D01*
X25985000Y-47878633D02*
X26451666Y-48578633D01*
X26451666Y-47878633D02*
X25985000Y-48578633D01*
X26718333Y-48578633D02*
X26718333Y-47878633D01*
D10*
X21510714Y-31919104D02*
X21986904Y-31919104D01*
X21415476Y-32204819D02*
X21748809Y-31204819D01*
X21748809Y-31204819D02*
X22082142Y-32204819D01*
X22939285Y-32204819D02*
X22367857Y-32204819D01*
X22653571Y-32204819D02*
X22653571Y-31204819D01*
X22653571Y-31204819D02*
X22558333Y-31347676D01*
X22558333Y-31347676D02*
X22463095Y-31442914D01*
X22463095Y-31442914D02*
X22367857Y-31490533D01*
X31646905Y-24584819D02*
X31646905Y-23584819D01*
X31646905Y-23584819D02*
X31885000Y-23584819D01*
X31885000Y-23584819D02*
X32027857Y-23632438D01*
X32027857Y-23632438D02*
X32123095Y-23727676D01*
X32123095Y-23727676D02*
X32170714Y-23822914D01*
X32170714Y-23822914D02*
X32218333Y-24013390D01*
X32218333Y-24013390D02*
X32218333Y-24156247D01*
X32218333Y-24156247D02*
X32170714Y-24346723D01*
X32170714Y-24346723D02*
X32123095Y-24441961D01*
X32123095Y-24441961D02*
X32027857Y-24537200D01*
X32027857Y-24537200D02*
X31885000Y-24584819D01*
X31885000Y-24584819D02*
X31646905Y-24584819D01*
X32551667Y-23584819D02*
X33218333Y-23584819D01*
X33218333Y-23584819D02*
X32789762Y-24584819D01*
X21510714Y-36999104D02*
X21986904Y-36999104D01*
X21415476Y-37284819D02*
X21748809Y-36284819D01*
X21748809Y-36284819D02*
X22082142Y-37284819D01*
X22320238Y-36284819D02*
X22939285Y-36284819D01*
X22939285Y-36284819D02*
X22605952Y-36665771D01*
X22605952Y-36665771D02*
X22748809Y-36665771D01*
X22748809Y-36665771D02*
X22844047Y-36713390D01*
X22844047Y-36713390D02*
X22891666Y-36761009D01*
X22891666Y-36761009D02*
X22939285Y-36856247D01*
X22939285Y-36856247D02*
X22939285Y-37094342D01*
X22939285Y-37094342D02*
X22891666Y-37189580D01*
X22891666Y-37189580D02*
X22844047Y-37237200D01*
X22844047Y-37237200D02*
X22748809Y-37284819D01*
X22748809Y-37284819D02*
X22463095Y-37284819D01*
X22463095Y-37284819D02*
X22367857Y-37237200D01*
X22367857Y-37237200D02*
X22320238Y-37189580D01*
X21463095Y-43952438D02*
X21367857Y-43904819D01*
X21367857Y-43904819D02*
X21225000Y-43904819D01*
X21225000Y-43904819D02*
X21082143Y-43952438D01*
X21082143Y-43952438D02*
X20986905Y-44047676D01*
X20986905Y-44047676D02*
X20939286Y-44142914D01*
X20939286Y-44142914D02*
X20891667Y-44333390D01*
X20891667Y-44333390D02*
X20891667Y-44476247D01*
X20891667Y-44476247D02*
X20939286Y-44666723D01*
X20939286Y-44666723D02*
X20986905Y-44761961D01*
X20986905Y-44761961D02*
X21082143Y-44857200D01*
X21082143Y-44857200D02*
X21225000Y-44904819D01*
X21225000Y-44904819D02*
X21320238Y-44904819D01*
X21320238Y-44904819D02*
X21463095Y-44857200D01*
X21463095Y-44857200D02*
X21510714Y-44809580D01*
X21510714Y-44809580D02*
X21510714Y-44476247D01*
X21510714Y-44476247D02*
X21320238Y-44476247D01*
X21939286Y-44904819D02*
X21939286Y-43904819D01*
X21939286Y-43904819D02*
X22510714Y-44904819D01*
X22510714Y-44904819D02*
X22510714Y-43904819D01*
X22986905Y-44904819D02*
X22986905Y-43904819D01*
X22986905Y-43904819D02*
X23225000Y-43904819D01*
X23225000Y-43904819D02*
X23367857Y-43952438D01*
X23367857Y-43952438D02*
X23463095Y-44047676D01*
X23463095Y-44047676D02*
X23510714Y-44142914D01*
X23510714Y-44142914D02*
X23558333Y-44333390D01*
X23558333Y-44333390D02*
X23558333Y-44476247D01*
X23558333Y-44476247D02*
X23510714Y-44666723D01*
X23510714Y-44666723D02*
X23463095Y-44761961D01*
X23463095Y-44761961D02*
X23367857Y-44857200D01*
X23367857Y-44857200D02*
X23225000Y-44904819D01*
X23225000Y-44904819D02*
X22986905Y-44904819D01*
X31123095Y-46444819D02*
X31694523Y-46444819D01*
X31408809Y-47444819D02*
X31408809Y-46444819D01*
X31932619Y-46444819D02*
X32599285Y-47444819D01*
X32599285Y-46444819D02*
X31932619Y-47444819D01*
X32980238Y-47444819D02*
X32980238Y-46444819D01*
X32980238Y-46444819D02*
X33218333Y-46444819D01*
X33218333Y-46444819D02*
X33361190Y-46492438D01*
X33361190Y-46492438D02*
X33456428Y-46587676D01*
X33456428Y-46587676D02*
X33504047Y-46682914D01*
X33504047Y-46682914D02*
X33551666Y-46873390D01*
X33551666Y-46873390D02*
X33551666Y-47016247D01*
X33551666Y-47016247D02*
X33504047Y-47206723D01*
X33504047Y-47206723D02*
X33456428Y-47301961D01*
X33456428Y-47301961D02*
X33361190Y-47397200D01*
X33361190Y-47397200D02*
X33218333Y-47444819D01*
X33218333Y-47444819D02*
X32980238Y-47444819D01*
D11*
X25535000Y-20438633D02*
X25868333Y-20438633D01*
X25468333Y-20638633D02*
X25701667Y-19938633D01*
X25701667Y-19938633D02*
X25935000Y-20638633D01*
X26468333Y-19938633D02*
X26335000Y-19938633D01*
X26335000Y-19938633D02*
X26268333Y-19971966D01*
X26268333Y-19971966D02*
X26235000Y-20005300D01*
X26235000Y-20005300D02*
X26168333Y-20105300D01*
X26168333Y-20105300D02*
X26135000Y-20238633D01*
X26135000Y-20238633D02*
X26135000Y-20505300D01*
X26135000Y-20505300D02*
X26168333Y-20571966D01*
X26168333Y-20571966D02*
X26201667Y-20605300D01*
X26201667Y-20605300D02*
X26268333Y-20638633D01*
X26268333Y-20638633D02*
X26401667Y-20638633D01*
X26401667Y-20638633D02*
X26468333Y-20605300D01*
X26468333Y-20605300D02*
X26501667Y-20571966D01*
X26501667Y-20571966D02*
X26535000Y-20505300D01*
X26535000Y-20505300D02*
X26535000Y-20338633D01*
X26535000Y-20338633D02*
X26501667Y-20271966D01*
X26501667Y-20271966D02*
X26468333Y-20238633D01*
X26468333Y-20238633D02*
X26401667Y-20205300D01*
X26401667Y-20205300D02*
X26268333Y-20205300D01*
X26268333Y-20205300D02*
X26201667Y-20238633D01*
X26201667Y-20238633D02*
X26168333Y-20271966D01*
X26168333Y-20271966D02*
X26135000Y-20338633D01*
D10*
X21677380Y-42364819D02*
X21344047Y-41888628D01*
X21105952Y-42364819D02*
X21105952Y-41364819D01*
X21105952Y-41364819D02*
X21486904Y-41364819D01*
X21486904Y-41364819D02*
X21582142Y-41412438D01*
X21582142Y-41412438D02*
X21629761Y-41460057D01*
X21629761Y-41460057D02*
X21677380Y-41555295D01*
X21677380Y-41555295D02*
X21677380Y-41698152D01*
X21677380Y-41698152D02*
X21629761Y-41793390D01*
X21629761Y-41793390D02*
X21582142Y-41841009D01*
X21582142Y-41841009D02*
X21486904Y-41888628D01*
X21486904Y-41888628D02*
X21105952Y-41888628D01*
X22058333Y-42317200D02*
X22201190Y-42364819D01*
X22201190Y-42364819D02*
X22439285Y-42364819D01*
X22439285Y-42364819D02*
X22534523Y-42317200D01*
X22534523Y-42317200D02*
X22582142Y-42269580D01*
X22582142Y-42269580D02*
X22629761Y-42174342D01*
X22629761Y-42174342D02*
X22629761Y-42079104D01*
X22629761Y-42079104D02*
X22582142Y-41983866D01*
X22582142Y-41983866D02*
X22534523Y-41936247D01*
X22534523Y-41936247D02*
X22439285Y-41888628D01*
X22439285Y-41888628D02*
X22248809Y-41841009D01*
X22248809Y-41841009D02*
X22153571Y-41793390D01*
X22153571Y-41793390D02*
X22105952Y-41745771D01*
X22105952Y-41745771D02*
X22058333Y-41650533D01*
X22058333Y-41650533D02*
X22058333Y-41555295D01*
X22058333Y-41555295D02*
X22105952Y-41460057D01*
X22105952Y-41460057D02*
X22153571Y-41412438D01*
X22153571Y-41412438D02*
X22248809Y-41364819D01*
X22248809Y-41364819D02*
X22486904Y-41364819D01*
X22486904Y-41364819D02*
X22629761Y-41412438D01*
X22915476Y-41364819D02*
X23486904Y-41364819D01*
X23201190Y-42364819D02*
X23201190Y-41364819D01*
D11*
X30581667Y-47911966D02*
X30515000Y-47878633D01*
X30515000Y-47878633D02*
X30415000Y-47878633D01*
X30415000Y-47878633D02*
X30315000Y-47911966D01*
X30315000Y-47911966D02*
X30248334Y-47978633D01*
X30248334Y-47978633D02*
X30215000Y-48045300D01*
X30215000Y-48045300D02*
X30181667Y-48178633D01*
X30181667Y-48178633D02*
X30181667Y-48278633D01*
X30181667Y-48278633D02*
X30215000Y-48411966D01*
X30215000Y-48411966D02*
X30248334Y-48478633D01*
X30248334Y-48478633D02*
X30315000Y-48545300D01*
X30315000Y-48545300D02*
X30415000Y-48578633D01*
X30415000Y-48578633D02*
X30481667Y-48578633D01*
X30481667Y-48578633D02*
X30581667Y-48545300D01*
X30581667Y-48545300D02*
X30615000Y-48511966D01*
X30615000Y-48511966D02*
X30615000Y-48278633D01*
X30615000Y-48278633D02*
X30481667Y-48278633D01*
X30915000Y-48578633D02*
X30915000Y-47878633D01*
X30915000Y-47878633D02*
X31315000Y-48578633D01*
X31315000Y-48578633D02*
X31315000Y-47878633D01*
X31648333Y-48578633D02*
X31648333Y-47878633D01*
X31648333Y-47878633D02*
X31815000Y-47878633D01*
X31815000Y-47878633D02*
X31915000Y-47911966D01*
X31915000Y-47911966D02*
X31981667Y-47978633D01*
X31981667Y-47978633D02*
X32015000Y-48045300D01*
X32015000Y-48045300D02*
X32048333Y-48178633D01*
X32048333Y-48178633D02*
X32048333Y-48278633D01*
X32048333Y-48278633D02*
X32015000Y-48411966D01*
X32015000Y-48411966D02*
X31981667Y-48478633D01*
X31981667Y-48478633D02*
X31915000Y-48545300D01*
X31915000Y-48545300D02*
X31815000Y-48578633D01*
X31815000Y-48578633D02*
X31648333Y-48578633D01*
D10*
X31623095Y-38872438D02*
X31527857Y-38824819D01*
X31527857Y-38824819D02*
X31385000Y-38824819D01*
X31385000Y-38824819D02*
X31242143Y-38872438D01*
X31242143Y-38872438D02*
X31146905Y-38967676D01*
X31146905Y-38967676D02*
X31099286Y-39062914D01*
X31099286Y-39062914D02*
X31051667Y-39253390D01*
X31051667Y-39253390D02*
X31051667Y-39396247D01*
X31051667Y-39396247D02*
X31099286Y-39586723D01*
X31099286Y-39586723D02*
X31146905Y-39681961D01*
X31146905Y-39681961D02*
X31242143Y-39777200D01*
X31242143Y-39777200D02*
X31385000Y-39824819D01*
X31385000Y-39824819D02*
X31480238Y-39824819D01*
X31480238Y-39824819D02*
X31623095Y-39777200D01*
X31623095Y-39777200D02*
X31670714Y-39729580D01*
X31670714Y-39729580D02*
X31670714Y-39396247D01*
X31670714Y-39396247D02*
X31480238Y-39396247D01*
X32099286Y-39824819D02*
X32099286Y-38824819D01*
X32099286Y-38824819D02*
X32670714Y-39824819D01*
X32670714Y-39824819D02*
X32670714Y-38824819D01*
X33146905Y-39824819D02*
X33146905Y-38824819D01*
X33146905Y-38824819D02*
X33385000Y-38824819D01*
X33385000Y-38824819D02*
X33527857Y-38872438D01*
X33527857Y-38872438D02*
X33623095Y-38967676D01*
X33623095Y-38967676D02*
X33670714Y-39062914D01*
X33670714Y-39062914D02*
X33718333Y-39253390D01*
X33718333Y-39253390D02*
X33718333Y-39396247D01*
X33718333Y-39396247D02*
X33670714Y-39586723D01*
X33670714Y-39586723D02*
X33623095Y-39681961D01*
X33623095Y-39681961D02*
X33527857Y-39777200D01*
X33527857Y-39777200D02*
X33385000Y-39824819D01*
X33385000Y-39824819D02*
X33146905Y-39824819D01*
X21510714Y-34459104D02*
X21986904Y-34459104D01*
X21415476Y-34744819D02*
X21748809Y-33744819D01*
X21748809Y-33744819D02*
X22082142Y-34744819D01*
X22367857Y-33840057D02*
X22415476Y-33792438D01*
X22415476Y-33792438D02*
X22510714Y-33744819D01*
X22510714Y-33744819D02*
X22748809Y-33744819D01*
X22748809Y-33744819D02*
X22844047Y-33792438D01*
X22844047Y-33792438D02*
X22891666Y-33840057D01*
X22891666Y-33840057D02*
X22939285Y-33935295D01*
X22939285Y-33935295D02*
X22939285Y-34030533D01*
X22939285Y-34030533D02*
X22891666Y-34173390D01*
X22891666Y-34173390D02*
X22320238Y-34744819D01*
X22320238Y-34744819D02*
X22939285Y-34744819D01*
D11*
X28075000Y-20438633D02*
X28408333Y-20438633D01*
X28008333Y-20638633D02*
X28241667Y-19938633D01*
X28241667Y-19938633D02*
X28475000Y-20638633D01*
X29041667Y-19938633D02*
X28708333Y-19938633D01*
X28708333Y-19938633D02*
X28675000Y-20271966D01*
X28675000Y-20271966D02*
X28708333Y-20238633D01*
X28708333Y-20238633D02*
X28775000Y-20205300D01*
X28775000Y-20205300D02*
X28941667Y-20205300D01*
X28941667Y-20205300D02*
X29008333Y-20238633D01*
X29008333Y-20238633D02*
X29041667Y-20271966D01*
X29041667Y-20271966D02*
X29075000Y-20338633D01*
X29075000Y-20338633D02*
X29075000Y-20505300D01*
X29075000Y-20505300D02*
X29041667Y-20571966D01*
X29041667Y-20571966D02*
X29008333Y-20605300D01*
X29008333Y-20605300D02*
X28941667Y-20638633D01*
X28941667Y-20638633D02*
X28775000Y-20638633D01*
X28775000Y-20638633D02*
X28708333Y-20605300D01*
X28708333Y-20605300D02*
X28675000Y-20571966D01*
X20454999Y-19368633D02*
X20454999Y-18668633D01*
X20454999Y-18668633D02*
X20621666Y-18668633D01*
X20621666Y-18668633D02*
X20721666Y-18701966D01*
X20721666Y-18701966D02*
X20788333Y-18768633D01*
X20788333Y-18768633D02*
X20821666Y-18835300D01*
X20821666Y-18835300D02*
X20854999Y-18968633D01*
X20854999Y-18968633D02*
X20854999Y-19068633D01*
X20854999Y-19068633D02*
X20821666Y-19201966D01*
X20821666Y-19201966D02*
X20788333Y-19268633D01*
X20788333Y-19268633D02*
X20721666Y-19335300D01*
X20721666Y-19335300D02*
X20621666Y-19368633D01*
X20621666Y-19368633D02*
X20454999Y-19368633D01*
X21521666Y-19368633D02*
X21121666Y-19368633D01*
X21321666Y-19368633D02*
X21321666Y-18668633D01*
X21321666Y-18668633D02*
X21254999Y-18768633D01*
X21254999Y-18768633D02*
X21188333Y-18835300D01*
X21188333Y-18835300D02*
X21121666Y-18868633D01*
X21955000Y-18668633D02*
X22021666Y-18668633D01*
X22021666Y-18668633D02*
X22088333Y-18701966D01*
X22088333Y-18701966D02*
X22121666Y-18735300D01*
X22121666Y-18735300D02*
X22155000Y-18801966D01*
X22155000Y-18801966D02*
X22188333Y-18935300D01*
X22188333Y-18935300D02*
X22188333Y-19101966D01*
X22188333Y-19101966D02*
X22155000Y-19235300D01*
X22155000Y-19235300D02*
X22121666Y-19301966D01*
X22121666Y-19301966D02*
X22088333Y-19335300D01*
X22088333Y-19335300D02*
X22021666Y-19368633D01*
X22021666Y-19368633D02*
X21955000Y-19368633D01*
X21955000Y-19368633D02*
X21888333Y-19335300D01*
X21888333Y-19335300D02*
X21855000Y-19301966D01*
X21855000Y-19301966D02*
X21821666Y-19235300D01*
X21821666Y-19235300D02*
X21788333Y-19101966D01*
X21788333Y-19101966D02*
X21788333Y-18935300D01*
X21788333Y-18935300D02*
X21821666Y-18801966D01*
X21821666Y-18801966D02*
X21855000Y-18735300D01*
X21855000Y-18735300D02*
X21888333Y-18701966D01*
X21888333Y-18701966D02*
X21955000Y-18668633D01*
D10*
X31646905Y-27124819D02*
X31646905Y-26124819D01*
X31646905Y-26124819D02*
X31885000Y-26124819D01*
X31885000Y-26124819D02*
X32027857Y-26172438D01*
X32027857Y-26172438D02*
X32123095Y-26267676D01*
X32123095Y-26267676D02*
X32170714Y-26362914D01*
X32170714Y-26362914D02*
X32218333Y-26553390D01*
X32218333Y-26553390D02*
X32218333Y-26696247D01*
X32218333Y-26696247D02*
X32170714Y-26886723D01*
X32170714Y-26886723D02*
X32123095Y-26981961D01*
X32123095Y-26981961D02*
X32027857Y-27077200D01*
X32027857Y-27077200D02*
X31885000Y-27124819D01*
X31885000Y-27124819D02*
X31646905Y-27124819D01*
X33075476Y-26124819D02*
X32885000Y-26124819D01*
X32885000Y-26124819D02*
X32789762Y-26172438D01*
X32789762Y-26172438D02*
X32742143Y-26220057D01*
X32742143Y-26220057D02*
X32646905Y-26362914D01*
X32646905Y-26362914D02*
X32599286Y-26553390D01*
X32599286Y-26553390D02*
X32599286Y-26934342D01*
X32599286Y-26934342D02*
X32646905Y-27029580D01*
X32646905Y-27029580D02*
X32694524Y-27077200D01*
X32694524Y-27077200D02*
X32789762Y-27124819D01*
X32789762Y-27124819D02*
X32980238Y-27124819D01*
X32980238Y-27124819D02*
X33075476Y-27077200D01*
X33075476Y-27077200D02*
X33123095Y-27029580D01*
X33123095Y-27029580D02*
X33170714Y-26934342D01*
X33170714Y-26934342D02*
X33170714Y-26696247D01*
X33170714Y-26696247D02*
X33123095Y-26601009D01*
X33123095Y-26601009D02*
X33075476Y-26553390D01*
X33075476Y-26553390D02*
X32980238Y-26505771D01*
X32980238Y-26505771D02*
X32789762Y-26505771D01*
X32789762Y-26505771D02*
X32694524Y-26553390D01*
X32694524Y-26553390D02*
X32646905Y-26601009D01*
X32646905Y-26601009D02*
X32599286Y-26696247D01*
D11*
X22995000Y-20438633D02*
X23328333Y-20438633D01*
X22928333Y-20638633D02*
X23161667Y-19938633D01*
X23161667Y-19938633D02*
X23395000Y-20638633D01*
X23561667Y-19938633D02*
X24028333Y-19938633D01*
X24028333Y-19938633D02*
X23728333Y-20638633D01*
D10*
X45581667Y-59267200D02*
X45724524Y-59314819D01*
X45724524Y-59314819D02*
X45962619Y-59314819D01*
X45962619Y-59314819D02*
X46057857Y-59267200D01*
X46057857Y-59267200D02*
X46105476Y-59219580D01*
X46105476Y-59219580D02*
X46153095Y-59124342D01*
X46153095Y-59124342D02*
X46153095Y-59029104D01*
X46153095Y-59029104D02*
X46105476Y-58933866D01*
X46105476Y-58933866D02*
X46057857Y-58886247D01*
X46057857Y-58886247D02*
X45962619Y-58838628D01*
X45962619Y-58838628D02*
X45772143Y-58791009D01*
X45772143Y-58791009D02*
X45676905Y-58743390D01*
X45676905Y-58743390D02*
X45629286Y-58695771D01*
X45629286Y-58695771D02*
X45581667Y-58600533D01*
X45581667Y-58600533D02*
X45581667Y-58505295D01*
X45581667Y-58505295D02*
X45629286Y-58410057D01*
X45629286Y-58410057D02*
X45676905Y-58362438D01*
X45676905Y-58362438D02*
X45772143Y-58314819D01*
X45772143Y-58314819D02*
X46010238Y-58314819D01*
X46010238Y-58314819D02*
X46153095Y-58362438D01*
X46486429Y-58314819D02*
X46724524Y-59314819D01*
X46724524Y-59314819D02*
X46915000Y-58600533D01*
X46915000Y-58600533D02*
X47105476Y-59314819D01*
X47105476Y-59314819D02*
X47343572Y-58314819D01*
X48248333Y-59314819D02*
X47676905Y-59314819D01*
X47962619Y-59314819D02*
X47962619Y-58314819D01*
X47962619Y-58314819D02*
X47867381Y-58457676D01*
X47867381Y-58457676D02*
X47772143Y-58552914D01*
X47772143Y-58552914D02*
X47676905Y-58600533D01*
X42272141Y-50614819D02*
X41938808Y-50138628D01*
X41700713Y-50614819D02*
X41700713Y-49614819D01*
X41700713Y-49614819D02*
X42081665Y-49614819D01*
X42081665Y-49614819D02*
X42176903Y-49662438D01*
X42176903Y-49662438D02*
X42224522Y-49710057D01*
X42224522Y-49710057D02*
X42272141Y-49805295D01*
X42272141Y-49805295D02*
X42272141Y-49948152D01*
X42272141Y-49948152D02*
X42224522Y-50043390D01*
X42224522Y-50043390D02*
X42176903Y-50091009D01*
X42176903Y-50091009D02*
X42081665Y-50138628D01*
X42081665Y-50138628D02*
X41700713Y-50138628D01*
X43081665Y-50567200D02*
X42986427Y-50614819D01*
X42986427Y-50614819D02*
X42795951Y-50614819D01*
X42795951Y-50614819D02*
X42700713Y-50567200D01*
X42700713Y-50567200D02*
X42653094Y-50471961D01*
X42653094Y-50471961D02*
X42653094Y-50091009D01*
X42653094Y-50091009D02*
X42700713Y-49995771D01*
X42700713Y-49995771D02*
X42795951Y-49948152D01*
X42795951Y-49948152D02*
X42986427Y-49948152D01*
X42986427Y-49948152D02*
X43081665Y-49995771D01*
X43081665Y-49995771D02*
X43129284Y-50091009D01*
X43129284Y-50091009D02*
X43129284Y-50186247D01*
X43129284Y-50186247D02*
X42653094Y-50281485D01*
X43986427Y-50567200D02*
X43891189Y-50614819D01*
X43891189Y-50614819D02*
X43700713Y-50614819D01*
X43700713Y-50614819D02*
X43605475Y-50567200D01*
X43605475Y-50567200D02*
X43557856Y-50519580D01*
X43557856Y-50519580D02*
X43510237Y-50424342D01*
X43510237Y-50424342D02*
X43510237Y-50138628D01*
X43510237Y-50138628D02*
X43557856Y-50043390D01*
X43557856Y-50043390D02*
X43605475Y-49995771D01*
X43605475Y-49995771D02*
X43700713Y-49948152D01*
X43700713Y-49948152D02*
X43891189Y-49948152D01*
X43891189Y-49948152D02*
X43986427Y-49995771D01*
X44843570Y-50614819D02*
X44843570Y-50091009D01*
X44843570Y-50091009D02*
X44795951Y-49995771D01*
X44795951Y-49995771D02*
X44700713Y-49948152D01*
X44700713Y-49948152D02*
X44510237Y-49948152D01*
X44510237Y-49948152D02*
X44414999Y-49995771D01*
X44843570Y-50567200D02*
X44748332Y-50614819D01*
X44748332Y-50614819D02*
X44510237Y-50614819D01*
X44510237Y-50614819D02*
X44414999Y-50567200D01*
X44414999Y-50567200D02*
X44367380Y-50471961D01*
X44367380Y-50471961D02*
X44367380Y-50376723D01*
X44367380Y-50376723D02*
X44414999Y-50281485D01*
X44414999Y-50281485D02*
X44510237Y-50233866D01*
X44510237Y-50233866D02*
X44748332Y-50233866D01*
X44748332Y-50233866D02*
X44843570Y-50186247D01*
X45462618Y-50614819D02*
X45367380Y-50567200D01*
X45367380Y-50567200D02*
X45319761Y-50471961D01*
X45319761Y-50471961D02*
X45319761Y-49614819D01*
X45986428Y-50614819D02*
X45891190Y-50567200D01*
X45891190Y-50567200D02*
X45843571Y-50471961D01*
X45843571Y-50471961D02*
X45843571Y-49614819D01*
X47700714Y-50519580D02*
X47653095Y-50567200D01*
X47653095Y-50567200D02*
X47510238Y-50614819D01*
X47510238Y-50614819D02*
X47415000Y-50614819D01*
X47415000Y-50614819D02*
X47272143Y-50567200D01*
X47272143Y-50567200D02*
X47176905Y-50471961D01*
X47176905Y-50471961D02*
X47129286Y-50376723D01*
X47129286Y-50376723D02*
X47081667Y-50186247D01*
X47081667Y-50186247D02*
X47081667Y-50043390D01*
X47081667Y-50043390D02*
X47129286Y-49852914D01*
X47129286Y-49852914D02*
X47176905Y-49757676D01*
X47176905Y-49757676D02*
X47272143Y-49662438D01*
X47272143Y-49662438D02*
X47415000Y-49614819D01*
X47415000Y-49614819D02*
X47510238Y-49614819D01*
X47510238Y-49614819D02*
X47653095Y-49662438D01*
X47653095Y-49662438D02*
X47700714Y-49710057D01*
X48272143Y-50614819D02*
X48176905Y-50567200D01*
X48176905Y-50567200D02*
X48129286Y-50519580D01*
X48129286Y-50519580D02*
X48081667Y-50424342D01*
X48081667Y-50424342D02*
X48081667Y-50138628D01*
X48081667Y-50138628D02*
X48129286Y-50043390D01*
X48129286Y-50043390D02*
X48176905Y-49995771D01*
X48176905Y-49995771D02*
X48272143Y-49948152D01*
X48272143Y-49948152D02*
X48415000Y-49948152D01*
X48415000Y-49948152D02*
X48510238Y-49995771D01*
X48510238Y-49995771D02*
X48557857Y-50043390D01*
X48557857Y-50043390D02*
X48605476Y-50138628D01*
X48605476Y-50138628D02*
X48605476Y-50424342D01*
X48605476Y-50424342D02*
X48557857Y-50519580D01*
X48557857Y-50519580D02*
X48510238Y-50567200D01*
X48510238Y-50567200D02*
X48415000Y-50614819D01*
X48415000Y-50614819D02*
X48272143Y-50614819D01*
X49462619Y-50614819D02*
X49462619Y-49614819D01*
X49462619Y-50567200D02*
X49367381Y-50614819D01*
X49367381Y-50614819D02*
X49176905Y-50614819D01*
X49176905Y-50614819D02*
X49081667Y-50567200D01*
X49081667Y-50567200D02*
X49034048Y-50519580D01*
X49034048Y-50519580D02*
X48986429Y-50424342D01*
X48986429Y-50424342D02*
X48986429Y-50138628D01*
X48986429Y-50138628D02*
X49034048Y-50043390D01*
X49034048Y-50043390D02*
X49081667Y-49995771D01*
X49081667Y-49995771D02*
X49176905Y-49948152D01*
X49176905Y-49948152D02*
X49367381Y-49948152D01*
X49367381Y-49948152D02*
X49462619Y-49995771D01*
X50319762Y-50567200D02*
X50224524Y-50614819D01*
X50224524Y-50614819D02*
X50034048Y-50614819D01*
X50034048Y-50614819D02*
X49938810Y-50567200D01*
X49938810Y-50567200D02*
X49891191Y-50471961D01*
X49891191Y-50471961D02*
X49891191Y-50091009D01*
X49891191Y-50091009D02*
X49938810Y-49995771D01*
X49938810Y-49995771D02*
X50034048Y-49948152D01*
X50034048Y-49948152D02*
X50224524Y-49948152D01*
X50224524Y-49948152D02*
X50319762Y-49995771D01*
X50319762Y-49995771D02*
X50367381Y-50091009D01*
X50367381Y-50091009D02*
X50367381Y-50186247D01*
X50367381Y-50186247D02*
X49891191Y-50281485D01*
X50748334Y-50567200D02*
X50843572Y-50614819D01*
X50843572Y-50614819D02*
X51034048Y-50614819D01*
X51034048Y-50614819D02*
X51129286Y-50567200D01*
X51129286Y-50567200D02*
X51176905Y-50471961D01*
X51176905Y-50471961D02*
X51176905Y-50424342D01*
X51176905Y-50424342D02*
X51129286Y-50329104D01*
X51129286Y-50329104D02*
X51034048Y-50281485D01*
X51034048Y-50281485D02*
X50891191Y-50281485D01*
X50891191Y-50281485D02*
X50795953Y-50233866D01*
X50795953Y-50233866D02*
X50748334Y-50138628D01*
X50748334Y-50138628D02*
X50748334Y-50091009D01*
X50748334Y-50091009D02*
X50795953Y-49995771D01*
X50795953Y-49995771D02*
X50891191Y-49948152D01*
X50891191Y-49948152D02*
X51034048Y-49948152D01*
X51034048Y-49948152D02*
X51129286Y-49995771D01*
X45581667Y-55017200D02*
X45724524Y-55064819D01*
X45724524Y-55064819D02*
X45962619Y-55064819D01*
X45962619Y-55064819D02*
X46057857Y-55017200D01*
X46057857Y-55017200D02*
X46105476Y-54969580D01*
X46105476Y-54969580D02*
X46153095Y-54874342D01*
X46153095Y-54874342D02*
X46153095Y-54779104D01*
X46153095Y-54779104D02*
X46105476Y-54683866D01*
X46105476Y-54683866D02*
X46057857Y-54636247D01*
X46057857Y-54636247D02*
X45962619Y-54588628D01*
X45962619Y-54588628D02*
X45772143Y-54541009D01*
X45772143Y-54541009D02*
X45676905Y-54493390D01*
X45676905Y-54493390D02*
X45629286Y-54445771D01*
X45629286Y-54445771D02*
X45581667Y-54350533D01*
X45581667Y-54350533D02*
X45581667Y-54255295D01*
X45581667Y-54255295D02*
X45629286Y-54160057D01*
X45629286Y-54160057D02*
X45676905Y-54112438D01*
X45676905Y-54112438D02*
X45772143Y-54064819D01*
X45772143Y-54064819D02*
X46010238Y-54064819D01*
X46010238Y-54064819D02*
X46153095Y-54112438D01*
X46486429Y-54064819D02*
X46724524Y-55064819D01*
X46724524Y-55064819D02*
X46915000Y-54350533D01*
X46915000Y-54350533D02*
X47105476Y-55064819D01*
X47105476Y-55064819D02*
X47343572Y-54064819D01*
X48248333Y-55064819D02*
X47676905Y-55064819D01*
X47962619Y-55064819D02*
X47962619Y-54064819D01*
X47962619Y-54064819D02*
X47867381Y-54207676D01*
X47867381Y-54207676D02*
X47772143Y-54302914D01*
X47772143Y-54302914D02*
X47676905Y-54350533D01*
X122374819Y-34856785D02*
X121374819Y-34856785D01*
X121374819Y-34856785D02*
X121374819Y-34618690D01*
X121374819Y-34618690D02*
X121422438Y-34475833D01*
X121422438Y-34475833D02*
X121517676Y-34380595D01*
X121517676Y-34380595D02*
X121612914Y-34332976D01*
X121612914Y-34332976D02*
X121803390Y-34285357D01*
X121803390Y-34285357D02*
X121946247Y-34285357D01*
X121946247Y-34285357D02*
X122136723Y-34332976D01*
X122136723Y-34332976D02*
X122231961Y-34380595D01*
X122231961Y-34380595D02*
X122327200Y-34475833D01*
X122327200Y-34475833D02*
X122374819Y-34618690D01*
X122374819Y-34618690D02*
X122374819Y-34856785D01*
X122327200Y-33904404D02*
X122374819Y-33761547D01*
X122374819Y-33761547D02*
X122374819Y-33523452D01*
X122374819Y-33523452D02*
X122327200Y-33428214D01*
X122327200Y-33428214D02*
X122279580Y-33380595D01*
X122279580Y-33380595D02*
X122184342Y-33332976D01*
X122184342Y-33332976D02*
X122089104Y-33332976D01*
X122089104Y-33332976D02*
X121993866Y-33380595D01*
X121993866Y-33380595D02*
X121946247Y-33428214D01*
X121946247Y-33428214D02*
X121898628Y-33523452D01*
X121898628Y-33523452D02*
X121851009Y-33713928D01*
X121851009Y-33713928D02*
X121803390Y-33809166D01*
X121803390Y-33809166D02*
X121755771Y-33856785D01*
X121755771Y-33856785D02*
X121660533Y-33904404D01*
X121660533Y-33904404D02*
X121565295Y-33904404D01*
X121565295Y-33904404D02*
X121470057Y-33856785D01*
X121470057Y-33856785D02*
X121422438Y-33809166D01*
X121422438Y-33809166D02*
X121374819Y-33713928D01*
X121374819Y-33713928D02*
X121374819Y-33475833D01*
X121374819Y-33475833D02*
X121422438Y-33332976D01*
X122374819Y-32904404D02*
X121374819Y-32904404D01*
X121374819Y-32904404D02*
X121374819Y-32523452D01*
X121374819Y-32523452D02*
X121422438Y-32428214D01*
X121422438Y-32428214D02*
X121470057Y-32380595D01*
X121470057Y-32380595D02*
X121565295Y-32332976D01*
X121565295Y-32332976D02*
X121708152Y-32332976D01*
X121708152Y-32332976D02*
X121803390Y-32380595D01*
X121803390Y-32380595D02*
X121851009Y-32428214D01*
X121851009Y-32428214D02*
X121898628Y-32523452D01*
X121898628Y-32523452D02*
X121898628Y-32904404D01*
X121374819Y-31475833D02*
X121374819Y-31666309D01*
X121374819Y-31666309D02*
X121422438Y-31761547D01*
X121422438Y-31761547D02*
X121470057Y-31809166D01*
X121470057Y-31809166D02*
X121612914Y-31904404D01*
X121612914Y-31904404D02*
X121803390Y-31952023D01*
X121803390Y-31952023D02*
X122184342Y-31952023D01*
X122184342Y-31952023D02*
X122279580Y-31904404D01*
X122279580Y-31904404D02*
X122327200Y-31856785D01*
X122327200Y-31856785D02*
X122374819Y-31761547D01*
X122374819Y-31761547D02*
X122374819Y-31571071D01*
X122374819Y-31571071D02*
X122327200Y-31475833D01*
X122327200Y-31475833D02*
X122279580Y-31428214D01*
X122279580Y-31428214D02*
X122184342Y-31380595D01*
X122184342Y-31380595D02*
X121946247Y-31380595D01*
X121946247Y-31380595D02*
X121851009Y-31428214D01*
X121851009Y-31428214D02*
X121803390Y-31475833D01*
X121803390Y-31475833D02*
X121755771Y-31571071D01*
X121755771Y-31571071D02*
X121755771Y-31761547D01*
X121755771Y-31761547D02*
X121803390Y-31856785D01*
X121803390Y-31856785D02*
X121851009Y-31904404D01*
X121851009Y-31904404D02*
X121946247Y-31952023D01*
X75231666Y-59144819D02*
X75231666Y-59859104D01*
X75231666Y-59859104D02*
X75184047Y-60001961D01*
X75184047Y-60001961D02*
X75088809Y-60097200D01*
X75088809Y-60097200D02*
X74945952Y-60144819D01*
X74945952Y-60144819D02*
X74850714Y-60144819D01*
X76231666Y-60144819D02*
X75660238Y-60144819D01*
X75945952Y-60144819D02*
X75945952Y-59144819D01*
X75945952Y-59144819D02*
X75850714Y-59287676D01*
X75850714Y-59287676D02*
X75755476Y-59382914D01*
X75755476Y-59382914D02*
X75660238Y-59430533D01*
X72557142Y-52429580D02*
X72509523Y-52477200D01*
X72509523Y-52477200D02*
X72366666Y-52524819D01*
X72366666Y-52524819D02*
X72271428Y-52524819D01*
X72271428Y-52524819D02*
X72128571Y-52477200D01*
X72128571Y-52477200D02*
X72033333Y-52381961D01*
X72033333Y-52381961D02*
X71985714Y-52286723D01*
X71985714Y-52286723D02*
X71938095Y-52096247D01*
X71938095Y-52096247D02*
X71938095Y-51953390D01*
X71938095Y-51953390D02*
X71985714Y-51762914D01*
X71985714Y-51762914D02*
X72033333Y-51667676D01*
X72033333Y-51667676D02*
X72128571Y-51572438D01*
X72128571Y-51572438D02*
X72271428Y-51524819D01*
X72271428Y-51524819D02*
X72366666Y-51524819D01*
X72366666Y-51524819D02*
X72509523Y-51572438D01*
X72509523Y-51572438D02*
X72557142Y-51620057D01*
X73176190Y-51524819D02*
X73366666Y-51524819D01*
X73366666Y-51524819D02*
X73461904Y-51572438D01*
X73461904Y-51572438D02*
X73557142Y-51667676D01*
X73557142Y-51667676D02*
X73604761Y-51858152D01*
X73604761Y-51858152D02*
X73604761Y-52191485D01*
X73604761Y-52191485D02*
X73557142Y-52381961D01*
X73557142Y-52381961D02*
X73461904Y-52477200D01*
X73461904Y-52477200D02*
X73366666Y-52524819D01*
X73366666Y-52524819D02*
X73176190Y-52524819D01*
X73176190Y-52524819D02*
X73080952Y-52477200D01*
X73080952Y-52477200D02*
X72985714Y-52381961D01*
X72985714Y-52381961D02*
X72938095Y-52191485D01*
X72938095Y-52191485D02*
X72938095Y-51858152D01*
X72938095Y-51858152D02*
X72985714Y-51667676D01*
X72985714Y-51667676D02*
X73080952Y-51572438D01*
X73080952Y-51572438D02*
X73176190Y-51524819D01*
X74033333Y-52524819D02*
X74033333Y-51524819D01*
X74033333Y-51524819D02*
X74366666Y-52239104D01*
X74366666Y-52239104D02*
X74699999Y-51524819D01*
X74699999Y-51524819D02*
X74699999Y-52524819D01*
X74938095Y-52620057D02*
X75699999Y-52620057D01*
X75938095Y-52524819D02*
X75938095Y-51524819D01*
X75938095Y-51524819D02*
X76176190Y-51524819D01*
X76176190Y-51524819D02*
X76319047Y-51572438D01*
X76319047Y-51572438D02*
X76414285Y-51667676D01*
X76414285Y-51667676D02*
X76461904Y-51762914D01*
X76461904Y-51762914D02*
X76509523Y-51953390D01*
X76509523Y-51953390D02*
X76509523Y-52096247D01*
X76509523Y-52096247D02*
X76461904Y-52286723D01*
X76461904Y-52286723D02*
X76414285Y-52381961D01*
X76414285Y-52381961D02*
X76319047Y-52477200D01*
X76319047Y-52477200D02*
X76176190Y-52524819D01*
X76176190Y-52524819D02*
X75938095Y-52524819D01*
X76938095Y-52001009D02*
X77271428Y-52001009D01*
X77414285Y-52524819D02*
X76938095Y-52524819D01*
X76938095Y-52524819D02*
X76938095Y-51524819D01*
X76938095Y-51524819D02*
X77414285Y-51524819D01*
X78176190Y-52001009D02*
X78319047Y-52048628D01*
X78319047Y-52048628D02*
X78366666Y-52096247D01*
X78366666Y-52096247D02*
X78414285Y-52191485D01*
X78414285Y-52191485D02*
X78414285Y-52334342D01*
X78414285Y-52334342D02*
X78366666Y-52429580D01*
X78366666Y-52429580D02*
X78319047Y-52477200D01*
X78319047Y-52477200D02*
X78223809Y-52524819D01*
X78223809Y-52524819D02*
X77842857Y-52524819D01*
X77842857Y-52524819D02*
X77842857Y-51524819D01*
X77842857Y-51524819D02*
X78176190Y-51524819D01*
X78176190Y-51524819D02*
X78271428Y-51572438D01*
X78271428Y-51572438D02*
X78319047Y-51620057D01*
X78319047Y-51620057D02*
X78366666Y-51715295D01*
X78366666Y-51715295D02*
X78366666Y-51810533D01*
X78366666Y-51810533D02*
X78319047Y-51905771D01*
X78319047Y-51905771D02*
X78271428Y-51953390D01*
X78271428Y-51953390D02*
X78176190Y-52001009D01*
X78176190Y-52001009D02*
X77842857Y-52001009D01*
X78842857Y-51524819D02*
X78842857Y-52334342D01*
X78842857Y-52334342D02*
X78890476Y-52429580D01*
X78890476Y-52429580D02*
X78938095Y-52477200D01*
X78938095Y-52477200D02*
X79033333Y-52524819D01*
X79033333Y-52524819D02*
X79223809Y-52524819D01*
X79223809Y-52524819D02*
X79319047Y-52477200D01*
X79319047Y-52477200D02*
X79366666Y-52429580D01*
X79366666Y-52429580D02*
X79414285Y-52334342D01*
X79414285Y-52334342D02*
X79414285Y-51524819D01*
X80414285Y-51572438D02*
X80319047Y-51524819D01*
X80319047Y-51524819D02*
X80176190Y-51524819D01*
X80176190Y-51524819D02*
X80033333Y-51572438D01*
X80033333Y-51572438D02*
X79938095Y-51667676D01*
X79938095Y-51667676D02*
X79890476Y-51762914D01*
X79890476Y-51762914D02*
X79842857Y-51953390D01*
X79842857Y-51953390D02*
X79842857Y-52096247D01*
X79842857Y-52096247D02*
X79890476Y-52286723D01*
X79890476Y-52286723D02*
X79938095Y-52381961D01*
X79938095Y-52381961D02*
X80033333Y-52477200D01*
X80033333Y-52477200D02*
X80176190Y-52524819D01*
X80176190Y-52524819D02*
X80271428Y-52524819D01*
X80271428Y-52524819D02*
X80414285Y-52477200D01*
X80414285Y-52477200D02*
X80461904Y-52429580D01*
X80461904Y-52429580D02*
X80461904Y-52096247D01*
X80461904Y-52096247D02*
X80271428Y-52096247D01*
X14906666Y-48984819D02*
X14906666Y-49699104D01*
X14906666Y-49699104D02*
X14859047Y-49841961D01*
X14859047Y-49841961D02*
X14763809Y-49937200D01*
X14763809Y-49937200D02*
X14620952Y-49984819D01*
X14620952Y-49984819D02*
X14525714Y-49984819D01*
X15335238Y-49080057D02*
X15382857Y-49032438D01*
X15382857Y-49032438D02*
X15478095Y-48984819D01*
X15478095Y-48984819D02*
X15716190Y-48984819D01*
X15716190Y-48984819D02*
X15811428Y-49032438D01*
X15811428Y-49032438D02*
X15859047Y-49080057D01*
X15859047Y-49080057D02*
X15906666Y-49175295D01*
X15906666Y-49175295D02*
X15906666Y-49270533D01*
X15906666Y-49270533D02*
X15859047Y-49413390D01*
X15859047Y-49413390D02*
X15287619Y-49984819D01*
X15287619Y-49984819D02*
X15906666Y-49984819D01*
X51268333Y-16314819D02*
X50935000Y-15838628D01*
X50696905Y-16314819D02*
X50696905Y-15314819D01*
X50696905Y-15314819D02*
X51077857Y-15314819D01*
X51077857Y-15314819D02*
X51173095Y-15362438D01*
X51173095Y-15362438D02*
X51220714Y-15410057D01*
X51220714Y-15410057D02*
X51268333Y-15505295D01*
X51268333Y-15505295D02*
X51268333Y-15648152D01*
X51268333Y-15648152D02*
X51220714Y-15743390D01*
X51220714Y-15743390D02*
X51173095Y-15791009D01*
X51173095Y-15791009D02*
X51077857Y-15838628D01*
X51077857Y-15838628D02*
X50696905Y-15838628D01*
X52220714Y-16314819D02*
X51649286Y-16314819D01*
X51935000Y-16314819D02*
X51935000Y-15314819D01*
X51935000Y-15314819D02*
X51839762Y-15457676D01*
X51839762Y-15457676D02*
X51744524Y-15552914D01*
X51744524Y-15552914D02*
X51649286Y-15600533D01*
X50196905Y-19250057D02*
X50244524Y-19202438D01*
X50244524Y-19202438D02*
X50339762Y-19154819D01*
X50339762Y-19154819D02*
X50577857Y-19154819D01*
X50577857Y-19154819D02*
X50673095Y-19202438D01*
X50673095Y-19202438D02*
X50720714Y-19250057D01*
X50720714Y-19250057D02*
X50768333Y-19345295D01*
X50768333Y-19345295D02*
X50768333Y-19440533D01*
X50768333Y-19440533D02*
X50720714Y-19583390D01*
X50720714Y-19583390D02*
X50149286Y-20154819D01*
X50149286Y-20154819D02*
X50768333Y-20154819D01*
X51149286Y-19250057D02*
X51196905Y-19202438D01*
X51196905Y-19202438D02*
X51292143Y-19154819D01*
X51292143Y-19154819D02*
X51530238Y-19154819D01*
X51530238Y-19154819D02*
X51625476Y-19202438D01*
X51625476Y-19202438D02*
X51673095Y-19250057D01*
X51673095Y-19250057D02*
X51720714Y-19345295D01*
X51720714Y-19345295D02*
X51720714Y-19440533D01*
X51720714Y-19440533D02*
X51673095Y-19583390D01*
X51673095Y-19583390D02*
X51101667Y-20154819D01*
X51101667Y-20154819D02*
X51720714Y-20154819D01*
X52339762Y-19154819D02*
X52435000Y-19154819D01*
X52435000Y-19154819D02*
X52530238Y-19202438D01*
X52530238Y-19202438D02*
X52577857Y-19250057D01*
X52577857Y-19250057D02*
X52625476Y-19345295D01*
X52625476Y-19345295D02*
X52673095Y-19535771D01*
X52673095Y-19535771D02*
X52673095Y-19773866D01*
X52673095Y-19773866D02*
X52625476Y-19964342D01*
X52625476Y-19964342D02*
X52577857Y-20059580D01*
X52577857Y-20059580D02*
X52530238Y-20107200D01*
X52530238Y-20107200D02*
X52435000Y-20154819D01*
X52435000Y-20154819D02*
X52339762Y-20154819D01*
X52339762Y-20154819D02*
X52244524Y-20107200D01*
X52244524Y-20107200D02*
X52196905Y-20059580D01*
X52196905Y-20059580D02*
X52149286Y-19964342D01*
X52149286Y-19964342D02*
X52101667Y-19773866D01*
X52101667Y-19773866D02*
X52101667Y-19535771D01*
X52101667Y-19535771D02*
X52149286Y-19345295D01*
X52149286Y-19345295D02*
X52196905Y-19250057D01*
X52196905Y-19250057D02*
X52244524Y-19202438D01*
X52244524Y-19202438D02*
X52339762Y-19154819D01*
X112199819Y-54776666D02*
X111723628Y-55109999D01*
X112199819Y-55348094D02*
X111199819Y-55348094D01*
X111199819Y-55348094D02*
X111199819Y-54967142D01*
X111199819Y-54967142D02*
X111247438Y-54871904D01*
X111247438Y-54871904D02*
X111295057Y-54824285D01*
X111295057Y-54824285D02*
X111390295Y-54776666D01*
X111390295Y-54776666D02*
X111533152Y-54776666D01*
X111533152Y-54776666D02*
X111628390Y-54824285D01*
X111628390Y-54824285D02*
X111676009Y-54871904D01*
X111676009Y-54871904D02*
X111723628Y-54967142D01*
X111723628Y-54967142D02*
X111723628Y-55348094D01*
X111199819Y-53871904D02*
X111199819Y-54348094D01*
X111199819Y-54348094D02*
X111676009Y-54395713D01*
X111676009Y-54395713D02*
X111628390Y-54348094D01*
X111628390Y-54348094D02*
X111580771Y-54252856D01*
X111580771Y-54252856D02*
X111580771Y-54014761D01*
X111580771Y-54014761D02*
X111628390Y-53919523D01*
X111628390Y-53919523D02*
X111676009Y-53871904D01*
X111676009Y-53871904D02*
X111771247Y-53824285D01*
X111771247Y-53824285D02*
X112009342Y-53824285D01*
X112009342Y-53824285D02*
X112104580Y-53871904D01*
X112104580Y-53871904D02*
X112152200Y-53919523D01*
X112152200Y-53919523D02*
X112199819Y-54014761D01*
X112199819Y-54014761D02*
X112199819Y-54252856D01*
X112199819Y-54252856D02*
X112152200Y-54348094D01*
X112152200Y-54348094D02*
X112104580Y-54395713D01*
X115135057Y-55848094D02*
X115087438Y-55800475D01*
X115087438Y-55800475D02*
X115039819Y-55705237D01*
X115039819Y-55705237D02*
X115039819Y-55467142D01*
X115039819Y-55467142D02*
X115087438Y-55371904D01*
X115087438Y-55371904D02*
X115135057Y-55324285D01*
X115135057Y-55324285D02*
X115230295Y-55276666D01*
X115230295Y-55276666D02*
X115325533Y-55276666D01*
X115325533Y-55276666D02*
X115468390Y-55324285D01*
X115468390Y-55324285D02*
X116039819Y-55895713D01*
X116039819Y-55895713D02*
X116039819Y-55276666D01*
X115135057Y-54895713D02*
X115087438Y-54848094D01*
X115087438Y-54848094D02*
X115039819Y-54752856D01*
X115039819Y-54752856D02*
X115039819Y-54514761D01*
X115039819Y-54514761D02*
X115087438Y-54419523D01*
X115087438Y-54419523D02*
X115135057Y-54371904D01*
X115135057Y-54371904D02*
X115230295Y-54324285D01*
X115230295Y-54324285D02*
X115325533Y-54324285D01*
X115325533Y-54324285D02*
X115468390Y-54371904D01*
X115468390Y-54371904D02*
X116039819Y-54943332D01*
X116039819Y-54943332D02*
X116039819Y-54324285D01*
X115039819Y-53705237D02*
X115039819Y-53609999D01*
X115039819Y-53609999D02*
X115087438Y-53514761D01*
X115087438Y-53514761D02*
X115135057Y-53467142D01*
X115135057Y-53467142D02*
X115230295Y-53419523D01*
X115230295Y-53419523D02*
X115420771Y-53371904D01*
X115420771Y-53371904D02*
X115658866Y-53371904D01*
X115658866Y-53371904D02*
X115849342Y-53419523D01*
X115849342Y-53419523D02*
X115944580Y-53467142D01*
X115944580Y-53467142D02*
X115992200Y-53514761D01*
X115992200Y-53514761D02*
X116039819Y-53609999D01*
X116039819Y-53609999D02*
X116039819Y-53705237D01*
X116039819Y-53705237D02*
X115992200Y-53800475D01*
X115992200Y-53800475D02*
X115944580Y-53848094D01*
X115944580Y-53848094D02*
X115849342Y-53895713D01*
X115849342Y-53895713D02*
X115658866Y-53943332D01*
X115658866Y-53943332D02*
X115420771Y-53943332D01*
X115420771Y-53943332D02*
X115230295Y-53895713D01*
X115230295Y-53895713D02*
X115135057Y-53848094D01*
X115135057Y-53848094D02*
X115087438Y-53800475D01*
X115087438Y-53800475D02*
X115039819Y-53705237D01*
X63954819Y-34856785D02*
X62954819Y-34856785D01*
X62954819Y-34856785D02*
X62954819Y-34618690D01*
X62954819Y-34618690D02*
X63002438Y-34475833D01*
X63002438Y-34475833D02*
X63097676Y-34380595D01*
X63097676Y-34380595D02*
X63192914Y-34332976D01*
X63192914Y-34332976D02*
X63383390Y-34285357D01*
X63383390Y-34285357D02*
X63526247Y-34285357D01*
X63526247Y-34285357D02*
X63716723Y-34332976D01*
X63716723Y-34332976D02*
X63811961Y-34380595D01*
X63811961Y-34380595D02*
X63907200Y-34475833D01*
X63907200Y-34475833D02*
X63954819Y-34618690D01*
X63954819Y-34618690D02*
X63954819Y-34856785D01*
X63907200Y-33904404D02*
X63954819Y-33761547D01*
X63954819Y-33761547D02*
X63954819Y-33523452D01*
X63954819Y-33523452D02*
X63907200Y-33428214D01*
X63907200Y-33428214D02*
X63859580Y-33380595D01*
X63859580Y-33380595D02*
X63764342Y-33332976D01*
X63764342Y-33332976D02*
X63669104Y-33332976D01*
X63669104Y-33332976D02*
X63573866Y-33380595D01*
X63573866Y-33380595D02*
X63526247Y-33428214D01*
X63526247Y-33428214D02*
X63478628Y-33523452D01*
X63478628Y-33523452D02*
X63431009Y-33713928D01*
X63431009Y-33713928D02*
X63383390Y-33809166D01*
X63383390Y-33809166D02*
X63335771Y-33856785D01*
X63335771Y-33856785D02*
X63240533Y-33904404D01*
X63240533Y-33904404D02*
X63145295Y-33904404D01*
X63145295Y-33904404D02*
X63050057Y-33856785D01*
X63050057Y-33856785D02*
X63002438Y-33809166D01*
X63002438Y-33809166D02*
X62954819Y-33713928D01*
X62954819Y-33713928D02*
X62954819Y-33475833D01*
X62954819Y-33475833D02*
X63002438Y-33332976D01*
X63954819Y-32904404D02*
X62954819Y-32904404D01*
X62954819Y-32904404D02*
X62954819Y-32523452D01*
X62954819Y-32523452D02*
X63002438Y-32428214D01*
X63002438Y-32428214D02*
X63050057Y-32380595D01*
X63050057Y-32380595D02*
X63145295Y-32332976D01*
X63145295Y-32332976D02*
X63288152Y-32332976D01*
X63288152Y-32332976D02*
X63383390Y-32380595D01*
X63383390Y-32380595D02*
X63431009Y-32428214D01*
X63431009Y-32428214D02*
X63478628Y-32523452D01*
X63478628Y-32523452D02*
X63478628Y-32904404D01*
X63050057Y-31952023D02*
X63002438Y-31904404D01*
X63002438Y-31904404D02*
X62954819Y-31809166D01*
X62954819Y-31809166D02*
X62954819Y-31571071D01*
X62954819Y-31571071D02*
X63002438Y-31475833D01*
X63002438Y-31475833D02*
X63050057Y-31428214D01*
X63050057Y-31428214D02*
X63145295Y-31380595D01*
X63145295Y-31380595D02*
X63240533Y-31380595D01*
X63240533Y-31380595D02*
X63383390Y-31428214D01*
X63383390Y-31428214D02*
X63954819Y-31999642D01*
X63954819Y-31999642D02*
X63954819Y-31380595D01*
X79829819Y-34856785D02*
X78829819Y-34856785D01*
X78829819Y-34856785D02*
X78829819Y-34618690D01*
X78829819Y-34618690D02*
X78877438Y-34475833D01*
X78877438Y-34475833D02*
X78972676Y-34380595D01*
X78972676Y-34380595D02*
X79067914Y-34332976D01*
X79067914Y-34332976D02*
X79258390Y-34285357D01*
X79258390Y-34285357D02*
X79401247Y-34285357D01*
X79401247Y-34285357D02*
X79591723Y-34332976D01*
X79591723Y-34332976D02*
X79686961Y-34380595D01*
X79686961Y-34380595D02*
X79782200Y-34475833D01*
X79782200Y-34475833D02*
X79829819Y-34618690D01*
X79829819Y-34618690D02*
X79829819Y-34856785D01*
X79782200Y-33904404D02*
X79829819Y-33761547D01*
X79829819Y-33761547D02*
X79829819Y-33523452D01*
X79829819Y-33523452D02*
X79782200Y-33428214D01*
X79782200Y-33428214D02*
X79734580Y-33380595D01*
X79734580Y-33380595D02*
X79639342Y-33332976D01*
X79639342Y-33332976D02*
X79544104Y-33332976D01*
X79544104Y-33332976D02*
X79448866Y-33380595D01*
X79448866Y-33380595D02*
X79401247Y-33428214D01*
X79401247Y-33428214D02*
X79353628Y-33523452D01*
X79353628Y-33523452D02*
X79306009Y-33713928D01*
X79306009Y-33713928D02*
X79258390Y-33809166D01*
X79258390Y-33809166D02*
X79210771Y-33856785D01*
X79210771Y-33856785D02*
X79115533Y-33904404D01*
X79115533Y-33904404D02*
X79020295Y-33904404D01*
X79020295Y-33904404D02*
X78925057Y-33856785D01*
X78925057Y-33856785D02*
X78877438Y-33809166D01*
X78877438Y-33809166D02*
X78829819Y-33713928D01*
X78829819Y-33713928D02*
X78829819Y-33475833D01*
X78829819Y-33475833D02*
X78877438Y-33332976D01*
X79829819Y-32904404D02*
X78829819Y-32904404D01*
X78829819Y-32904404D02*
X78829819Y-32523452D01*
X78829819Y-32523452D02*
X78877438Y-32428214D01*
X78877438Y-32428214D02*
X78925057Y-32380595D01*
X78925057Y-32380595D02*
X79020295Y-32332976D01*
X79020295Y-32332976D02*
X79163152Y-32332976D01*
X79163152Y-32332976D02*
X79258390Y-32380595D01*
X79258390Y-32380595D02*
X79306009Y-32428214D01*
X79306009Y-32428214D02*
X79353628Y-32523452D01*
X79353628Y-32523452D02*
X79353628Y-32904404D01*
X78829819Y-31999642D02*
X78829819Y-31380595D01*
X78829819Y-31380595D02*
X79210771Y-31713928D01*
X79210771Y-31713928D02*
X79210771Y-31571071D01*
X79210771Y-31571071D02*
X79258390Y-31475833D01*
X79258390Y-31475833D02*
X79306009Y-31428214D01*
X79306009Y-31428214D02*
X79401247Y-31380595D01*
X79401247Y-31380595D02*
X79639342Y-31380595D01*
X79639342Y-31380595D02*
X79734580Y-31428214D01*
X79734580Y-31428214D02*
X79782200Y-31475833D01*
X79782200Y-31475833D02*
X79829819Y-31571071D01*
X79829819Y-31571071D02*
X79829819Y-31856785D01*
X79829819Y-31856785D02*
X79782200Y-31952023D01*
X79782200Y-31952023D02*
X79734580Y-31999642D01*
X93164819Y-34856785D02*
X92164819Y-34856785D01*
X92164819Y-34856785D02*
X92164819Y-34618690D01*
X92164819Y-34618690D02*
X92212438Y-34475833D01*
X92212438Y-34475833D02*
X92307676Y-34380595D01*
X92307676Y-34380595D02*
X92402914Y-34332976D01*
X92402914Y-34332976D02*
X92593390Y-34285357D01*
X92593390Y-34285357D02*
X92736247Y-34285357D01*
X92736247Y-34285357D02*
X92926723Y-34332976D01*
X92926723Y-34332976D02*
X93021961Y-34380595D01*
X93021961Y-34380595D02*
X93117200Y-34475833D01*
X93117200Y-34475833D02*
X93164819Y-34618690D01*
X93164819Y-34618690D02*
X93164819Y-34856785D01*
X93117200Y-33904404D02*
X93164819Y-33761547D01*
X93164819Y-33761547D02*
X93164819Y-33523452D01*
X93164819Y-33523452D02*
X93117200Y-33428214D01*
X93117200Y-33428214D02*
X93069580Y-33380595D01*
X93069580Y-33380595D02*
X92974342Y-33332976D01*
X92974342Y-33332976D02*
X92879104Y-33332976D01*
X92879104Y-33332976D02*
X92783866Y-33380595D01*
X92783866Y-33380595D02*
X92736247Y-33428214D01*
X92736247Y-33428214D02*
X92688628Y-33523452D01*
X92688628Y-33523452D02*
X92641009Y-33713928D01*
X92641009Y-33713928D02*
X92593390Y-33809166D01*
X92593390Y-33809166D02*
X92545771Y-33856785D01*
X92545771Y-33856785D02*
X92450533Y-33904404D01*
X92450533Y-33904404D02*
X92355295Y-33904404D01*
X92355295Y-33904404D02*
X92260057Y-33856785D01*
X92260057Y-33856785D02*
X92212438Y-33809166D01*
X92212438Y-33809166D02*
X92164819Y-33713928D01*
X92164819Y-33713928D02*
X92164819Y-33475833D01*
X92164819Y-33475833D02*
X92212438Y-33332976D01*
X93164819Y-32904404D02*
X92164819Y-32904404D01*
X92164819Y-32904404D02*
X92164819Y-32523452D01*
X92164819Y-32523452D02*
X92212438Y-32428214D01*
X92212438Y-32428214D02*
X92260057Y-32380595D01*
X92260057Y-32380595D02*
X92355295Y-32332976D01*
X92355295Y-32332976D02*
X92498152Y-32332976D01*
X92498152Y-32332976D02*
X92593390Y-32380595D01*
X92593390Y-32380595D02*
X92641009Y-32428214D01*
X92641009Y-32428214D02*
X92688628Y-32523452D01*
X92688628Y-32523452D02*
X92688628Y-32904404D01*
X92498152Y-31475833D02*
X93164819Y-31475833D01*
X92117200Y-31713928D02*
X92831485Y-31952023D01*
X92831485Y-31952023D02*
X92831485Y-31332976D01*
X64603333Y-16314819D02*
X64270000Y-15838628D01*
X64031905Y-16314819D02*
X64031905Y-15314819D01*
X64031905Y-15314819D02*
X64412857Y-15314819D01*
X64412857Y-15314819D02*
X64508095Y-15362438D01*
X64508095Y-15362438D02*
X64555714Y-15410057D01*
X64555714Y-15410057D02*
X64603333Y-15505295D01*
X64603333Y-15505295D02*
X64603333Y-15648152D01*
X64603333Y-15648152D02*
X64555714Y-15743390D01*
X64555714Y-15743390D02*
X64508095Y-15791009D01*
X64508095Y-15791009D02*
X64412857Y-15838628D01*
X64412857Y-15838628D02*
X64031905Y-15838628D01*
X64984286Y-15410057D02*
X65031905Y-15362438D01*
X65031905Y-15362438D02*
X65127143Y-15314819D01*
X65127143Y-15314819D02*
X65365238Y-15314819D01*
X65365238Y-15314819D02*
X65460476Y-15362438D01*
X65460476Y-15362438D02*
X65508095Y-15410057D01*
X65508095Y-15410057D02*
X65555714Y-15505295D01*
X65555714Y-15505295D02*
X65555714Y-15600533D01*
X65555714Y-15600533D02*
X65508095Y-15743390D01*
X65508095Y-15743390D02*
X64936667Y-16314819D01*
X64936667Y-16314819D02*
X65555714Y-16314819D01*
X63531905Y-19250057D02*
X63579524Y-19202438D01*
X63579524Y-19202438D02*
X63674762Y-19154819D01*
X63674762Y-19154819D02*
X63912857Y-19154819D01*
X63912857Y-19154819D02*
X64008095Y-19202438D01*
X64008095Y-19202438D02*
X64055714Y-19250057D01*
X64055714Y-19250057D02*
X64103333Y-19345295D01*
X64103333Y-19345295D02*
X64103333Y-19440533D01*
X64103333Y-19440533D02*
X64055714Y-19583390D01*
X64055714Y-19583390D02*
X63484286Y-20154819D01*
X63484286Y-20154819D02*
X64103333Y-20154819D01*
X64484286Y-19250057D02*
X64531905Y-19202438D01*
X64531905Y-19202438D02*
X64627143Y-19154819D01*
X64627143Y-19154819D02*
X64865238Y-19154819D01*
X64865238Y-19154819D02*
X64960476Y-19202438D01*
X64960476Y-19202438D02*
X65008095Y-19250057D01*
X65008095Y-19250057D02*
X65055714Y-19345295D01*
X65055714Y-19345295D02*
X65055714Y-19440533D01*
X65055714Y-19440533D02*
X65008095Y-19583390D01*
X65008095Y-19583390D02*
X64436667Y-20154819D01*
X64436667Y-20154819D02*
X65055714Y-20154819D01*
X65674762Y-19154819D02*
X65770000Y-19154819D01*
X65770000Y-19154819D02*
X65865238Y-19202438D01*
X65865238Y-19202438D02*
X65912857Y-19250057D01*
X65912857Y-19250057D02*
X65960476Y-19345295D01*
X65960476Y-19345295D02*
X66008095Y-19535771D01*
X66008095Y-19535771D02*
X66008095Y-19773866D01*
X66008095Y-19773866D02*
X65960476Y-19964342D01*
X65960476Y-19964342D02*
X65912857Y-20059580D01*
X65912857Y-20059580D02*
X65865238Y-20107200D01*
X65865238Y-20107200D02*
X65770000Y-20154819D01*
X65770000Y-20154819D02*
X65674762Y-20154819D01*
X65674762Y-20154819D02*
X65579524Y-20107200D01*
X65579524Y-20107200D02*
X65531905Y-20059580D01*
X65531905Y-20059580D02*
X65484286Y-19964342D01*
X65484286Y-19964342D02*
X65436667Y-19773866D01*
X65436667Y-19773866D02*
X65436667Y-19535771D01*
X65436667Y-19535771D02*
X65484286Y-19345295D01*
X65484286Y-19345295D02*
X65531905Y-19250057D01*
X65531905Y-19250057D02*
X65579524Y-19202438D01*
X65579524Y-19202438D02*
X65674762Y-19154819D01*
X51132319Y-34734285D02*
X50132319Y-34734285D01*
X50132319Y-34734285D02*
X50132319Y-34496190D01*
X50132319Y-34496190D02*
X50179938Y-34353333D01*
X50179938Y-34353333D02*
X50275176Y-34258095D01*
X50275176Y-34258095D02*
X50370414Y-34210476D01*
X50370414Y-34210476D02*
X50560890Y-34162857D01*
X50560890Y-34162857D02*
X50703747Y-34162857D01*
X50703747Y-34162857D02*
X50894223Y-34210476D01*
X50894223Y-34210476D02*
X50989461Y-34258095D01*
X50989461Y-34258095D02*
X51084700Y-34353333D01*
X51084700Y-34353333D02*
X51132319Y-34496190D01*
X51132319Y-34496190D02*
X51132319Y-34734285D01*
X51084700Y-33781904D02*
X51132319Y-33639047D01*
X51132319Y-33639047D02*
X51132319Y-33400952D01*
X51132319Y-33400952D02*
X51084700Y-33305714D01*
X51084700Y-33305714D02*
X51037080Y-33258095D01*
X51037080Y-33258095D02*
X50941842Y-33210476D01*
X50941842Y-33210476D02*
X50846604Y-33210476D01*
X50846604Y-33210476D02*
X50751366Y-33258095D01*
X50751366Y-33258095D02*
X50703747Y-33305714D01*
X50703747Y-33305714D02*
X50656128Y-33400952D01*
X50656128Y-33400952D02*
X50608509Y-33591428D01*
X50608509Y-33591428D02*
X50560890Y-33686666D01*
X50560890Y-33686666D02*
X50513271Y-33734285D01*
X50513271Y-33734285D02*
X50418033Y-33781904D01*
X50418033Y-33781904D02*
X50322795Y-33781904D01*
X50322795Y-33781904D02*
X50227557Y-33734285D01*
X50227557Y-33734285D02*
X50179938Y-33686666D01*
X50179938Y-33686666D02*
X50132319Y-33591428D01*
X50132319Y-33591428D02*
X50132319Y-33353333D01*
X50132319Y-33353333D02*
X50179938Y-33210476D01*
X51132319Y-32781904D02*
X50132319Y-32781904D01*
X50132319Y-32781904D02*
X50132319Y-32400952D01*
X50132319Y-32400952D02*
X50179938Y-32305714D01*
X50179938Y-32305714D02*
X50227557Y-32258095D01*
X50227557Y-32258095D02*
X50322795Y-32210476D01*
X50322795Y-32210476D02*
X50465652Y-32210476D01*
X50465652Y-32210476D02*
X50560890Y-32258095D01*
X50560890Y-32258095D02*
X50608509Y-32305714D01*
X50608509Y-32305714D02*
X50656128Y-32400952D01*
X50656128Y-32400952D02*
X50656128Y-32781904D01*
X51132319Y-31258095D02*
X51132319Y-31829523D01*
X51132319Y-31543809D02*
X50132319Y-31543809D01*
X50132319Y-31543809D02*
X50275176Y-31639047D01*
X50275176Y-31639047D02*
X50370414Y-31734285D01*
X50370414Y-31734285D02*
X50418033Y-31829523D01*
X93813333Y-16314819D02*
X93480000Y-15838628D01*
X93241905Y-16314819D02*
X93241905Y-15314819D01*
X93241905Y-15314819D02*
X93622857Y-15314819D01*
X93622857Y-15314819D02*
X93718095Y-15362438D01*
X93718095Y-15362438D02*
X93765714Y-15410057D01*
X93765714Y-15410057D02*
X93813333Y-15505295D01*
X93813333Y-15505295D02*
X93813333Y-15648152D01*
X93813333Y-15648152D02*
X93765714Y-15743390D01*
X93765714Y-15743390D02*
X93718095Y-15791009D01*
X93718095Y-15791009D02*
X93622857Y-15838628D01*
X93622857Y-15838628D02*
X93241905Y-15838628D01*
X94146667Y-15314819D02*
X94765714Y-15314819D01*
X94765714Y-15314819D02*
X94432381Y-15695771D01*
X94432381Y-15695771D02*
X94575238Y-15695771D01*
X94575238Y-15695771D02*
X94670476Y-15743390D01*
X94670476Y-15743390D02*
X94718095Y-15791009D01*
X94718095Y-15791009D02*
X94765714Y-15886247D01*
X94765714Y-15886247D02*
X94765714Y-16124342D01*
X94765714Y-16124342D02*
X94718095Y-16219580D01*
X94718095Y-16219580D02*
X94670476Y-16267200D01*
X94670476Y-16267200D02*
X94575238Y-16314819D01*
X94575238Y-16314819D02*
X94289524Y-16314819D01*
X94289524Y-16314819D02*
X94194286Y-16267200D01*
X94194286Y-16267200D02*
X94146667Y-16219580D01*
X92741905Y-19250057D02*
X92789524Y-19202438D01*
X92789524Y-19202438D02*
X92884762Y-19154819D01*
X92884762Y-19154819D02*
X93122857Y-19154819D01*
X93122857Y-19154819D02*
X93218095Y-19202438D01*
X93218095Y-19202438D02*
X93265714Y-19250057D01*
X93265714Y-19250057D02*
X93313333Y-19345295D01*
X93313333Y-19345295D02*
X93313333Y-19440533D01*
X93313333Y-19440533D02*
X93265714Y-19583390D01*
X93265714Y-19583390D02*
X92694286Y-20154819D01*
X92694286Y-20154819D02*
X93313333Y-20154819D01*
X93694286Y-19250057D02*
X93741905Y-19202438D01*
X93741905Y-19202438D02*
X93837143Y-19154819D01*
X93837143Y-19154819D02*
X94075238Y-19154819D01*
X94075238Y-19154819D02*
X94170476Y-19202438D01*
X94170476Y-19202438D02*
X94218095Y-19250057D01*
X94218095Y-19250057D02*
X94265714Y-19345295D01*
X94265714Y-19345295D02*
X94265714Y-19440533D01*
X94265714Y-19440533D02*
X94218095Y-19583390D01*
X94218095Y-19583390D02*
X93646667Y-20154819D01*
X93646667Y-20154819D02*
X94265714Y-20154819D01*
X94884762Y-19154819D02*
X94980000Y-19154819D01*
X94980000Y-19154819D02*
X95075238Y-19202438D01*
X95075238Y-19202438D02*
X95122857Y-19250057D01*
X95122857Y-19250057D02*
X95170476Y-19345295D01*
X95170476Y-19345295D02*
X95218095Y-19535771D01*
X95218095Y-19535771D02*
X95218095Y-19773866D01*
X95218095Y-19773866D02*
X95170476Y-19964342D01*
X95170476Y-19964342D02*
X95122857Y-20059580D01*
X95122857Y-20059580D02*
X95075238Y-20107200D01*
X95075238Y-20107200D02*
X94980000Y-20154819D01*
X94980000Y-20154819D02*
X94884762Y-20154819D01*
X94884762Y-20154819D02*
X94789524Y-20107200D01*
X94789524Y-20107200D02*
X94741905Y-20059580D01*
X94741905Y-20059580D02*
X94694286Y-19964342D01*
X94694286Y-19964342D02*
X94646667Y-19773866D01*
X94646667Y-19773866D02*
X94646667Y-19535771D01*
X94646667Y-19535771D02*
X94694286Y-19345295D01*
X94694286Y-19345295D02*
X94741905Y-19250057D01*
X94741905Y-19250057D02*
X94789524Y-19202438D01*
X94789524Y-19202438D02*
X94884762Y-19154819D01*
X65706666Y-59144819D02*
X65706666Y-59859104D01*
X65706666Y-59859104D02*
X65659047Y-60001961D01*
X65659047Y-60001961D02*
X65563809Y-60097200D01*
X65563809Y-60097200D02*
X65420952Y-60144819D01*
X65420952Y-60144819D02*
X65325714Y-60144819D01*
X66087619Y-59144819D02*
X66706666Y-59144819D01*
X66706666Y-59144819D02*
X66373333Y-59525771D01*
X66373333Y-59525771D02*
X66516190Y-59525771D01*
X66516190Y-59525771D02*
X66611428Y-59573390D01*
X66611428Y-59573390D02*
X66659047Y-59621009D01*
X66659047Y-59621009D02*
X66706666Y-59716247D01*
X66706666Y-59716247D02*
X66706666Y-59954342D01*
X66706666Y-59954342D02*
X66659047Y-60049580D01*
X66659047Y-60049580D02*
X66611428Y-60097200D01*
X66611428Y-60097200D02*
X66516190Y-60144819D01*
X66516190Y-60144819D02*
X66230476Y-60144819D01*
X66230476Y-60144819D02*
X66135238Y-60097200D01*
X66135238Y-60097200D02*
X66087619Y-60049580D01*
X80478333Y-16314819D02*
X80145000Y-15838628D01*
X79906905Y-16314819D02*
X79906905Y-15314819D01*
X79906905Y-15314819D02*
X80287857Y-15314819D01*
X80287857Y-15314819D02*
X80383095Y-15362438D01*
X80383095Y-15362438D02*
X80430714Y-15410057D01*
X80430714Y-15410057D02*
X80478333Y-15505295D01*
X80478333Y-15505295D02*
X80478333Y-15648152D01*
X80478333Y-15648152D02*
X80430714Y-15743390D01*
X80430714Y-15743390D02*
X80383095Y-15791009D01*
X80383095Y-15791009D02*
X80287857Y-15838628D01*
X80287857Y-15838628D02*
X79906905Y-15838628D01*
X81335476Y-15648152D02*
X81335476Y-16314819D01*
X81097381Y-15267200D02*
X80859286Y-15981485D01*
X80859286Y-15981485D02*
X81478333Y-15981485D01*
X79406905Y-19250057D02*
X79454524Y-19202438D01*
X79454524Y-19202438D02*
X79549762Y-19154819D01*
X79549762Y-19154819D02*
X79787857Y-19154819D01*
X79787857Y-19154819D02*
X79883095Y-19202438D01*
X79883095Y-19202438D02*
X79930714Y-19250057D01*
X79930714Y-19250057D02*
X79978333Y-19345295D01*
X79978333Y-19345295D02*
X79978333Y-19440533D01*
X79978333Y-19440533D02*
X79930714Y-19583390D01*
X79930714Y-19583390D02*
X79359286Y-20154819D01*
X79359286Y-20154819D02*
X79978333Y-20154819D01*
X80359286Y-19250057D02*
X80406905Y-19202438D01*
X80406905Y-19202438D02*
X80502143Y-19154819D01*
X80502143Y-19154819D02*
X80740238Y-19154819D01*
X80740238Y-19154819D02*
X80835476Y-19202438D01*
X80835476Y-19202438D02*
X80883095Y-19250057D01*
X80883095Y-19250057D02*
X80930714Y-19345295D01*
X80930714Y-19345295D02*
X80930714Y-19440533D01*
X80930714Y-19440533D02*
X80883095Y-19583390D01*
X80883095Y-19583390D02*
X80311667Y-20154819D01*
X80311667Y-20154819D02*
X80930714Y-20154819D01*
X81549762Y-19154819D02*
X81645000Y-19154819D01*
X81645000Y-19154819D02*
X81740238Y-19202438D01*
X81740238Y-19202438D02*
X81787857Y-19250057D01*
X81787857Y-19250057D02*
X81835476Y-19345295D01*
X81835476Y-19345295D02*
X81883095Y-19535771D01*
X81883095Y-19535771D02*
X81883095Y-19773866D01*
X81883095Y-19773866D02*
X81835476Y-19964342D01*
X81835476Y-19964342D02*
X81787857Y-20059580D01*
X81787857Y-20059580D02*
X81740238Y-20107200D01*
X81740238Y-20107200D02*
X81645000Y-20154819D01*
X81645000Y-20154819D02*
X81549762Y-20154819D01*
X81549762Y-20154819D02*
X81454524Y-20107200D01*
X81454524Y-20107200D02*
X81406905Y-20059580D01*
X81406905Y-20059580D02*
X81359286Y-19964342D01*
X81359286Y-19964342D02*
X81311667Y-19773866D01*
X81311667Y-19773866D02*
X81311667Y-19535771D01*
X81311667Y-19535771D02*
X81359286Y-19345295D01*
X81359286Y-19345295D02*
X81406905Y-19250057D01*
X81406905Y-19250057D02*
X81454524Y-19202438D01*
X81454524Y-19202438D02*
X81549762Y-19154819D01*
D12*
%TO.C,R6*%
X127000000Y-57480000D02*
X127000000Y-56530000D01*
X126080000Y-56530000D02*
X127920000Y-56530000D01*
X127920000Y-56530000D02*
X127920000Y-52690000D01*
X126080000Y-52690000D02*
X126080000Y-56530000D01*
X127920000Y-52690000D02*
X126080000Y-52690000D01*
X127000000Y-51740000D02*
X127000000Y-52690000D01*
%TO.C,DSP5*%
X107785000Y-39170000D02*
X109395000Y-39170000D01*
X107305000Y-38820000D02*
X120025000Y-38820000D01*
X111922200Y-34086200D02*
X115605200Y-34086200D01*
X111744400Y-29184000D02*
X111744400Y-34086200D01*
X115783000Y-29184000D02*
X115783000Y-34086200D01*
X111922200Y-29082400D02*
X115605200Y-29082400D01*
X111744400Y-23646800D02*
X111744400Y-29006200D01*
X115783000Y-23646800D02*
X115783000Y-29006200D01*
X111922200Y-23621400D02*
X115605200Y-23621400D01*
X107305000Y-19600000D02*
X107305000Y-38820000D01*
X107305000Y-19600000D02*
X120025000Y-19600000D01*
X120025000Y-19600000D02*
X120025000Y-38820000D01*
X117127467Y-34272467D02*
G75*
G03*
X117127467Y-34272467I-472467J0D01*
G01*
D10*
%TO.C,uP1*%
X36195000Y-50800000D02*
X36195000Y-17780000D01*
X36195000Y-50800000D02*
X18415000Y-50800000D01*
X36195000Y-17780000D02*
X18415000Y-17780000D01*
X18415000Y-17780000D02*
X18415000Y-50800000D01*
D12*
%TO.C,SW1*%
X50415000Y-55360000D02*
X50415000Y-53860000D01*
X49165000Y-51360000D02*
X44665000Y-51360000D01*
X44665000Y-57860000D02*
X49165000Y-57860000D01*
X43415000Y-53860000D02*
X43415000Y-55360000D01*
%TO.C,DSP6*%
X121120000Y-39170000D02*
X122730000Y-39170000D01*
X120640000Y-38820000D02*
X133360000Y-38820000D01*
X125257200Y-34086200D02*
X128940200Y-34086200D01*
X125079400Y-29184000D02*
X125079400Y-34086200D01*
X129118000Y-29184000D02*
X129118000Y-34086200D01*
X125257200Y-29082400D02*
X128940200Y-29082400D01*
X125079400Y-23646800D02*
X125079400Y-29006200D01*
X129118000Y-23646800D02*
X129118000Y-29006200D01*
X125257200Y-23621400D02*
X128940200Y-23621400D01*
X120640000Y-19600000D02*
X120640000Y-38820000D01*
X120640000Y-19600000D02*
X133360000Y-19600000D01*
X133360000Y-19600000D02*
X133360000Y-38820000D01*
X130462467Y-34272467D02*
G75*
G03*
X130462467Y-34272467I-472467J0D01*
G01*
%TO.C,J1*%
X71695000Y-58190000D02*
X71695000Y-56860000D01*
X73025000Y-58190000D02*
X71695000Y-58190000D01*
X74295000Y-58190000D02*
X79435000Y-58190000D01*
X74295000Y-58190000D02*
X74295000Y-55590000D01*
X79435000Y-58190000D02*
X79435000Y-52990000D01*
X71695000Y-55590000D02*
X71695000Y-52990000D01*
X74295000Y-55590000D02*
X71695000Y-55590000D01*
X71695000Y-52990000D02*
X79435000Y-52990000D01*
%TO.C,J2*%
X13910000Y-40580000D02*
X15240000Y-40580000D01*
X13910000Y-41910000D02*
X13910000Y-40580000D01*
X13910000Y-43180000D02*
X13910000Y-48320000D01*
X13910000Y-43180000D02*
X16570000Y-43180000D01*
X13910000Y-48320000D02*
X16570000Y-48320000D01*
X16570000Y-43180000D02*
X16570000Y-48320000D01*
%TO.C,R1*%
X48565000Y-17780000D02*
X49515000Y-17780000D01*
X49515000Y-16860000D02*
X49515000Y-18700000D01*
X49515000Y-18700000D02*
X53355000Y-18700000D01*
X53355000Y-16860000D02*
X49515000Y-16860000D01*
X53355000Y-18700000D02*
X53355000Y-16860000D01*
X54305000Y-17780000D02*
X53355000Y-17780000D01*
%TO.C,R5*%
X113665000Y-57480000D02*
X113665000Y-56530000D01*
X112745000Y-56530000D02*
X114585000Y-56530000D01*
X114585000Y-56530000D02*
X114585000Y-52690000D01*
X112745000Y-52690000D02*
X112745000Y-56530000D01*
X114585000Y-52690000D02*
X112745000Y-52690000D01*
X113665000Y-51740000D02*
X113665000Y-52690000D01*
%TO.C,G\u002A\u002A\u002A*%
G36*
X24708639Y-59235355D02*
G01*
X24708639Y-59464556D01*
X24678580Y-59464556D01*
X24648521Y-59464556D01*
X24648521Y-59235355D01*
X24648521Y-59006154D01*
X24678580Y-59006154D01*
X24708639Y-59006154D01*
X24708639Y-59235355D01*
G37*
G36*
X29724763Y-59754916D02*
G01*
X29734651Y-59760250D01*
X29736035Y-59762195D01*
X29729899Y-59764822D01*
X29724763Y-59765148D01*
X29714761Y-59761215D01*
X29713491Y-59757869D01*
X29718999Y-59753734D01*
X29724763Y-59754916D01*
G37*
G36*
X25475150Y-59135141D02*
G01*
X25430059Y-59264993D01*
X25430059Y-59364775D01*
X25430059Y-59464556D01*
X25400000Y-59464556D01*
X25369941Y-59464556D01*
X25369911Y-59372500D01*
X25369881Y-59280444D01*
X25325436Y-59156450D01*
X25310592Y-59115111D01*
X25297220Y-59078008D01*
X25286264Y-59047748D01*
X25278665Y-59026937D01*
X25275632Y-59018825D01*
X25274011Y-59010398D01*
X25280271Y-59007000D01*
X25297641Y-59007246D01*
X25301950Y-59007552D01*
X25333628Y-59009911D01*
X25364881Y-59106923D01*
X25396134Y-59203935D01*
X25427186Y-59106923D01*
X25458237Y-59009911D01*
X25489239Y-59007601D01*
X25520240Y-59005290D01*
X25475150Y-59135141D01*
G37*
G36*
X29651700Y-59782919D02*
G01*
X29673773Y-59800924D01*
X29688774Y-59806264D01*
X29696290Y-59798990D01*
X29695910Y-59779153D01*
X29695594Y-59777388D01*
X29693345Y-59762391D01*
X29695466Y-59760251D01*
X29701308Y-59767036D01*
X29707844Y-59784438D01*
X29707814Y-59798974D01*
X29701203Y-59813394D01*
X29686068Y-59817726D01*
X29684059Y-59817752D01*
X29665545Y-59814574D01*
X29654876Y-59808734D01*
X29647588Y-59804329D01*
X29645858Y-59812491D01*
X29642222Y-59823421D01*
X29638343Y-59825266D01*
X29631520Y-59819251D01*
X29630828Y-59814934D01*
X29629503Y-59800720D01*
X29626292Y-59780400D01*
X29626077Y-59779238D01*
X29621325Y-59753876D01*
X29651700Y-59782919D01*
G37*
G36*
X29691959Y-59635139D02*
G01*
X29696060Y-59645924D01*
X29688133Y-59663313D01*
X29670671Y-59677743D01*
X29647148Y-59682913D01*
X29623768Y-59678247D01*
X29612243Y-59670341D01*
X29603624Y-59657569D01*
X29626644Y-59657569D01*
X29630902Y-59663787D01*
X29640799Y-59673111D01*
X29650930Y-59672914D01*
X29666730Y-59663272D01*
X29680771Y-59650844D01*
X29681190Y-59643474D01*
X29668166Y-59642095D01*
X29662766Y-59642806D01*
X29638969Y-59647232D01*
X29627725Y-59651629D01*
X29626644Y-59657569D01*
X29603624Y-59657569D01*
X29603141Y-59656853D01*
X29607066Y-59646591D01*
X29624751Y-59638748D01*
X29644948Y-59634397D01*
X29675040Y-59631376D01*
X29691959Y-59635139D01*
G37*
G36*
X29697925Y-59834009D02*
G01*
X29710887Y-59842948D01*
X29716543Y-59849930D01*
X29719504Y-59864791D01*
X29708849Y-59876047D01*
X29690013Y-59881652D01*
X29668526Y-59885945D01*
X29656605Y-59889131D01*
X29638775Y-59888184D01*
X29631562Y-59882511D01*
X29625715Y-59869879D01*
X29625035Y-59856445D01*
X29629038Y-59847845D01*
X29634545Y-59847811D01*
X29641326Y-59857769D01*
X29641957Y-59862193D01*
X29647726Y-59873819D01*
X29651494Y-59875971D01*
X29659189Y-59872610D01*
X29660887Y-59864719D01*
X29663700Y-59848562D01*
X29671771Y-59846462D01*
X29683148Y-59856841D01*
X29696207Y-59867289D01*
X29705249Y-59867047D01*
X29709571Y-59859732D01*
X29702325Y-59847685D01*
X29700830Y-59845967D01*
X29693050Y-59835402D01*
X29696605Y-59833627D01*
X29697925Y-59834009D01*
G37*
G36*
X29706116Y-59691347D02*
G01*
X29712107Y-59695148D01*
X29713471Y-59703537D01*
X29713491Y-59706546D01*
X29709932Y-59724425D01*
X29704473Y-59733586D01*
X29687385Y-59741882D01*
X29668194Y-59739925D01*
X29653921Y-59728542D01*
X29653373Y-59727574D01*
X29638853Y-59715075D01*
X29637702Y-59714860D01*
X29666098Y-59714860D01*
X29668852Y-59720900D01*
X29679575Y-59733507D01*
X29690410Y-59731120D01*
X29698806Y-59719416D01*
X29704661Y-59705687D01*
X29700685Y-59700656D01*
X29684717Y-59702217D01*
X29681739Y-59702777D01*
X29667788Y-59707168D01*
X29666098Y-59714860D01*
X29637702Y-59714860D01*
X29625304Y-59712545D01*
X29611178Y-59711205D01*
X29609762Y-59707798D01*
X29619039Y-59703243D01*
X29636987Y-59698460D01*
X29661589Y-59694368D01*
X29666524Y-59693780D01*
X29692065Y-59691202D01*
X29706116Y-59691347D01*
G37*
G36*
X25106923Y-59200036D02*
G01*
X25107149Y-59265105D01*
X25107859Y-59316245D01*
X25109102Y-59354549D01*
X25110926Y-59381110D01*
X25113379Y-59397021D01*
X25115941Y-59402935D01*
X25129118Y-59409010D01*
X25149380Y-59411912D01*
X25152012Y-59411953D01*
X25172603Y-59409585D01*
X25187095Y-59403798D01*
X25188083Y-59402935D01*
X25191099Y-59395063D01*
X25193444Y-59377453D01*
X25195168Y-59349012D01*
X25196319Y-59308645D01*
X25196945Y-59255260D01*
X25197100Y-59200036D01*
X25197100Y-59006154D01*
X25227500Y-59006154D01*
X25257899Y-59006154D01*
X25255680Y-59212678D01*
X25253461Y-59419202D01*
X25229399Y-59443252D01*
X25212614Y-59457743D01*
X25195357Y-59465585D01*
X25171317Y-59469268D01*
X25161766Y-59469938D01*
X25122616Y-59468910D01*
X25094306Y-59460370D01*
X25080945Y-59452698D01*
X25070345Y-59443703D01*
X25062188Y-59431662D01*
X25056158Y-59414851D01*
X25051937Y-59391549D01*
X25049208Y-59360032D01*
X25047655Y-59318578D01*
X25046959Y-59265465D01*
X25046805Y-59202282D01*
X25046805Y-59006154D01*
X25076864Y-59006154D01*
X25106923Y-59006154D01*
X25106923Y-59200036D01*
G37*
G36*
X25664572Y-59007520D02*
G01*
X25690651Y-59009911D01*
X25657911Y-59126391D01*
X25645424Y-59170802D01*
X25633105Y-59214594D01*
X25622090Y-59253728D01*
X25613515Y-59284169D01*
X25610856Y-59293595D01*
X25596543Y-59344320D01*
X25637295Y-59344320D01*
X25678047Y-59344320D01*
X25678047Y-59269172D01*
X25678047Y-59194024D01*
X25708106Y-59194024D01*
X25738166Y-59194024D01*
X25738166Y-59269172D01*
X25738166Y-59344320D01*
X25756953Y-59344320D01*
X25769657Y-59346285D01*
X25774859Y-59355128D01*
X25775740Y-59370621D01*
X25774336Y-59388408D01*
X25768019Y-59395690D01*
X25756953Y-59396923D01*
X25745360Y-59398325D01*
X25739867Y-59405214D01*
X25738237Y-59421619D01*
X25738166Y-59430740D01*
X25738166Y-59464556D01*
X25708106Y-59464556D01*
X25678047Y-59464556D01*
X25678047Y-59430740D01*
X25678047Y-59396923D01*
X25602899Y-59396923D01*
X25527751Y-59396923D01*
X25527751Y-59377687D01*
X25529777Y-59365546D01*
X25535384Y-59341872D01*
X25543868Y-59309122D01*
X25554524Y-59269753D01*
X25566648Y-59226224D01*
X25579534Y-59180993D01*
X25592479Y-59136516D01*
X25604777Y-59095251D01*
X25615725Y-59059655D01*
X25624616Y-59032188D01*
X25630748Y-59015305D01*
X25632809Y-59011277D01*
X25643494Y-59007762D01*
X25662073Y-59007321D01*
X25664572Y-59007520D01*
G37*
G36*
X25955163Y-59010979D02*
G01*
X25984884Y-59025795D01*
X26004337Y-59051114D01*
X26013938Y-59087448D01*
X26014520Y-59129637D01*
X26011890Y-59154891D01*
X26006806Y-59179037D01*
X25998215Y-59204575D01*
X25985065Y-59234006D01*
X25966304Y-59269829D01*
X25940880Y-59314543D01*
X25926092Y-59339744D01*
X25910103Y-59367220D01*
X25897488Y-59389667D01*
X25889907Y-59404091D01*
X25888461Y-59407703D01*
X25895400Y-59409624D01*
X25913917Y-59411092D01*
X25940561Y-59411880D01*
X25952337Y-59411953D01*
X26016213Y-59411953D01*
X26016213Y-59438255D01*
X26016213Y-59464556D01*
X25914763Y-59464556D01*
X25813314Y-59464556D01*
X25813314Y-59437701D01*
X25815784Y-59421809D01*
X25823782Y-59400045D01*
X25838191Y-59370479D01*
X25859893Y-59331184D01*
X25870188Y-59313381D01*
X25898751Y-59263905D01*
X25920304Y-59225034D01*
X25935790Y-59194622D01*
X25946151Y-59170521D01*
X25952331Y-59150584D01*
X25955273Y-59132663D01*
X25955930Y-59118162D01*
X25951684Y-59088387D01*
X25939628Y-59067871D01*
X25921267Y-59058952D01*
X25917722Y-59058758D01*
X25896437Y-59065662D01*
X25879092Y-59083956D01*
X25869040Y-59110011D01*
X25868737Y-59111771D01*
X25864744Y-59130774D01*
X25857627Y-59139207D01*
X25842344Y-59141358D01*
X25833876Y-59141420D01*
X25803756Y-59141420D01*
X25808409Y-59107474D01*
X25819055Y-59064370D01*
X25837895Y-59033625D01*
X25865633Y-59014568D01*
X25902976Y-59006525D01*
X25914763Y-59006154D01*
X25955163Y-59010979D01*
G37*
G36*
X26175126Y-59007689D02*
G01*
X26211536Y-59013881D01*
X26236900Y-59027807D01*
X26253805Y-59051782D01*
X26264792Y-59087905D01*
X26270107Y-59122201D01*
X26270905Y-59155655D01*
X26266654Y-59190995D01*
X26256819Y-59230950D01*
X26240868Y-59278246D01*
X26218268Y-59335613D01*
X26214707Y-59344209D01*
X26164627Y-59464556D01*
X26132135Y-59464556D01*
X26099643Y-59464556D01*
X26109929Y-59440133D01*
X26117624Y-59421999D01*
X26129172Y-59394941D01*
X26142487Y-59363845D01*
X26147120Y-59353047D01*
X26158974Y-59325119D01*
X26168162Y-59302866D01*
X26173348Y-59289554D01*
X26174024Y-59287293D01*
X26167566Y-59284977D01*
X26154995Y-59284201D01*
X26124027Y-59278722D01*
X26095597Y-59264317D01*
X26075364Y-59244034D01*
X26073073Y-59240078D01*
X26066154Y-59217367D01*
X26062086Y-59184772D01*
X26060856Y-59147164D01*
X26060955Y-59144812D01*
X26117663Y-59144812D01*
X26119289Y-59181057D01*
X26125034Y-59204784D01*
X26136194Y-59218236D01*
X26154068Y-59223659D01*
X26163498Y-59224083D01*
X26185809Y-59219895D01*
X26200983Y-59205346D01*
X26201001Y-59205319D01*
X26208272Y-59185536D01*
X26211479Y-59158073D01*
X26210907Y-59127732D01*
X26206839Y-59099317D01*
X26199558Y-59077631D01*
X26192961Y-59069211D01*
X26168982Y-59059499D01*
X26145547Y-59063949D01*
X26131978Y-59074576D01*
X26123957Y-59087001D01*
X26119500Y-59104722D01*
X26117775Y-59131819D01*
X26117663Y-59144812D01*
X26060955Y-59144812D01*
X26062450Y-59109414D01*
X26066855Y-59076391D01*
X26073587Y-59053926D01*
X26092277Y-59027784D01*
X26119235Y-59012397D01*
X26155994Y-59007068D01*
X26175126Y-59007689D01*
G37*
G36*
X24521904Y-59010242D02*
G01*
X24548629Y-59018639D01*
X24559099Y-59025400D01*
X24579533Y-59052195D01*
X24592569Y-59086877D01*
X24595917Y-59114877D01*
X24595021Y-59131871D01*
X24589444Y-59139423D01*
X24574853Y-59141360D01*
X24565858Y-59141420D01*
X24546612Y-59140624D01*
X24538059Y-59135708D01*
X24535866Y-59122880D01*
X24535799Y-59115119D01*
X24530311Y-59089303D01*
X24516007Y-59069345D01*
X24496128Y-59059265D01*
X24490368Y-59058758D01*
X24474693Y-59063853D01*
X24457561Y-59076216D01*
X24456552Y-59077203D01*
X24450137Y-59084017D01*
X24445415Y-59091269D01*
X24442124Y-59101217D01*
X24440008Y-59116116D01*
X24438807Y-59138223D01*
X24438261Y-59169793D01*
X24438113Y-59213084D01*
X24438106Y-59237938D01*
X24438246Y-59288402D01*
X24438789Y-59326059D01*
X24439928Y-59353129D01*
X24441852Y-59371833D01*
X24444749Y-59384392D01*
X24448812Y-59393026D01*
X24451711Y-59397030D01*
X24471314Y-59411840D01*
X24492938Y-59414226D01*
X24513155Y-59405773D01*
X24528537Y-59388063D01*
X24535655Y-59362682D01*
X24535799Y-59358185D01*
X24536573Y-59339689D01*
X24541788Y-59331471D01*
X24555781Y-59329359D01*
X24565858Y-59329290D01*
X24595917Y-59329290D01*
X24595905Y-59361228D01*
X24590001Y-59400348D01*
X24573489Y-59433122D01*
X24548126Y-59456287D01*
X24543314Y-59458909D01*
X24512556Y-59468575D01*
X24477548Y-59471261D01*
X24446067Y-59466518D01*
X24441251Y-59464790D01*
X24418475Y-59448903D01*
X24398391Y-59423262D01*
X24384671Y-59393111D01*
X24381570Y-59379588D01*
X24380121Y-59361486D01*
X24379139Y-59331553D01*
X24378669Y-59292983D01*
X24378754Y-59248968D01*
X24379244Y-59212420D01*
X24380713Y-59156405D01*
X24383137Y-59113312D01*
X24387084Y-59081036D01*
X24393118Y-59057477D01*
X24401808Y-59040529D01*
X24413718Y-59028090D01*
X24429416Y-59018057D01*
X24431924Y-59016737D01*
X24457835Y-59008902D01*
X24489734Y-59006866D01*
X24521904Y-59010242D01*
G37*
G36*
X26742949Y-54725746D02*
G01*
X26751160Y-54731740D01*
X26758359Y-54748843D01*
X26758234Y-54776690D01*
X26751330Y-54813224D01*
X26738194Y-54856384D01*
X26719372Y-54904114D01*
X26695410Y-54954352D01*
X26688740Y-54966953D01*
X26677399Y-54987868D01*
X26660456Y-55019013D01*
X26639521Y-55057431D01*
X26616206Y-55100165D01*
X26592121Y-55144260D01*
X26591606Y-55145201D01*
X26551576Y-55220056D01*
X26509767Y-55301144D01*
X26467833Y-55385072D01*
X26427426Y-55468449D01*
X26390199Y-55547881D01*
X26357804Y-55619978D01*
X26339800Y-55662071D01*
X26322048Y-55703815D01*
X26303034Y-55747102D01*
X26285095Y-55786687D01*
X26271160Y-55816124D01*
X26257958Y-55843918D01*
X26247808Y-55866987D01*
X26242250Y-55881751D01*
X26241657Y-55884634D01*
X26238940Y-55895854D01*
X26231962Y-55915693D01*
X26225813Y-55931150D01*
X26213996Y-55954793D01*
X26199918Y-55971194D01*
X26181494Y-55980704D01*
X26156642Y-55983676D01*
X26123279Y-55980464D01*
X26079323Y-55971418D01*
X26042515Y-55962167D01*
X25971010Y-55944252D01*
X25889708Y-55925298D01*
X25803681Y-55906426D01*
X25718007Y-55888755D01*
X25653770Y-55876356D01*
X25612984Y-55868426D01*
X25584176Y-55861769D01*
X25564461Y-55855421D01*
X25550955Y-55848421D01*
X25540774Y-55839807D01*
X25539170Y-55838116D01*
X25526455Y-55820167D01*
X25520334Y-55803213D01*
X25520237Y-55801457D01*
X25525546Y-55782909D01*
X25539468Y-55759434D01*
X25558996Y-55735635D01*
X25570481Y-55724560D01*
X25579976Y-55715127D01*
X25597845Y-55696365D01*
X25622389Y-55670096D01*
X25651906Y-55638147D01*
X25684697Y-55602340D01*
X25698734Y-55586923D01*
X25790980Y-55487887D01*
X25886494Y-55389954D01*
X25983982Y-55294251D01*
X26082147Y-55201902D01*
X26179695Y-55114033D01*
X26275329Y-55031769D01*
X26367755Y-54956234D01*
X26455676Y-54888555D01*
X26537796Y-54829855D01*
X26612821Y-54781260D01*
X26654006Y-54757359D01*
X26688859Y-54738892D01*
X26713615Y-54727912D01*
X26730803Y-54723752D01*
X26742949Y-54725746D01*
G37*
G36*
X24253577Y-59008563D02*
G01*
X24278141Y-59016312D01*
X24301332Y-59036174D01*
X24317668Y-59066244D01*
X24325132Y-59102501D01*
X24325385Y-59110618D01*
X24325385Y-59141420D01*
X24295325Y-59141420D01*
X24276085Y-59140690D01*
X24267536Y-59135646D01*
X24265338Y-59122013D01*
X24265266Y-59111787D01*
X24259426Y-59083942D01*
X24242469Y-59066023D01*
X24215244Y-59058856D01*
X24210991Y-59058758D01*
X24185724Y-59065226D01*
X24168432Y-59083544D01*
X24160447Y-59112077D01*
X24160059Y-59121216D01*
X24162376Y-59144238D01*
X24170773Y-59163083D01*
X24187419Y-59180145D01*
X24214484Y-59197818D01*
X24243349Y-59213127D01*
X24278672Y-59232984D01*
X24302332Y-59252817D01*
X24316532Y-59276303D01*
X24323472Y-59307117D01*
X24325355Y-59348936D01*
X24325356Y-59350066D01*
X24325051Y-59381029D01*
X24323264Y-59401422D01*
X24318736Y-59415702D01*
X24310212Y-59428328D01*
X24300043Y-59439826D01*
X24284705Y-59455191D01*
X24270708Y-59463815D01*
X24252466Y-59467989D01*
X24226773Y-59469888D01*
X24187811Y-59469129D01*
X24158373Y-59462908D01*
X24154909Y-59461479D01*
X24129434Y-59441807D01*
X24111660Y-59409501D01*
X24102551Y-59370751D01*
X24097898Y-59336805D01*
X24128978Y-59336805D01*
X24148685Y-59337646D01*
X24157611Y-59342140D01*
X24159989Y-59353244D01*
X24160059Y-59358517D01*
X24166469Y-59386495D01*
X24184043Y-59406081D01*
X24210299Y-59414752D01*
X24215559Y-59414959D01*
X24242117Y-59410904D01*
X24258946Y-59397628D01*
X24267387Y-59373466D01*
X24269024Y-59348598D01*
X24267384Y-59322890D01*
X24260953Y-59302972D01*
X24247462Y-59286040D01*
X24224643Y-59269291D01*
X24190227Y-59249923D01*
X24188363Y-59248941D01*
X24161153Y-59232914D01*
X24137654Y-59216016D01*
X24122633Y-59201703D01*
X24121921Y-59200746D01*
X24107486Y-59169602D01*
X24101624Y-59132234D01*
X24104003Y-59093393D01*
X24114287Y-59057828D01*
X24132143Y-59030290D01*
X24134039Y-59028434D01*
X24155567Y-59016271D01*
X24186227Y-59008605D01*
X24220678Y-59005886D01*
X24253577Y-59008563D01*
G37*
G36*
X24909924Y-59007228D02*
G01*
X24927941Y-59011824D01*
X24944053Y-59022360D01*
X24954138Y-59031218D01*
X24970573Y-59048199D01*
X24979502Y-59064666D01*
X24983896Y-59087123D01*
X24985017Y-59098851D01*
X24988547Y-59141420D01*
X24957558Y-59141420D01*
X24937919Y-59140659D01*
X24929041Y-59136094D01*
X24926658Y-59124298D01*
X24926568Y-59116536D01*
X24920956Y-59090088D01*
X24906404Y-59070842D01*
X24886337Y-59060604D01*
X24864178Y-59061178D01*
X24844447Y-59073245D01*
X24835750Y-59085201D01*
X24829362Y-59102496D01*
X24825068Y-59127037D01*
X24822653Y-59160735D01*
X24821902Y-59205497D01*
X24822599Y-59263235D01*
X24822669Y-59266528D01*
X24824225Y-59316914D01*
X24826943Y-59354207D01*
X24831615Y-59380341D01*
X24839031Y-59397248D01*
X24849984Y-59406861D01*
X24865264Y-59411112D01*
X24882218Y-59411953D01*
X24905079Y-59408785D01*
X24920485Y-59397955D01*
X24929609Y-59377470D01*
X24933624Y-59345337D01*
X24934083Y-59323861D01*
X24934083Y-59269172D01*
X24904024Y-59269172D01*
X24884778Y-59268376D01*
X24876225Y-59263459D01*
X24874032Y-59250631D01*
X24873964Y-59242870D01*
X24873964Y-59216568D01*
X24934855Y-59216568D01*
X24995747Y-59216568D01*
X24993095Y-59308965D01*
X24991026Y-59355236D01*
X24987191Y-59389334D01*
X24980563Y-59414098D01*
X24970112Y-59432365D01*
X24954809Y-59446974D01*
X24939311Y-59457372D01*
X24908869Y-59468586D01*
X24872231Y-59471337D01*
X24835752Y-59465428D01*
X24823388Y-59460930D01*
X24802809Y-59447079D01*
X24785204Y-59427477D01*
X24783963Y-59425529D01*
X24778937Y-59416257D01*
X24775159Y-59405715D01*
X24772450Y-59391732D01*
X24770636Y-59372134D01*
X24769540Y-59344750D01*
X24768986Y-59307406D01*
X24768797Y-59257931D01*
X24768785Y-59238345D01*
X24768840Y-59184778D01*
X24769156Y-59144067D01*
X24769932Y-59114036D01*
X24771366Y-59092512D01*
X24773656Y-59077321D01*
X24777001Y-59066287D01*
X24781597Y-59057238D01*
X24785891Y-59050585D01*
X24806020Y-59027102D01*
X24830173Y-59013193D01*
X24862391Y-59007024D01*
X24883468Y-59006265D01*
X24909924Y-59007228D01*
G37*
G36*
X28282376Y-57388721D02*
G01*
X28313613Y-57403295D01*
X28349854Y-57428042D01*
X28370034Y-57443815D01*
X28394921Y-57465120D01*
X28420839Y-57490183D01*
X28449033Y-57520450D01*
X28480746Y-57557369D01*
X28517224Y-57602389D01*
X28559709Y-57656955D01*
X28608401Y-57721124D01*
X28745572Y-57907597D01*
X28871437Y-58087293D01*
X28987103Y-58261909D01*
X29093675Y-58433145D01*
X29192261Y-58602698D01*
X29243274Y-58695468D01*
X29339280Y-58886045D01*
X29421307Y-59075395D01*
X29489232Y-59263121D01*
X29542932Y-59448825D01*
X29582284Y-59632111D01*
X29607163Y-59812581D01*
X29613128Y-59885301D01*
X29618050Y-59960411D01*
X29652620Y-59982514D01*
X29678408Y-59996433D01*
X29711146Y-60010672D01*
X29739793Y-60020849D01*
X29837330Y-60052478D01*
X29922127Y-60083411D01*
X29996383Y-60114590D01*
X30062299Y-60146955D01*
X30122075Y-60181444D01*
X30135292Y-60189845D01*
X30213182Y-60243941D01*
X30285053Y-60301197D01*
X30349174Y-60359936D01*
X30403812Y-60418480D01*
X30447234Y-60475151D01*
X30471316Y-60515258D01*
X30495531Y-60563548D01*
X30511614Y-60600588D01*
X30519585Y-60627752D01*
X30519465Y-60646417D01*
X30511273Y-60657959D01*
X30495031Y-60663752D01*
X30473546Y-60665189D01*
X30439868Y-60667621D01*
X30405642Y-60675744D01*
X30366659Y-60690803D01*
X30333461Y-60706548D01*
X30313864Y-60717884D01*
X30291373Y-60734140D01*
X30264373Y-60756701D01*
X30231245Y-60786952D01*
X30190372Y-60826281D01*
X30168136Y-60848185D01*
X30089126Y-60923247D01*
X30010263Y-60992015D01*
X29933769Y-61052689D01*
X29861864Y-61103465D01*
X29824824Y-61126672D01*
X29760542Y-61160493D01*
X29698949Y-61184451D01*
X29641381Y-61198457D01*
X29589177Y-61202422D01*
X29543672Y-61196256D01*
X29506204Y-61179869D01*
X29478111Y-61153172D01*
X29475906Y-61149989D01*
X29459809Y-61125806D01*
X29456499Y-61165721D01*
X29450289Y-61196360D01*
X29437935Y-61228420D01*
X29421786Y-61257405D01*
X29404185Y-61278812D01*
X29393646Y-61286272D01*
X29382686Y-61295257D01*
X29366081Y-61313241D01*
X29346806Y-61336911D01*
X29339725Y-61346270D01*
X29315629Y-61377413D01*
X29286049Y-61413086D01*
X29250272Y-61454059D01*
X29207583Y-61501099D01*
X29157269Y-61554976D01*
X29098616Y-61616457D01*
X29030911Y-61686310D01*
X28953440Y-61765304D01*
X28903772Y-61815590D01*
X28853214Y-61866388D01*
X28806838Y-61912442D01*
X28765597Y-61952842D01*
X28730439Y-61986680D01*
X28702316Y-62013048D01*
X28682178Y-62031037D01*
X28670976Y-62039739D01*
X28668935Y-62040044D01*
X28670367Y-62030360D01*
X28674929Y-62015084D01*
X28683018Y-61993318D01*
X28695031Y-61964168D01*
X28711365Y-61926737D01*
X28732419Y-61880129D01*
X28758589Y-61823448D01*
X28790273Y-61755797D01*
X28827868Y-61676281D01*
X28862946Y-61602515D01*
X28885264Y-61554625D01*
X28906867Y-61506359D01*
X28926292Y-61461131D01*
X28942074Y-61422351D01*
X28952751Y-61393433D01*
X28953193Y-61392101D01*
X28964655Y-61358489D01*
X28979709Y-61316168D01*
X28996447Y-61270414D01*
X29012964Y-61226505D01*
X29013882Y-61224109D01*
X29056575Y-61106536D01*
X29090418Y-60999289D01*
X29115804Y-60900841D01*
X29133130Y-60809669D01*
X29142585Y-60727042D01*
X29145805Y-60685192D01*
X29149196Y-60643358D01*
X29152325Y-60606769D01*
X29154483Y-60583404D01*
X29159379Y-60533702D01*
X29010114Y-60335416D01*
X28966283Y-60277812D01*
X28915581Y-60212217D01*
X28860788Y-60142161D01*
X28804683Y-60071176D01*
X28750046Y-60002792D01*
X28699658Y-59940541D01*
X28688507Y-59926907D01*
X28645496Y-59874443D01*
X28602564Y-59822079D01*
X28561371Y-59771840D01*
X28523577Y-59725749D01*
X28490844Y-59685833D01*
X28464831Y-59654115D01*
X28451648Y-59638043D01*
X28406866Y-59584255D01*
X28367538Y-59539072D01*
X28330292Y-59498931D01*
X28291759Y-59460270D01*
X28248567Y-59419526D01*
X28221805Y-59395120D01*
X28147783Y-59331133D01*
X28066638Y-59266173D01*
X27981392Y-59202380D01*
X27895070Y-59141896D01*
X27810696Y-59086864D01*
X27731292Y-59039425D01*
X27681912Y-59012715D01*
X27612471Y-58971045D01*
X27556963Y-58924353D01*
X27515007Y-58872191D01*
X27486220Y-58814114D01*
X27473647Y-58769438D01*
X27469468Y-58746926D01*
X27468360Y-58729731D01*
X27471058Y-58712963D01*
X27478300Y-58691732D01*
X27489460Y-58664410D01*
X27501657Y-58638207D01*
X27519991Y-58602662D01*
X27542618Y-58561169D01*
X27567694Y-58517121D01*
X27589502Y-58480298D01*
X27611488Y-58442673D01*
X27636106Y-58398107D01*
X27663869Y-58345589D01*
X27695286Y-58284110D01*
X27730868Y-58212658D01*
X27771126Y-58130225D01*
X27816571Y-58035800D01*
X27853731Y-57957840D01*
X27888742Y-57884177D01*
X27922360Y-57813516D01*
X27953938Y-57747215D01*
X27982827Y-57686630D01*
X28008381Y-57633117D01*
X28029950Y-57588034D01*
X28046889Y-57552737D01*
X28058548Y-57528583D01*
X28063623Y-57518225D01*
X28094440Y-57469260D01*
X28132206Y-57430008D01*
X28174567Y-57402780D01*
X28186148Y-57397916D01*
X28221896Y-57386843D01*
X28252888Y-57383507D01*
X28282376Y-57388721D01*
G37*
G36*
X25166236Y-55876414D02*
G01*
X25238723Y-55877227D01*
X25307105Y-55878497D01*
X25369257Y-55880224D01*
X25423055Y-55882410D01*
X25466372Y-55885054D01*
X25478905Y-55886110D01*
X25576991Y-55896488D01*
X25661533Y-55908415D01*
X25733982Y-55922410D01*
X25795788Y-55938992D01*
X25848402Y-55958680D01*
X25893274Y-55981992D01*
X25931854Y-56009449D01*
X25965595Y-56041568D01*
X25987990Y-56068242D01*
X26022965Y-56120647D01*
X26047913Y-56175479D01*
X26064127Y-56236434D01*
X26072899Y-56307208D01*
X26073234Y-56312101D01*
X26075155Y-56350395D01*
X26074711Y-56379455D01*
X26071397Y-56404959D01*
X26064708Y-56432587D01*
X26061535Y-56443610D01*
X26039448Y-56503611D01*
X26011521Y-56551040D01*
X25976053Y-56587776D01*
X25931344Y-56615695D01*
X25890944Y-56631904D01*
X25863243Y-56640109D01*
X25838331Y-56644456D01*
X25810326Y-56645547D01*
X25773347Y-56643984D01*
X25773107Y-56643969D01*
X25659303Y-56635960D01*
X25560484Y-56626985D01*
X25476636Y-56617043D01*
X25441331Y-56611868D01*
X25392107Y-56605963D01*
X25332727Y-56601763D01*
X25267284Y-56599303D01*
X25199871Y-56598618D01*
X25134581Y-56599741D01*
X25075505Y-56602710D01*
X25026738Y-56607558D01*
X25021625Y-56608289D01*
X24951280Y-56624317D01*
X24891480Y-56650164D01*
X24840806Y-56686550D01*
X24814316Y-56713600D01*
X24794129Y-56738622D01*
X24776892Y-56763045D01*
X24766127Y-56781852D01*
X24765697Y-56782851D01*
X24756506Y-56812090D01*
X24749333Y-56851123D01*
X24744161Y-56900641D01*
X24740971Y-56961334D01*
X24739746Y-57033895D01*
X24740467Y-57119014D01*
X24743116Y-57217382D01*
X24747676Y-57329690D01*
X24750057Y-57379201D01*
X24753136Y-57441317D01*
X24756163Y-57503362D01*
X24759000Y-57562396D01*
X24761505Y-57615478D01*
X24763540Y-57659669D01*
X24764963Y-57692028D01*
X24765048Y-57694043D01*
X24769451Y-57759465D01*
X24777530Y-57812542D01*
X24790635Y-57855778D01*
X24810115Y-57891676D01*
X24837321Y-57922741D01*
X24873602Y-57951475D01*
X24919053Y-57979666D01*
X24934638Y-57987917D01*
X24949443Y-57993427D01*
X24967018Y-57996748D01*
X24990913Y-57998429D01*
X25024677Y-57999022D01*
X25044170Y-57999081D01*
X25097677Y-57997501D01*
X25161974Y-57992880D01*
X25233201Y-57985537D01*
X25280885Y-57979523D01*
X25332501Y-57972914D01*
X25385149Y-57966814D01*
X25434673Y-57961659D01*
X25476916Y-57957887D01*
X25503375Y-57956124D01*
X25540716Y-57954761D01*
X25567628Y-57955283D01*
X25588643Y-57958179D01*
X25608297Y-57963935D01*
X25620800Y-57968753D01*
X25647199Y-57981678D01*
X25670687Y-57996869D01*
X25680580Y-58005409D01*
X25702021Y-58036311D01*
X25718455Y-58079333D01*
X25730009Y-58135053D01*
X25736811Y-58204052D01*
X25738931Y-58270793D01*
X25739723Y-58365817D01*
X25708027Y-58438088D01*
X25691512Y-58473935D01*
X25676672Y-58500479D01*
X25660147Y-58522579D01*
X25638577Y-58545092D01*
X25625540Y-58557384D01*
X25574910Y-58597907D01*
X25514552Y-58635577D01*
X25500526Y-58643105D01*
X25468986Y-58659382D01*
X25441113Y-58673045D01*
X25415132Y-58684463D01*
X25389267Y-58694003D01*
X25361743Y-58702035D01*
X25330784Y-58708927D01*
X25294615Y-58715049D01*
X25251460Y-58720767D01*
X25199545Y-58726452D01*
X25137093Y-58732471D01*
X25062329Y-58739194D01*
X25019672Y-58742943D01*
X24963596Y-58747641D01*
X24905462Y-58752132D01*
X24849413Y-58756124D01*
X24799591Y-58759322D01*
X24760140Y-58761434D01*
X24756654Y-58761585D01*
X24714610Y-58763055D01*
X24683260Y-58763096D01*
X24658304Y-58761328D01*
X24635444Y-58757370D01*
X24610379Y-58750843D01*
X24599674Y-58747696D01*
X24566528Y-58737507D01*
X24534373Y-58727153D01*
X24509479Y-58718660D01*
X24506862Y-58717710D01*
X24462948Y-58694315D01*
X24420510Y-58657942D01*
X24381071Y-58610645D01*
X24346154Y-58554475D01*
X24317281Y-58491485D01*
X24299895Y-58438787D01*
X24289905Y-58403431D01*
X24280051Y-58370104D01*
X24271792Y-58343672D01*
X24268365Y-58333580D01*
X24262970Y-58314871D01*
X24255954Y-58285189D01*
X24248166Y-58248384D01*
X24240458Y-58208309D01*
X24239328Y-58202071D01*
X24226720Y-58132658D01*
X24211389Y-58049698D01*
X24193557Y-57954383D01*
X24173447Y-57847905D01*
X24156482Y-57758698D01*
X24149803Y-57721642D01*
X24141751Y-57673755D01*
X24132978Y-57619101D01*
X24124134Y-57561741D01*
X24115869Y-57505738D01*
X24114966Y-57499438D01*
X24097338Y-57380995D01*
X24080278Y-57276758D01*
X24063641Y-57185922D01*
X24047280Y-57107680D01*
X24034922Y-57056065D01*
X24026661Y-57020325D01*
X24017440Y-56974919D01*
X24008259Y-56925081D01*
X24000116Y-56876046D01*
X23998347Y-56864438D01*
X23991115Y-56816944D01*
X23983381Y-56767778D01*
X23975955Y-56721994D01*
X23969647Y-56684647D01*
X23968224Y-56676568D01*
X23962171Y-56630609D01*
X23958538Y-56576744D01*
X23957230Y-56518383D01*
X23958149Y-56458933D01*
X23961198Y-56401801D01*
X23966282Y-56350394D01*
X23973302Y-56308121D01*
X23979314Y-56285799D01*
X24004849Y-56222236D01*
X24035717Y-56167708D01*
X24073858Y-56120158D01*
X24121213Y-56077532D01*
X24179721Y-56037774D01*
X24249229Y-55999873D01*
X24300031Y-55976776D01*
X24355390Y-55956323D01*
X24417278Y-55938011D01*
X24487668Y-55921335D01*
X24568530Y-55905791D01*
X24661839Y-55890875D01*
X24693609Y-55886299D01*
X24722423Y-55883475D01*
X24764134Y-55881103D01*
X24816618Y-55879185D01*
X24877749Y-55877721D01*
X24945401Y-55876711D01*
X25017450Y-55876157D01*
X25091770Y-55876057D01*
X25166236Y-55876414D01*
G37*
G36*
X26562496Y-56222976D02*
G01*
X26617372Y-56230701D01*
X26679275Y-56244699D01*
X26748214Y-56264063D01*
X26804153Y-56281208D01*
X26851362Y-56296908D01*
X26893884Y-56312815D01*
X26935761Y-56330582D01*
X26981037Y-56351860D01*
X27033756Y-56378303D01*
X27057012Y-56390271D01*
X27175861Y-56454437D01*
X27285306Y-56519505D01*
X27390776Y-56588808D01*
X27459053Y-56637184D01*
X27536618Y-56694157D01*
X27602899Y-56744285D01*
X27659204Y-56788924D01*
X27706844Y-56829432D01*
X27747127Y-56867165D01*
X27781364Y-56903480D01*
X27810865Y-56939733D01*
X27836938Y-56977281D01*
X27860893Y-57017481D01*
X27884041Y-57061690D01*
X27899285Y-57093241D01*
X27934310Y-57181106D01*
X27955102Y-57265753D01*
X27961646Y-57346861D01*
X27953926Y-57424109D01*
X27931929Y-57497174D01*
X27919510Y-57524400D01*
X27906020Y-57547611D01*
X27892224Y-57565665D01*
X27884016Y-57572755D01*
X27868572Y-57577221D01*
X27843890Y-57580430D01*
X27819763Y-57581578D01*
X27798800Y-57581499D01*
X27782118Y-57579886D01*
X27766786Y-57575356D01*
X27749872Y-57566525D01*
X27728445Y-57552011D01*
X27699576Y-57530430D01*
X27680552Y-57515883D01*
X27658346Y-57499597D01*
X27627957Y-57478345D01*
X27591410Y-57453442D01*
X27550729Y-57426207D01*
X27507939Y-57397959D01*
X27465064Y-57370015D01*
X27424130Y-57343693D01*
X27387160Y-57320311D01*
X27356179Y-57301188D01*
X27333212Y-57287640D01*
X27320283Y-57280987D01*
X27319173Y-57280623D01*
X27299588Y-57277529D01*
X27283029Y-57280085D01*
X27268189Y-57289827D01*
X27253761Y-57308293D01*
X27238435Y-57337021D01*
X27220903Y-57377548D01*
X27207200Y-57412257D01*
X27196831Y-57438536D01*
X27181904Y-57475597D01*
X27163676Y-57520357D01*
X27143403Y-57569739D01*
X27122340Y-57620663D01*
X27114614Y-57639242D01*
X27083669Y-57714412D01*
X27058499Y-57777708D01*
X27038522Y-57830880D01*
X27023159Y-57875673D01*
X27011830Y-57913835D01*
X27003954Y-57947115D01*
X26998951Y-57977258D01*
X26997256Y-57992672D01*
X26995485Y-58033154D01*
X26998933Y-58067685D01*
X27008758Y-58097149D01*
X27026115Y-58122427D01*
X27052159Y-58144401D01*
X27088047Y-58163953D01*
X27134934Y-58181965D01*
X27193978Y-58199320D01*
X27266332Y-58216899D01*
X27301243Y-58224620D01*
X27336316Y-58232898D01*
X27371025Y-58242227D01*
X27398791Y-58250819D01*
X27402692Y-58252203D01*
X27425289Y-58261902D01*
X27440444Y-58273637D01*
X27453188Y-58292122D01*
X27460932Y-58306754D01*
X27472229Y-58332563D01*
X27479735Y-58356434D01*
X27481598Y-58368975D01*
X27477571Y-58386451D01*
X27466724Y-58412672D01*
X27450908Y-58444106D01*
X27431972Y-58477221D01*
X27411767Y-58508485D01*
X27400150Y-58524439D01*
X27384094Y-58546561D01*
X27365494Y-58573958D01*
X27354742Y-58590624D01*
X27337010Y-58616410D01*
X27317896Y-58640574D01*
X27307165Y-58652229D01*
X27272509Y-58679141D01*
X27227403Y-58703889D01*
X27176424Y-58724334D01*
X27124151Y-58738337D01*
X27121936Y-58738764D01*
X27086186Y-58744569D01*
X27051221Y-58748594D01*
X27020472Y-58750620D01*
X26997369Y-58750431D01*
X26985342Y-58747807D01*
X26984950Y-58747475D01*
X26975840Y-58745175D01*
X26953094Y-58742039D01*
X26918078Y-58738196D01*
X26872152Y-58733775D01*
X26816683Y-58728906D01*
X26753032Y-58723718D01*
X26682563Y-58718341D01*
X26662485Y-58716869D01*
X26546280Y-58708327D01*
X26444120Y-58700598D01*
X26355049Y-58693584D01*
X26278109Y-58687189D01*
X26212344Y-58681315D01*
X26156797Y-58675865D01*
X26110511Y-58670744D01*
X26072529Y-58665852D01*
X26041895Y-58661094D01*
X26017652Y-58656373D01*
X25998842Y-58651592D01*
X25989911Y-58648705D01*
X25944304Y-58626526D01*
X25900683Y-58594551D01*
X25862979Y-58556334D01*
X25835125Y-58515429D01*
X25829493Y-58503671D01*
X25813920Y-58461570D01*
X25804588Y-58420153D01*
X25801238Y-58375771D01*
X25803606Y-58324777D01*
X25811431Y-58263521D01*
X25812006Y-58259837D01*
X25822187Y-58202583D01*
X25832915Y-58158404D01*
X25844859Y-58125343D01*
X25858690Y-58101445D01*
X25870754Y-58088314D01*
X25902917Y-58066313D01*
X25945902Y-58046132D01*
X25995503Y-58029418D01*
X26047515Y-58017816D01*
X26053170Y-58016928D01*
X26134374Y-58002194D01*
X26210621Y-57983420D01*
X26278602Y-57961540D01*
X26335011Y-57937490D01*
X26336537Y-57936721D01*
X26372159Y-57912470D01*
X26408731Y-57876399D01*
X26443819Y-57831334D01*
X26474992Y-57780098D01*
X26480357Y-57769727D01*
X26501198Y-57725503D01*
X26524766Y-57670818D01*
X26550115Y-57608289D01*
X26576300Y-57540532D01*
X26602377Y-57470164D01*
X26627400Y-57399801D01*
X26650425Y-57332060D01*
X26670506Y-57269557D01*
X26686698Y-57214909D01*
X26698057Y-57170732D01*
X26700105Y-57161272D01*
X26707316Y-57130249D01*
X26715782Y-57099578D01*
X26720717Y-57084348D01*
X26728552Y-57044550D01*
X26727031Y-57014438D01*
X26718254Y-56972670D01*
X26703385Y-56941897D01*
X26680343Y-56918631D01*
X26663398Y-56907750D01*
X26645790Y-56899597D01*
X26616493Y-56887968D01*
X26578187Y-56873780D01*
X26533557Y-56857950D01*
X26485284Y-56841395D01*
X26436053Y-56825031D01*
X26388544Y-56809777D01*
X26345442Y-56796548D01*
X26309428Y-56786262D01*
X26302938Y-56784541D01*
X26251868Y-56766118D01*
X26204816Y-56739503D01*
X26164520Y-56706917D01*
X26133723Y-56670582D01*
X26115165Y-56632718D01*
X26115031Y-56632275D01*
X26110934Y-56599928D01*
X26114431Y-56562471D01*
X26124613Y-56527184D01*
X26129433Y-56516981D01*
X26135512Y-56499197D01*
X26136450Y-56491026D01*
X26139609Y-56479084D01*
X26148123Y-56457273D01*
X26160542Y-56429126D01*
X26170064Y-56409020D01*
X26197985Y-56358119D01*
X26227401Y-56319490D01*
X26261338Y-56290456D01*
X26302822Y-56268337D01*
X26346373Y-56252944D01*
X26406585Y-56236506D01*
X26460447Y-56225971D01*
X26511302Y-56221429D01*
X26562496Y-56222976D01*
G37*
G36*
X23519652Y-56198061D02*
G01*
X23569412Y-56205944D01*
X23615479Y-56220173D01*
X23659223Y-56240653D01*
X23672227Y-56248078D01*
X23725618Y-56284481D01*
X23766604Y-56323543D01*
X23797808Y-56367822D01*
X23800885Y-56373359D01*
X23811456Y-56395941D01*
X23824724Y-56428862D01*
X23839598Y-56468884D01*
X23854987Y-56512770D01*
X23869800Y-56557283D01*
X23882946Y-56599186D01*
X23893333Y-56635242D01*
X23899870Y-56662212D01*
X23901377Y-56671486D01*
X23904511Y-56696048D01*
X23907997Y-56717041D01*
X23908694Y-56720352D01*
X23910398Y-56735087D01*
X23911810Y-56760721D01*
X23912745Y-56793125D01*
X23913007Y-56815768D01*
X23910301Y-56881945D01*
X23900700Y-56936336D01*
X23882996Y-56981067D01*
X23855978Y-57018267D01*
X23818438Y-57050060D01*
X23769164Y-57078576D01*
X23761383Y-57082369D01*
X23727757Y-57098537D01*
X23685563Y-57118932D01*
X23639729Y-57141167D01*
X23595180Y-57162855D01*
X23586525Y-57167079D01*
X23542706Y-57188120D01*
X23490292Y-57212727D01*
X23434479Y-57238492D01*
X23380464Y-57263008D01*
X23353389Y-57275094D01*
X23259881Y-57317263D01*
X23180221Y-57354804D01*
X23114031Y-57387928D01*
X23060929Y-57416845D01*
X23020536Y-57441765D01*
X22992472Y-57462899D01*
X22976355Y-57480456D01*
X22973756Y-57485139D01*
X22967171Y-57500845D01*
X22968231Y-57508288D01*
X22979636Y-57510553D01*
X22996146Y-57510710D01*
X23010429Y-57509012D01*
X23030330Y-57503500D01*
X23057444Y-57493550D01*
X23093361Y-57478536D01*
X23139675Y-57457832D01*
X23189652Y-57434710D01*
X23294663Y-57387169D01*
X23395004Y-57344812D01*
X23489228Y-57308160D01*
X23575890Y-57277734D01*
X23653544Y-57254056D01*
X23720745Y-57237645D01*
X23752137Y-57231995D01*
X23791785Y-57227452D01*
X23824484Y-57228081D01*
X23855881Y-57234778D01*
X23891625Y-57248439D01*
X23910766Y-57257160D01*
X23941903Y-57277538D01*
X23970695Y-57308630D01*
X23997343Y-57350992D01*
X24022044Y-57405179D01*
X24044998Y-57471747D01*
X24066403Y-57551252D01*
X24086459Y-57644252D01*
X24105364Y-57751301D01*
X24118427Y-57837755D01*
X24126708Y-57895189D01*
X24135280Y-57953166D01*
X24143623Y-58008278D01*
X24151219Y-58057116D01*
X24157548Y-58096275D01*
X24160203Y-58111894D01*
X24169912Y-58175692D01*
X24177666Y-58243272D01*
X24183280Y-58311331D01*
X24186564Y-58376569D01*
X24187331Y-58435687D01*
X24185394Y-58485383D01*
X24182819Y-58509559D01*
X24169620Y-58583023D01*
X24152067Y-58645292D01*
X24128395Y-58699977D01*
X24096838Y-58750687D01*
X24055629Y-58801032D01*
X24024199Y-58833908D01*
X23997060Y-58859801D01*
X23973104Y-58878797D01*
X23947660Y-58893733D01*
X23916057Y-58907445D01*
X23883608Y-58919298D01*
X23856114Y-58929127D01*
X23819538Y-58942475D01*
X23778843Y-58957519D01*
X23742490Y-58971119D01*
X23648437Y-59005003D01*
X23566598Y-59031228D01*
X23497143Y-59049748D01*
X23440244Y-59060513D01*
X23412688Y-59063205D01*
X23375830Y-59066058D01*
X23332491Y-59070750D01*
X23290962Y-59076361D01*
X23283735Y-59077492D01*
X23214135Y-59086785D01*
X23148890Y-59091817D01*
X23091306Y-59092435D01*
X23044740Y-59088496D01*
X22973083Y-59074613D01*
X22912194Y-59056192D01*
X22858179Y-59031259D01*
X22807146Y-58997834D01*
X22755201Y-58953942D01*
X22727749Y-58927531D01*
X22699180Y-58898348D01*
X22673705Y-58870871D01*
X22653693Y-58847759D01*
X22641516Y-58831674D01*
X22639880Y-58828882D01*
X22625371Y-58788994D01*
X22616748Y-58740105D01*
X22614037Y-58686946D01*
X22617264Y-58634247D01*
X22626456Y-58586739D01*
X22638366Y-58555162D01*
X22664878Y-58515877D01*
X22703568Y-58476612D01*
X22751752Y-58439636D01*
X22806746Y-58407217D01*
X22822426Y-58399535D01*
X22882585Y-58372067D01*
X22954063Y-58340685D01*
X23034030Y-58306544D01*
X23119653Y-58270798D01*
X23208103Y-58234600D01*
X23296548Y-58199106D01*
X23382159Y-58165470D01*
X23462104Y-58134844D01*
X23533552Y-58108385D01*
X23557991Y-58099625D01*
X23609368Y-58081179D01*
X23647157Y-58066820D01*
X23672046Y-58055918D01*
X23684717Y-58047847D01*
X23685857Y-58041979D01*
X23676151Y-58037686D01*
X23656282Y-58034340D01*
X23632028Y-58031783D01*
X23582845Y-58032154D01*
X23528005Y-58040818D01*
X23473595Y-58056687D01*
X23457426Y-58063042D01*
X23434830Y-58071714D01*
X23408692Y-58080636D01*
X23404822Y-58081854D01*
X23391130Y-58086675D01*
X23365214Y-58096354D01*
X23328823Y-58110217D01*
X23283707Y-58127591D01*
X23231616Y-58147801D01*
X23174299Y-58170173D01*
X23113507Y-58194033D01*
X23107988Y-58196206D01*
X23041390Y-58222233D01*
X22973233Y-58248511D01*
X22906201Y-58274031D01*
X22842978Y-58297783D01*
X22786248Y-58318758D01*
X22738695Y-58335944D01*
X22709704Y-58346070D01*
X22662684Y-58361962D01*
X22627152Y-58373462D01*
X22600419Y-58381166D01*
X22579795Y-58385673D01*
X22562592Y-58387579D01*
X22546120Y-58387482D01*
X22529349Y-58386142D01*
X22498303Y-58382377D01*
X22468618Y-58377560D01*
X22451641Y-58373922D01*
X22429655Y-58364250D01*
X22404389Y-58347413D01*
X22380157Y-58326997D01*
X22361274Y-58306588D01*
X22352531Y-58291556D01*
X22344931Y-58279715D01*
X22339094Y-58277126D01*
X22328246Y-58270041D01*
X22314022Y-58250002D01*
X22297010Y-58218554D01*
X22277799Y-58177242D01*
X22256975Y-58127609D01*
X22235127Y-58071199D01*
X22212842Y-58009557D01*
X22190708Y-57944227D01*
X22169314Y-57876754D01*
X22149246Y-57808681D01*
X22131093Y-57741552D01*
X22123167Y-57709852D01*
X22107013Y-57639767D01*
X22092750Y-57570916D01*
X22080819Y-57505905D01*
X22071664Y-57447338D01*
X22065724Y-57397819D01*
X22063443Y-57359952D01*
X22063432Y-57357683D01*
X22064612Y-57311391D01*
X22067859Y-57261215D01*
X22072735Y-57211190D01*
X22078800Y-57165348D01*
X22085616Y-57127721D01*
X22090524Y-57108669D01*
X22118650Y-57033851D01*
X22156743Y-56954222D01*
X22202456Y-56873584D01*
X22253442Y-56795742D01*
X22307353Y-56724500D01*
X22361843Y-56663663D01*
X22370149Y-56655449D01*
X22419079Y-56611113D01*
X22468110Y-56574044D01*
X22524349Y-56538887D01*
X22526675Y-56537545D01*
X22549788Y-56524033D01*
X22581041Y-56505483D01*
X22615746Y-56484685D01*
X22639497Y-56470338D01*
X22699742Y-56436419D01*
X22768127Y-56402982D01*
X22846226Y-56369360D01*
X22935613Y-56334885D01*
X23037861Y-56298889D01*
X23066657Y-56289229D01*
X23167403Y-56257084D01*
X23256220Y-56231843D01*
X23334482Y-56213414D01*
X23403559Y-56201703D01*
X23464825Y-56196616D01*
X23519652Y-56198061D01*
G37*
G36*
X21409756Y-56887864D02*
G01*
X21522325Y-56897533D01*
X21625768Y-56915379D01*
X21724154Y-56942380D01*
X21821551Y-56979516D01*
X21856779Y-56995379D01*
X21897076Y-57015945D01*
X21935767Y-57038797D01*
X21969492Y-57061710D01*
X21994888Y-57082459D01*
X22005267Y-57093639D01*
X22007972Y-57106047D01*
X22006329Y-57119941D01*
X22003326Y-57138051D01*
X22000022Y-57167639D01*
X21996668Y-57205162D01*
X21993513Y-57247078D01*
X21990808Y-57289845D01*
X21988804Y-57329921D01*
X21987751Y-57363764D01*
X21987737Y-57382959D01*
X21991189Y-57426595D01*
X21999442Y-57481007D01*
X22011863Y-57542956D01*
X22027818Y-57609205D01*
X22042084Y-57661006D01*
X22053721Y-57701722D01*
X22067248Y-57750189D01*
X22080781Y-57799607D01*
X22089971Y-57833846D01*
X22113600Y-57920833D01*
X22135097Y-57995033D01*
X22155211Y-58058408D01*
X22174693Y-58112922D01*
X22194293Y-58160537D01*
X22214761Y-58203217D01*
X22236849Y-58242924D01*
X22260876Y-58280977D01*
X22307427Y-58342118D01*
X22357155Y-58389823D01*
X22411638Y-58425601D01*
X22412870Y-58426249D01*
X22437842Y-58438880D01*
X22457581Y-58446907D01*
X22476938Y-58451373D01*
X22500760Y-58453319D01*
X22533897Y-58453786D01*
X22541138Y-58453793D01*
X22616803Y-58453817D01*
X22603979Y-58476361D01*
X22582070Y-58523242D01*
X22567203Y-58575695D01*
X22558757Y-58636642D01*
X22556131Y-58702437D01*
X22555651Y-58800761D01*
X22591128Y-58871519D01*
X22630417Y-58940971D01*
X22672625Y-58997408D01*
X22719510Y-59042802D01*
X22772824Y-59079122D01*
X22779251Y-59082699D01*
X22813918Y-59100361D01*
X22850319Y-59116888D01*
X22882230Y-59129514D01*
X22891356Y-59132551D01*
X22946291Y-59146182D01*
X23008175Y-59156208D01*
X23070498Y-59161848D01*
X23126750Y-59162322D01*
X23135646Y-59161805D01*
X23228105Y-59155048D01*
X23308061Y-59148688D01*
X23378027Y-59142498D01*
X23440516Y-59136248D01*
X23498043Y-59129710D01*
X23524854Y-59126374D01*
X23637371Y-59111979D01*
X23668472Y-59127511D01*
X23727798Y-59164040D01*
X23785955Y-59212892D01*
X23840341Y-59271431D01*
X23888354Y-59337019D01*
X23908961Y-59371280D01*
X23942037Y-59439996D01*
X23972335Y-59522545D01*
X23999589Y-59617944D01*
X24023530Y-59725206D01*
X24043892Y-59843349D01*
X24051403Y-59896657D01*
X24058970Y-59956745D01*
X24064243Y-60006763D01*
X24067514Y-60051448D01*
X24069072Y-60095536D01*
X24069208Y-60143763D01*
X24068689Y-60178688D01*
X24066124Y-60310423D01*
X24026927Y-60390440D01*
X24004540Y-60433998D01*
X23984833Y-60466301D01*
X23965308Y-60490203D01*
X23943466Y-60508559D01*
X23916808Y-60524222D01*
X23904556Y-60530222D01*
X23879525Y-60540574D01*
X23854740Y-60546851D01*
X23824648Y-60550125D01*
X23795592Y-60551247D01*
X23762266Y-60551549D01*
X23732152Y-60551036D01*
X23710263Y-60549819D01*
X23705414Y-60549239D01*
X23644307Y-60535868D01*
X23580757Y-60515378D01*
X23540089Y-60498494D01*
X23479366Y-60467328D01*
X23410144Y-60426315D01*
X23334111Y-60376663D01*
X23252953Y-60319577D01*
X23168355Y-60256266D01*
X23082005Y-60187934D01*
X22995587Y-60115789D01*
X22950670Y-60076715D01*
X22929854Y-60058235D01*
X22911208Y-60041274D01*
X22893711Y-60024652D01*
X22876342Y-60007189D01*
X22858078Y-59987704D01*
X22837899Y-59965016D01*
X22814783Y-59937947D01*
X22787708Y-59905315D01*
X22755652Y-59865940D01*
X22717595Y-59818642D01*
X22672513Y-59762241D01*
X22619386Y-59695556D01*
X22603821Y-59676000D01*
X22546987Y-59605814D01*
X22492245Y-59540587D01*
X22440708Y-59481536D01*
X22393487Y-59429877D01*
X22351692Y-59386827D01*
X22316435Y-59353602D01*
X22289373Y-59331798D01*
X22280309Y-59326558D01*
X22269322Y-59323518D01*
X22253404Y-59322569D01*
X22229549Y-59323600D01*
X22194749Y-59326503D01*
X22180560Y-59327833D01*
X22135812Y-59332587D01*
X22087689Y-59338511D01*
X22043055Y-59344724D01*
X22018343Y-59348641D01*
X21950936Y-59361813D01*
X21873643Y-59379738D01*
X21790418Y-59401307D01*
X21705216Y-59425412D01*
X21621991Y-59450945D01*
X21544698Y-59476800D01*
X21492308Y-59496000D01*
X21373905Y-59541343D01*
X21268200Y-59581461D01*
X21173964Y-59616785D01*
X21089969Y-59647744D01*
X21014987Y-59674766D01*
X20947788Y-59698281D01*
X20887146Y-59718718D01*
X20831830Y-59736505D01*
X20780614Y-59752073D01*
X20732268Y-59765850D01*
X20685564Y-59778264D01*
X20680690Y-59779510D01*
X20598326Y-59799269D01*
X20528009Y-59813261D01*
X20467936Y-59821551D01*
X20416303Y-59824206D01*
X20371307Y-59821293D01*
X20331144Y-59812878D01*
X20294011Y-59799028D01*
X20283858Y-59794158D01*
X20255372Y-59778613D01*
X20236729Y-59764474D01*
X20223654Y-59748000D01*
X20216672Y-59735375D01*
X20203957Y-59700937D01*
X20198906Y-59661767D01*
X20201632Y-59615876D01*
X20212250Y-59561274D01*
X20230406Y-59497452D01*
X20328233Y-59198529D01*
X20427812Y-58914140D01*
X20528674Y-58645444D01*
X20588709Y-58496963D01*
X20647835Y-58362526D01*
X20705974Y-58242269D01*
X20763051Y-58136331D01*
X20818987Y-58044848D01*
X20873705Y-57967960D01*
X20927128Y-57905803D01*
X20962314Y-57872333D01*
X20989336Y-57852705D01*
X21022410Y-57834003D01*
X21056995Y-57818298D01*
X21088553Y-57807660D01*
X21111847Y-57804137D01*
X21142741Y-57810337D01*
X21177210Y-57825809D01*
X21210003Y-57847658D01*
X21235231Y-57872185D01*
X21284368Y-57931076D01*
X21335756Y-57988952D01*
X21386720Y-58042975D01*
X21434582Y-58090311D01*
X21476666Y-58128123D01*
X21477219Y-58128586D01*
X21502431Y-58148787D01*
X21533846Y-58172613D01*
X21569452Y-58198682D01*
X21607237Y-58225613D01*
X21645192Y-58252026D01*
X21681305Y-58276538D01*
X21713564Y-58297770D01*
X21739959Y-58314339D01*
X21758478Y-58324865D01*
X21767111Y-58327966D01*
X21767340Y-58327828D01*
X21763557Y-58321863D01*
X21750148Y-58309048D01*
X21729611Y-58291419D01*
X21704441Y-58271012D01*
X21677135Y-58249862D01*
X21650191Y-58230004D01*
X21631331Y-58216923D01*
X21615708Y-58204709D01*
X21591468Y-58183529D01*
X21560515Y-58155149D01*
X21524751Y-58121339D01*
X21486080Y-58083868D01*
X21454164Y-58052278D01*
X21403928Y-58001492D01*
X21361756Y-57957305D01*
X21324599Y-57916198D01*
X21289406Y-57874649D01*
X21253130Y-57829139D01*
X21212719Y-57776150D01*
X21198662Y-57757367D01*
X21159173Y-57704030D01*
X21127723Y-57660140D01*
X21103109Y-57623291D01*
X21084129Y-57591077D01*
X21069581Y-57561093D01*
X21058263Y-57530933D01*
X21048971Y-57498190D01*
X21040504Y-57460459D01*
X21034089Y-57428048D01*
X21023217Y-57350826D01*
X21019762Y-57273608D01*
X21023368Y-57198675D01*
X21033680Y-57128312D01*
X21050343Y-57064801D01*
X21073001Y-57010425D01*
X21101300Y-56967467D01*
X21106693Y-56961414D01*
X21135581Y-56934758D01*
X21167537Y-56914423D01*
X21204635Y-56899906D01*
X21248952Y-56890701D01*
X21302565Y-56886306D01*
X21367548Y-56886217D01*
X21409756Y-56887864D01*
G37*
%TO.C,DSP2*%
X62700000Y-39170000D02*
X64310000Y-39170000D01*
X62220000Y-38820000D02*
X74940000Y-38820000D01*
X66837200Y-34086200D02*
X70520200Y-34086200D01*
X66659400Y-29184000D02*
X66659400Y-34086200D01*
X70698000Y-29184000D02*
X70698000Y-34086200D01*
X66837200Y-29082400D02*
X70520200Y-29082400D01*
X66659400Y-23646800D02*
X66659400Y-29006200D01*
X70698000Y-23646800D02*
X70698000Y-29006200D01*
X66837200Y-23621400D02*
X70520200Y-23621400D01*
X62220000Y-19600000D02*
X62220000Y-38820000D01*
X62220000Y-19600000D02*
X74940000Y-19600000D01*
X74940000Y-19600000D02*
X74940000Y-38820000D01*
X72042467Y-34272467D02*
G75*
G03*
X72042467Y-34272467I-472467J0D01*
G01*
%TO.C,DSP3*%
X78575000Y-39170000D02*
X80185000Y-39170000D01*
X78095000Y-38820000D02*
X90815000Y-38820000D01*
X82712200Y-34086200D02*
X86395200Y-34086200D01*
X82534400Y-29184000D02*
X82534400Y-34086200D01*
X86573000Y-29184000D02*
X86573000Y-34086200D01*
X82712200Y-29082400D02*
X86395200Y-29082400D01*
X82534400Y-23646800D02*
X82534400Y-29006200D01*
X86573000Y-23646800D02*
X86573000Y-29006200D01*
X82712200Y-23621400D02*
X86395200Y-23621400D01*
X78095000Y-19600000D02*
X78095000Y-38820000D01*
X78095000Y-19600000D02*
X90815000Y-19600000D01*
X90815000Y-19600000D02*
X90815000Y-38820000D01*
X87917467Y-34272467D02*
G75*
G03*
X87917467Y-34272467I-472467J0D01*
G01*
%TO.C,DSP4*%
X91910000Y-39170000D02*
X93520000Y-39170000D01*
X91430000Y-38820000D02*
X104150000Y-38820000D01*
X96047200Y-34086200D02*
X99730200Y-34086200D01*
X95869400Y-29184000D02*
X95869400Y-34086200D01*
X99908000Y-29184000D02*
X99908000Y-34086200D01*
X96047200Y-29082400D02*
X99730200Y-29082400D01*
X95869400Y-23646800D02*
X95869400Y-29006200D01*
X99908000Y-23646800D02*
X99908000Y-29006200D01*
X96047200Y-23621400D02*
X99730200Y-23621400D01*
X91430000Y-19600000D02*
X91430000Y-38820000D01*
X91430000Y-19600000D02*
X104150000Y-19600000D01*
X104150000Y-19600000D02*
X104150000Y-38820000D01*
X101252467Y-34272467D02*
G75*
G03*
X101252467Y-34272467I-472467J0D01*
G01*
%TO.C,R2*%
X61900000Y-17780000D02*
X62850000Y-17780000D01*
X62850000Y-16860000D02*
X62850000Y-18700000D01*
X62850000Y-18700000D02*
X66690000Y-18700000D01*
X66690000Y-16860000D02*
X62850000Y-16860000D01*
X66690000Y-18700000D02*
X66690000Y-16860000D01*
X67640000Y-17780000D02*
X66690000Y-17780000D01*
%TO.C,DSP1*%
X49365000Y-39170000D02*
X50975000Y-39170000D01*
X48885000Y-38820000D02*
X61605000Y-38820000D01*
X53502200Y-34086200D02*
X57185200Y-34086200D01*
X53324400Y-29184000D02*
X53324400Y-34086200D01*
X57363000Y-29184000D02*
X57363000Y-34086200D01*
X53502200Y-29082400D02*
X57185200Y-29082400D01*
X53324400Y-23646800D02*
X53324400Y-29006200D01*
X57363000Y-23646800D02*
X57363000Y-29006200D01*
X53502200Y-23621400D02*
X57185200Y-23621400D01*
X48885000Y-19600000D02*
X48885000Y-38820000D01*
X48885000Y-19600000D02*
X61605000Y-19600000D01*
X61605000Y-19600000D02*
X61605000Y-38820000D01*
X58707467Y-34272467D02*
G75*
G03*
X58707467Y-34272467I-472467J0D01*
G01*
%TO.C,R3*%
X91110000Y-17780000D02*
X92060000Y-17780000D01*
X92060000Y-16860000D02*
X92060000Y-18700000D01*
X92060000Y-18700000D02*
X95900000Y-18700000D01*
X95900000Y-16860000D02*
X92060000Y-16860000D01*
X95900000Y-18700000D02*
X95900000Y-16860000D01*
X96850000Y-17780000D02*
X95900000Y-17780000D01*
%TO.C,J3*%
X64710000Y-53280000D02*
X66040000Y-53280000D01*
X64710000Y-54610000D02*
X64710000Y-53280000D01*
X64710000Y-55880000D02*
X64710000Y-58480000D01*
X64710000Y-55880000D02*
X67370000Y-55880000D01*
X64710000Y-58480000D02*
X67370000Y-58480000D01*
X67370000Y-55880000D02*
X67370000Y-58480000D01*
%TO.C,R4*%
X77775000Y-17780000D02*
X78725000Y-17780000D01*
X78725000Y-16860000D02*
X78725000Y-18700000D01*
X78725000Y-18700000D02*
X82565000Y-18700000D01*
X82565000Y-16860000D02*
X78725000Y-16860000D01*
X82565000Y-18700000D02*
X82565000Y-16860000D01*
X83515000Y-17780000D02*
X82565000Y-17780000D01*
%TD*%
D13*
%TO.C,uP1*%
X34925000Y-46990000D03*
X34925000Y-44450000D03*
X34925000Y-41910000D03*
X34925000Y-39370000D03*
X34925000Y-36830000D03*
X34925000Y-34290000D03*
X34925000Y-31750000D03*
X34925000Y-29210000D03*
X34925000Y-26670000D03*
X34925000Y-24130000D03*
X34925000Y-21590000D03*
X34925000Y-19050000D03*
X19685000Y-46990000D03*
X19685000Y-44450000D03*
X19685000Y-41910000D03*
X19685000Y-39370000D03*
X19685000Y-36830000D03*
X19685000Y-34290000D03*
X19685000Y-31750000D03*
X19685000Y-29210000D03*
X19685000Y-26670000D03*
X19685000Y-24130000D03*
X19685000Y-21590000D03*
X19685000Y-19050000D03*
%TD*%
%LPC*%
D14*
%TO.C,R6*%
X127000000Y-58420000D03*
D15*
X127000000Y-50800000D03*
%TD*%
D16*
%TO.C,DSP5*%
X108585000Y-36830000D03*
D17*
X111125000Y-36830000D03*
X113665000Y-36830000D03*
X116205000Y-36830000D03*
X118745000Y-36830000D03*
X118745000Y-21590000D03*
X116205000Y-21590000D03*
X113665000Y-21590000D03*
X111125000Y-21590000D03*
X108585000Y-21590000D03*
%TD*%
D13*
%TO.C,uP1*%
X34925000Y-46990000D03*
X34925000Y-44450000D03*
X34925000Y-41910000D03*
X34925000Y-39370000D03*
X34925000Y-36830000D03*
X34925000Y-34290000D03*
X34925000Y-31750000D03*
X34925000Y-29210000D03*
X34925000Y-26670000D03*
X34925000Y-24130000D03*
X34925000Y-21590000D03*
X34925000Y-19050000D03*
X19685000Y-46990000D03*
X19685000Y-44450000D03*
X19685000Y-41910000D03*
X19685000Y-39370000D03*
X19685000Y-36830000D03*
X19685000Y-34290000D03*
X19685000Y-31750000D03*
X19685000Y-29210000D03*
X19685000Y-26670000D03*
X19685000Y-24130000D03*
X19685000Y-21590000D03*
X19685000Y-19050000D03*
%TD*%
D18*
%TO.C,REF\u002A\u002A*%
X132080000Y-59690000D03*
%TD*%
D19*
%TO.C,SW1*%
X50165000Y-56860000D03*
X43665000Y-56860000D03*
X50165000Y-52360000D03*
X43665000Y-52360000D03*
%TD*%
D16*
%TO.C,DSP6*%
X121920000Y-36830000D03*
D17*
X124460000Y-36830000D03*
X127000000Y-36830000D03*
X129540000Y-36830000D03*
X132080000Y-36830000D03*
X132080000Y-21590000D03*
X129540000Y-21590000D03*
X127000000Y-21590000D03*
X124460000Y-21590000D03*
X121920000Y-21590000D03*
%TD*%
D20*
%TO.C,J1*%
X73025000Y-56860000D03*
D21*
X73025000Y-54320000D03*
X75565000Y-56860000D03*
X75565000Y-54320000D03*
X78105000Y-56860000D03*
X78105000Y-54320000D03*
%TD*%
D20*
%TO.C,J2*%
X15240000Y-41910000D03*
D21*
X15240000Y-44450000D03*
X15240000Y-46990000D03*
%TD*%
D18*
%TO.C,REF\u002A\u002A*%
X131445000Y-15240000D03*
%TD*%
D14*
%TO.C,R1*%
X47625000Y-17780000D03*
D15*
X55245000Y-17780000D03*
%TD*%
D18*
%TO.C,REF\u002A\u002A*%
X15240000Y-59690000D03*
%TD*%
D14*
%TO.C,R5*%
X113665000Y-58420000D03*
D15*
X113665000Y-50800000D03*
%TD*%
D16*
%TO.C,DSP2*%
X63500000Y-36830000D03*
D17*
X66040000Y-36830000D03*
X68580000Y-36830000D03*
X71120000Y-36830000D03*
X73660000Y-36830000D03*
X73660000Y-21590000D03*
X71120000Y-21590000D03*
X68580000Y-21590000D03*
X66040000Y-21590000D03*
X63500000Y-21590000D03*
%TD*%
D16*
%TO.C,DSP3*%
X79375000Y-36830000D03*
D17*
X81915000Y-36830000D03*
X84455000Y-36830000D03*
X86995000Y-36830000D03*
X89535000Y-36830000D03*
X89535000Y-21590000D03*
X86995000Y-21590000D03*
X84455000Y-21590000D03*
X81915000Y-21590000D03*
X79375000Y-21590000D03*
%TD*%
D16*
%TO.C,DSP4*%
X92710000Y-36830000D03*
D17*
X95250000Y-36830000D03*
X97790000Y-36830000D03*
X100330000Y-36830000D03*
X102870000Y-36830000D03*
X102870000Y-21590000D03*
X100330000Y-21590000D03*
X97790000Y-21590000D03*
X95250000Y-21590000D03*
X92710000Y-21590000D03*
%TD*%
D14*
%TO.C,R2*%
X60960000Y-17780000D03*
D15*
X68580000Y-17780000D03*
%TD*%
D16*
%TO.C,DSP1*%
X50165000Y-36830000D03*
D17*
X52705000Y-36830000D03*
X55245000Y-36830000D03*
X57785000Y-36830000D03*
X60325000Y-36830000D03*
X60325000Y-21590000D03*
X57785000Y-21590000D03*
X55245000Y-21590000D03*
X52705000Y-21590000D03*
X50165000Y-21590000D03*
%TD*%
D14*
%TO.C,R3*%
X90170000Y-17780000D03*
D15*
X97790000Y-17780000D03*
%TD*%
D20*
%TO.C,J3*%
X66040000Y-54610000D03*
D21*
X66040000Y-57150000D03*
%TD*%
D18*
%TO.C,REF\u002A\u002A*%
X15240000Y-15240000D03*
%TD*%
D14*
%TO.C,R4*%
X76835000Y-17780000D03*
D15*
X84455000Y-17780000D03*
%TD*%
%LPD*%
M02*
