%TF.GenerationSoftware,KiCad,Pcbnew,7.0.7*%
%TF.CreationDate,2023-09-30T14:20:14-05:00*%
%TF.ProjectId,Asus Qcode,41737573-2051-4636-9f64-652e6b696361,rev?*%
%TF.SameCoordinates,Original*%
%TF.FileFunction,Copper,L1,Top*%
%TF.FilePolarity,Positive*%
%FSLAX46Y46*%
G04 Gerber Fmt 4.6, Leading zero omitted, Abs format (unit mm)*
G04 Created by KiCad (PCBNEW 7.0.7) date 2023-09-30 14:20:14*
%MOMM*%
%LPD*%
G01*
G04 APERTURE LIST*
%TA.AperFunction,ComponentPad*%
%ADD10C,1.400000*%
%TD*%
%TA.AperFunction,ComponentPad*%
%ADD11O,1.400000X1.400000*%
%TD*%
%TA.AperFunction,ComponentPad*%
%ADD12R,1.600000X1.600000*%
%TD*%
%TA.AperFunction,ComponentPad*%
%ADD13C,1.600000*%
%TD*%
%TA.AperFunction,ComponentPad*%
%ADD14C,1.524000*%
%TD*%
%TA.AperFunction,ComponentPad*%
%ADD15C,4.400000*%
%TD*%
%TA.AperFunction,ComponentPad*%
%ADD16C,2.000000*%
%TD*%
%TA.AperFunction,ComponentPad*%
%ADD17R,1.700000X1.700000*%
%TD*%
%TA.AperFunction,ComponentPad*%
%ADD18O,1.700000X1.700000*%
%TD*%
%TA.AperFunction,ViaPad*%
%ADD19C,1.600000*%
%TD*%
%TA.AperFunction,Conductor*%
%ADD20C,0.600000*%
%TD*%
G04 APERTURE END LIST*
D10*
%TO.P,R6,1*%
%TO.N,Net-(uP1-PC3{slash}A3)*%
X127000000Y-58420000D03*
D11*
%TO.P,R6,2*%
%TO.N,/dsp6*%
X127000000Y-50800000D03*
%TD*%
D12*
%TO.P,DSP5,1,e*%
%TO.N,/e*%
X109220000Y-36707500D03*
D13*
%TO.P,DSP5,2,d*%
%TO.N,/d*%
X111760000Y-36707500D03*
%TO.P,DSP5,3,C.A.*%
%TO.N,/dsp5*%
X114300000Y-36707500D03*
%TO.P,DSP5,4,c*%
%TO.N,/c*%
X116840000Y-36707500D03*
%TO.P,DSP5,5,DP*%
%TO.N,/dp*%
X119380000Y-36707500D03*
%TO.P,DSP5,6,b*%
%TO.N,/b*%
X119380000Y-21467500D03*
%TO.P,DSP5,7,a*%
%TO.N,/a*%
X116840000Y-21467500D03*
%TO.P,DSP5,8,C.A.*%
%TO.N,unconnected-(AFF5-C.A.-Pad8)*%
X114300000Y-21467500D03*
%TO.P,DSP5,9,f*%
%TO.N,/f*%
X111760000Y-21467500D03*
%TO.P,DSP5,10,g*%
%TO.N,/g*%
X109220000Y-21467500D03*
%TD*%
D14*
%TO.P,uP1,7,TX0_D1*%
%TO.N,unconnected-(uP1-TX0_D1-Pad7)*%
X34925000Y-46990000D03*
%TO.P,uP1,8,RX_D0*%
%TO.N,Net-(J1-SOUTC_P80)*%
X34925000Y-44450000D03*
%TO.P,uP1,9,RESET*%
%TO.N,unconnected-(uP1-RESET-Pad9)*%
X34925000Y-41910000D03*
%TO.P,uP1,10,GND*%
%TO.N,GND*%
X34925000Y-39370000D03*
%TO.P,uP1,11,PD2*%
%TO.N,/dp*%
X34925000Y-36830000D03*
%TO.P,uP1,12,PD3*%
%TO.N,/c*%
X34925000Y-34290000D03*
%TO.P,uP1,13,PD4*%
%TO.N,/d*%
X34925000Y-31750000D03*
%TO.P,uP1,14,PD5*%
%TO.N,/e*%
X34925000Y-29210000D03*
%TO.P,uP1,15,PD6*%
%TO.N,/b*%
X34925000Y-26670000D03*
%TO.P,uP1,16,PD7*%
%TO.N,/a*%
X34925000Y-24130000D03*
%TO.P,uP1,17,PB0*%
%TO.N,/f*%
X34925000Y-21590000D03*
%TO.P,uP1,18,PB1*%
%TO.N,/g*%
X34925000Y-19050000D03*
%TO.P,uP1,19,RAW*%
%TO.N,Net-(J2-Pin_3)*%
X19685000Y-46990000D03*
%TO.P,uP1,20,GND*%
%TO.N,Net-(J2-Pin_2)*%
X19685000Y-44450000D03*
%TO.P,uP1,21,RESET*%
%TO.N,unconnected-(uP1-RESET-Pad21)*%
X19685000Y-41910000D03*
%TO.P,uP1,22,Vcc/5v*%
%TO.N,Net-(J2-Pin_1)*%
X19685000Y-39370000D03*
%TO.P,uP1,23,PC3/A3*%
%TO.N,Net-(uP1-PC3{slash}A3)*%
X19685000Y-36830000D03*
%TO.P,uP1,24,PC2/A2*%
%TO.N,Net-(uP1-PC2{slash}A2)*%
X19685000Y-34290000D03*
%TO.P,uP1,25,PC1/A1*%
%TO.N,Net-(uP1-PC1{slash}A1)*%
X19685000Y-31750000D03*
%TO.P,uP1,26,PC0/A0*%
%TO.N,Net-(uP1-PC0{slash}A0)*%
X19685000Y-29210000D03*
%TO.P,uP1,27,PB5*%
%TO.N,unconnected-(uP1-PB5-Pad27)*%
X19685000Y-26670000D03*
%TO.P,uP1,28,PB4*%
%TO.N,Net-(uP1-PB4)*%
X19685000Y-24130000D03*
%TO.P,uP1,29,PB3*%
%TO.N,Net-(uP1-PB3)*%
X19685000Y-21590000D03*
%TO.P,uP1,30,PB2*%
%TO.N,Net-(uP1-PB2)*%
X19685000Y-19050000D03*
%TD*%
D15*
%TO.P,REF\u002A\u002A,1*%
%TO.N,N/C*%
X132080000Y-59690000D03*
%TD*%
D16*
%TO.P,SW1,1,1*%
%TO.N,Net-(uP1-PB4)*%
X50165000Y-56860000D03*
X43665000Y-56860000D03*
%TO.P,SW1,2,2*%
%TO.N,GND*%
X50165000Y-52360000D03*
X43665000Y-52360000D03*
%TD*%
D12*
%TO.P,DSP6,1,e*%
%TO.N,/e*%
X121920000Y-36707500D03*
D13*
%TO.P,DSP6,2,d*%
%TO.N,/d*%
X124460000Y-36707500D03*
%TO.P,DSP6,3,C.A.*%
%TO.N,/dsp6*%
X127000000Y-36707500D03*
%TO.P,DSP6,4,c*%
%TO.N,/c*%
X129540000Y-36707500D03*
%TO.P,DSP6,5,DP*%
%TO.N,/dp*%
X132080000Y-36707500D03*
%TO.P,DSP6,6,b*%
%TO.N,/b*%
X132080000Y-21467500D03*
%TO.P,DSP6,7,a*%
%TO.N,/a*%
X129540000Y-21467500D03*
%TO.P,DSP6,8,C.A.*%
%TO.N,unconnected-(AFF6-C.A.-Pad8)*%
X127000000Y-21467500D03*
%TO.P,DSP6,9,f*%
%TO.N,/f*%
X124460000Y-21467500D03*
%TO.P,DSP6,10,g*%
%TO.N,/g*%
X121920000Y-21467500D03*
%TD*%
D17*
%TO.P,J1,1,SOUTC_P80*%
%TO.N,Net-(J1-SOUTC_P80)*%
X73660000Y-56860000D03*
D18*
%TO.P,J1,2,GND*%
%TO.N,GND*%
X73660000Y-54320000D03*
%TO.P,J1,3*%
%TO.N,N/C*%
X76200000Y-56860000D03*
%TO.P,J1,4,GND*%
%TO.N,GND*%
X76200000Y-54320000D03*
%TO.P,J1,5,+3.3V*%
%TO.N,unconnected-(J1-+3.3V-Pad5)*%
X78740000Y-56860000D03*
%TO.P,J1,6,O_COM_TXD1*%
%TO.N,unconnected-(J1-O_COM_TXD1-Pad6)*%
X78740000Y-54320000D03*
%TD*%
D17*
%TO.P,J2,1,Pin_1*%
%TO.N,Net-(J2-Pin_1)*%
X15240000Y-41910000D03*
D18*
%TO.P,J2,2,Pin_2*%
%TO.N,Net-(J2-Pin_2)*%
X15240000Y-44450000D03*
%TO.P,J2,3,Pin_3*%
%TO.N,Net-(J2-Pin_3)*%
X15240000Y-46990000D03*
%TD*%
D15*
%TO.P,REF\u002A\u002A,1*%
%TO.N,N/C*%
X132080000Y-15240000D03*
%TD*%
D10*
%TO.P,R1,1*%
%TO.N,Net-(uP1-PB3)*%
X47756627Y-17780000D03*
D11*
%TO.P,R1,2*%
%TO.N,/dsp1*%
X55376627Y-17780000D03*
%TD*%
D15*
%TO.P,REF\u002A\u002A,1*%
%TO.N,N/C*%
X15240000Y-59690000D03*
%TD*%
D10*
%TO.P,R5,1*%
%TO.N,Net-(uP1-PC2{slash}A2)*%
X114300000Y-58420000D03*
D11*
%TO.P,R5,2*%
%TO.N,/dsp5*%
X114300000Y-50800000D03*
%TD*%
D12*
%TO.P,DSP2,1,e*%
%TO.N,/e*%
X63500000Y-36707500D03*
D13*
%TO.P,DSP2,2,d*%
%TO.N,/d*%
X66040000Y-36707500D03*
%TO.P,DSP2,3,C.A.*%
%TO.N,unconnected-(AFF2-C.A.-Pad3)*%
X68580000Y-36707500D03*
%TO.P,DSP2,4,c*%
%TO.N,/c*%
X71120000Y-36707500D03*
%TO.P,DSP2,5,DP*%
%TO.N,/dp*%
X73660000Y-36707500D03*
%TO.P,DSP2,6,b*%
%TO.N,/b*%
X73660000Y-21467500D03*
%TO.P,DSP2,7,a*%
%TO.N,/a*%
X71120000Y-21467500D03*
%TO.P,DSP2,8,C.A.*%
%TO.N,/dsp2*%
X68580000Y-21467500D03*
%TO.P,DSP2,9,f*%
%TO.N,/f*%
X66040000Y-21467500D03*
%TO.P,DSP2,10,g*%
%TO.N,/g*%
X63500000Y-21467500D03*
%TD*%
D12*
%TO.P,DSP3,1,e*%
%TO.N,/e*%
X80010000Y-36707500D03*
D13*
%TO.P,DSP3,2,d*%
%TO.N,/d*%
X82550000Y-36707500D03*
%TO.P,DSP3,3,C.A.*%
%TO.N,unconnected-(AFF3-C.A.-Pad3)*%
X85090000Y-36707500D03*
%TO.P,DSP3,4,c*%
%TO.N,/c*%
X87630000Y-36707500D03*
%TO.P,DSP3,5,DP*%
%TO.N,/dp*%
X90170000Y-36707500D03*
%TO.P,DSP3,6,b*%
%TO.N,/b*%
X90170000Y-21467500D03*
%TO.P,DSP3,7,a*%
%TO.N,/a*%
X87630000Y-21467500D03*
%TO.P,DSP3,8,C.A.*%
%TO.N,/dsp3*%
X85090000Y-21467500D03*
%TO.P,DSP3,9,f*%
%TO.N,/f*%
X82550000Y-21467500D03*
%TO.P,DSP3,10,g*%
%TO.N,/g*%
X80010000Y-21467500D03*
%TD*%
D12*
%TO.P,DSP4,1,e*%
%TO.N,/e*%
X92710000Y-36707500D03*
D13*
%TO.P,DSP4,2,d*%
%TO.N,/d*%
X95250000Y-36707500D03*
%TO.P,DSP4,3,C.A.*%
%TO.N,unconnected-(AFF4-C.A.-Pad3)*%
X97790000Y-36707500D03*
%TO.P,DSP4,4,c*%
%TO.N,/c*%
X100330000Y-36707500D03*
%TO.P,DSP4,5,DP*%
%TO.N,/dp*%
X102870000Y-36707500D03*
%TO.P,DSP4,6,b*%
%TO.N,/b*%
X102870000Y-21467500D03*
%TO.P,DSP4,7,a*%
%TO.N,/a*%
X100330000Y-21467500D03*
%TO.P,DSP4,8,C.A.*%
%TO.N,/dsp4*%
X97790000Y-21467500D03*
%TO.P,DSP4,9,f*%
%TO.N,/f*%
X95250000Y-21467500D03*
%TO.P,DSP4,10,g*%
%TO.N,/g*%
X92710000Y-21467500D03*
%TD*%
D10*
%TO.P,R2,1*%
%TO.N,Net-(uP1-PB2)*%
X60960000Y-17780000D03*
D11*
%TO.P,R2,2*%
%TO.N,/dsp2*%
X68580000Y-17780000D03*
%TD*%
D12*
%TO.P,DSP1,1,e*%
%TO.N,/e*%
X50287500Y-36830000D03*
D13*
%TO.P,DSP1,2,d*%
%TO.N,/d*%
X52827500Y-36830000D03*
%TO.P,DSP1,3,C.A.*%
%TO.N,unconnected-(AFF1-C.A.-Pad3)*%
X55367500Y-36830000D03*
%TO.P,DSP1,4,c*%
%TO.N,/c*%
X57907500Y-36830000D03*
%TO.P,DSP1,5,DP*%
%TO.N,/dp*%
X60447500Y-36830000D03*
%TO.P,DSP1,6,b*%
%TO.N,/b*%
X60447500Y-21590000D03*
%TO.P,DSP1,7,a*%
%TO.N,/a*%
X57907500Y-21590000D03*
%TO.P,DSP1,8,C.A.*%
%TO.N,/dsp1*%
X55367500Y-21590000D03*
%TO.P,DSP1,9,f*%
%TO.N,/f*%
X52827500Y-21590000D03*
%TO.P,DSP1,10,g*%
%TO.N,/g*%
X50287500Y-21590000D03*
%TD*%
D10*
%TO.P,R3,1*%
%TO.N,Net-(uP1-PC0{slash}A0)*%
X90170000Y-17780000D03*
D11*
%TO.P,R3,2*%
%TO.N,/dsp4*%
X97790000Y-17780000D03*
%TD*%
D17*
%TO.P,J3,1,Pin_1*%
%TO.N,GND*%
X66040000Y-54610000D03*
D18*
%TO.P,J3,2,Pin_2*%
%TO.N,Net-(J1-SOUTC_P80)*%
X66040000Y-57150000D03*
%TD*%
D15*
%TO.P,REF\u002A\u002A,1*%
%TO.N,N/C*%
X15240000Y-15240000D03*
%TD*%
D10*
%TO.P,R4,1*%
%TO.N,Net-(uP1-PC1{slash}A1)*%
X77470000Y-17780000D03*
D11*
%TO.P,R4,2*%
%TO.N,/dsp3*%
X85090000Y-17780000D03*
%TD*%
D19*
%TO.N,/e*%
X50165000Y-40640000D03*
X80010000Y-40640000D03*
X63500000Y-40640000D03*
X109220000Y-40640000D03*
X121920000Y-40640000D03*
X92710000Y-40640000D03*
%TO.N,/d*%
X52705000Y-43180000D03*
X111760000Y-43180000D03*
X66040000Y-43180000D03*
X82550000Y-43180000D03*
X95250000Y-43180000D03*
X124460000Y-43180000D03*
%TO.N,/c*%
X71120000Y-45720000D03*
X100330000Y-45720000D03*
X87630000Y-45720000D03*
X129540000Y-45720000D03*
X116840000Y-45720000D03*
X57785000Y-45720000D03*
%TO.N,/dp*%
X119380000Y-48260000D03*
X102870000Y-48260000D03*
X132080000Y-48260000D03*
%TO.N,/a*%
X129540000Y-29210000D03*
X57785000Y-29210000D03*
X87630000Y-29210000D03*
X71120000Y-29210000D03*
X100330000Y-29210000D03*
X116840000Y-29210000D03*
%TO.N,/f*%
X95250000Y-26670000D03*
X124460000Y-26670000D03*
X111760000Y-26670000D03*
X52705000Y-26670000D03*
X66040000Y-26670000D03*
X82550000Y-26670000D03*
%TO.N,/g*%
X109220000Y-24130000D03*
X121920000Y-24130000D03*
X50165000Y-24130000D03*
X92710000Y-24130000D03*
X63500000Y-24130000D03*
X80010000Y-24130000D03*
%TD*%
D20*
%TO.N,/e*%
X50165000Y-40640000D02*
X63500000Y-40640000D01*
X92710000Y-40640000D02*
X109220000Y-40640000D01*
X63500000Y-40640000D02*
X80010000Y-40640000D01*
X80010000Y-40640000D02*
X92710000Y-40640000D01*
X109220000Y-40640000D02*
X121920000Y-40640000D01*
%TO.N,/d*%
X82550000Y-43180000D02*
X95250000Y-43180000D01*
X111760000Y-43180000D02*
X124460000Y-43180000D01*
X95250000Y-43180000D02*
X111760000Y-43180000D01*
X66040000Y-43180000D02*
X82550000Y-43180000D01*
X52705000Y-43180000D02*
X66040000Y-43180000D01*
%TO.N,/c*%
X57785000Y-45720000D02*
X71120000Y-45720000D01*
X116840000Y-45720000D02*
X129540000Y-45720000D01*
X87630000Y-45720000D02*
X100330000Y-45720000D01*
X100330000Y-45720000D02*
X116840000Y-45720000D01*
X71120000Y-45720000D02*
X87630000Y-45720000D01*
%TO.N,/dp*%
X102870000Y-48260000D02*
X119380000Y-48260000D01*
X119380000Y-48260000D02*
X132080000Y-48260000D01*
%TO.N,/a*%
X57785000Y-29210000D02*
X71120000Y-29210000D01*
X71120000Y-29210000D02*
X87630000Y-29210000D01*
X87630000Y-29210000D02*
X100330000Y-29210000D01*
X100330000Y-29210000D02*
X116840000Y-29210000D01*
X116840000Y-29210000D02*
X129540000Y-29210000D01*
%TO.N,/f*%
X111760000Y-26670000D02*
X124460000Y-26670000D01*
X66040000Y-26670000D02*
X82550000Y-26670000D01*
X95250000Y-26670000D02*
X111760000Y-26670000D01*
X52705000Y-26670000D02*
X66040000Y-26670000D01*
X82550000Y-26670000D02*
X95250000Y-26670000D01*
%TO.N,/g*%
X92710000Y-24130000D02*
X109220000Y-24130000D01*
X109220000Y-24130000D02*
X121920000Y-24130000D01*
X63500000Y-24130000D02*
X80010000Y-24130000D01*
X80010000Y-24130000D02*
X92710000Y-24130000D01*
X50165000Y-24130000D02*
X63500000Y-24130000D01*
%TO.N,Net-(uP1-PC0{slash}A0)*%
X19685000Y-29210000D02*
X34925000Y-13970000D01*
X86360000Y-13970000D02*
X90170000Y-17780000D01*
X34925000Y-13970000D02*
X86360000Y-13970000D01*
%TO.N,Net-(uP1-PC1{slash}A1)*%
X19685000Y-31750000D02*
X36195000Y-15240000D01*
X74930000Y-15240000D02*
X77470000Y-17780000D01*
X36195000Y-15240000D02*
X74930000Y-15240000D01*
%TO.N,Net-(uP1-PC2{slash}A2)*%
X21590000Y-34290000D02*
X33020000Y-45720000D01*
X19685000Y-34290000D02*
X21590000Y-34290000D01*
X33020000Y-45720000D02*
X33020000Y-58420000D01*
X34290000Y-59690000D02*
X113030000Y-59690000D01*
X113030000Y-59690000D02*
X114300000Y-58420000D01*
X33020000Y-58420000D02*
X34290000Y-59690000D01*
%TO.N,Net-(uP1-PC3{slash}A3)*%
X19685000Y-36830000D02*
X31750000Y-48895000D01*
X124460000Y-60960000D02*
X127000000Y-58420000D01*
X33020000Y-60960000D02*
X124460000Y-60960000D01*
X31750000Y-48895000D02*
X31750000Y-59690000D01*
X31750000Y-59690000D02*
X33020000Y-60960000D01*
%TD*%
M02*
