M48
; DRILL file {KiCad 7.0.7} date Tue Oct  3 13:41:03 2023
; FORMAT={-:-/ absolute / metric / decimal}
; #@! TF.CreationDate,2023-10-03T13:41:03-05:00
; #@! TF.GenerationSoftware,Kicad,Pcbnew,7.0.7
; #@! TF.FileFunction,Plated,1,2,PTH
FMAT,2
METRIC
; #@! TA.AperFunction,Plated,PTH,ComponentDrill
T1C0.700
; #@! TA.AperFunction,Plated,PTH,ComponentDrill
T2C0.762
; #@! TA.AperFunction,Plated,PTH,ViaDrill
T3C0.800
; #@! TA.AperFunction,Plated,PTH,ComponentDrill
T4C0.800
; #@! TA.AperFunction,Plated,PTH,ComponentDrill
T5C1.000
; #@! TA.AperFunction,Plated,PTH,ComponentDrill
T6C1.100
; #@! TA.AperFunction,Plated,PTH,ComponentDrill
T7C2.200
%
G90
G05
T1
X47.625Y-17.78
X55.245Y-17.78
X60.96Y-17.78
X68.58Y-17.78
X76.835Y-17.78
X84.455Y-17.78
X90.17Y-17.78
X97.79Y-17.78
X113.665Y-50.8
X113.665Y-58.42
X127.0Y-50.8
X127.0Y-58.42
T2
X19.685Y-19.05
X19.685Y-21.59
X19.685Y-24.13
X19.685Y-26.67
X19.685Y-29.21
X19.685Y-31.75
X19.685Y-34.29
X19.685Y-36.83
X19.685Y-39.37
X19.685Y-41.91
X19.685Y-44.45
X19.685Y-46.99
X34.925Y-19.05
X34.925Y-21.59
X34.925Y-24.13
X34.925Y-26.67
X34.925Y-29.21
X34.925Y-31.75
X34.925Y-34.29
X34.925Y-36.83
X34.925Y-39.37
X34.925Y-41.91
X34.925Y-44.45
X34.925Y-46.99
T3
X50.165Y-24.13
X50.165Y-40.64
X52.705Y-26.67
X52.705Y-43.18
X57.785Y-29.21
X57.785Y-45.72
X63.5Y-24.13
X63.5Y-40.64
X66.04Y-26.67
X66.04Y-43.18
X71.12Y-29.21
X71.12Y-45.72
X79.375Y-24.13
X79.375Y-40.64
X81.915Y-26.67
X81.915Y-43.18
X86.995Y-29.21
X86.995Y-45.72
X92.71Y-24.13
X92.71Y-40.64
X95.25Y-26.67
X95.25Y-43.18
X100.33Y-29.21
X100.33Y-45.72
X102.87Y-48.26
X108.585Y-24.13
X108.585Y-40.64
X111.125Y-26.67
X111.125Y-43.18
X116.205Y-29.21
X116.205Y-45.72
X118.745Y-48.26
X121.92Y-24.13
X121.92Y-40.64
X124.46Y-26.67
X124.46Y-43.18
X129.54Y-29.21
X129.54Y-45.72
X132.08Y-48.26
T4
X50.165Y-21.59
X50.165Y-36.83
X52.705Y-21.59
X52.705Y-36.83
X55.245Y-21.59
X55.245Y-36.83
X57.785Y-21.59
X57.785Y-36.83
X60.325Y-21.59
X60.325Y-36.83
X63.5Y-21.59
X63.5Y-36.83
X66.04Y-21.59
X66.04Y-36.83
X68.58Y-21.59
X68.58Y-36.83
X71.12Y-21.59
X71.12Y-36.83
X73.66Y-21.59
X73.66Y-36.83
X79.375Y-21.59
X79.375Y-36.83
X81.915Y-21.59
X81.915Y-36.83
X84.455Y-21.59
X84.455Y-36.83
X86.995Y-21.59
X86.995Y-36.83
X89.535Y-21.59
X89.535Y-36.83
X92.71Y-21.59
X92.71Y-36.83
X95.25Y-21.59
X95.25Y-36.83
X97.79Y-21.59
X97.79Y-36.83
X100.33Y-21.59
X100.33Y-36.83
X102.87Y-21.59
X102.87Y-36.83
X108.585Y-21.59
X108.585Y-36.83
X111.125Y-21.59
X111.125Y-36.83
X113.665Y-21.59
X113.665Y-36.83
X116.205Y-21.59
X116.205Y-36.83
X118.745Y-21.59
X118.745Y-36.83
X121.92Y-21.59
X121.92Y-36.83
X124.46Y-21.59
X124.46Y-36.83
X127.0Y-21.59
X127.0Y-36.83
X129.54Y-21.59
X129.54Y-36.83
X132.08Y-21.59
X132.08Y-36.83
T5
X15.24Y-41.91
X15.24Y-44.45
X15.24Y-46.99
X66.04Y-54.61
X66.04Y-57.15
X73.025Y-54.32
X73.025Y-56.86
X75.565Y-54.32
X75.565Y-56.86
X78.105Y-54.32
X78.105Y-56.86
T6
X43.665Y-52.36
X43.665Y-56.86
X50.165Y-52.36
X50.165Y-56.86
T7
X15.24Y-15.24
X15.24Y-59.69
X132.08Y-15.24
X132.08Y-59.69
T0
M30
